<?xml version="1.0" encoding="UTF-8"?>
<!DOCTYPE svg PUBLIC "-//W3C//DTD SVG 1.1//EN" "http://www.w3.org/Graphics/SVG/1.1/DTD/svg11.dtd">
<!-- Creator: CorelDRAW 2021.5 -->
<svg xmlns="http://www.w3.org/2000/svg" xml:space="preserve" width="167.589mm" height="180mm" version="1.1" style="shape-rendering:geometricPrecision; text-rendering:geometricPrecision; image-rendering:optimizeQuality; fill-rule:evenodd; clip-rule:evenodd"
viewBox="0 0 7690.33 8259.87"
 xmlns:xlink="http://www.w3.org/1999/xlink"
 xmlns:xodm="http://www.corel.com/coreldraw/odm/2003">
 <defs>
  <style type="text/css">
   <![CDATA[
    .fil0 {fill:url(#id0)}
   ]]>
  </style>
  <linearGradient id="id0" gradientUnits="userSpaceOnUse" x1="8526.02" y1="-1667.15" x2="-2103.41" y2="11498.71">
   <stop offset="0" style="stop-opacity:1; stop-color:#4286F4"/>
   <stop offset="1" style="stop-opacity:1; stop-color:#373B44"/>
  </linearGradient>
 </defs>
 <g id="Layer_x0020_1">
  <metadata id="CorelCorpID_0Corel-Layer"/>
  <path class="fil0" d="M3734.35 8258.28l0 -0.01 -0.55 0c-14.05,-0.4 -28.06,-0.95 -42.07,-1.5l0 -0.21 -5.8 0c-10.58,-0.43 -21.15,-0.92 -31.7,-1.44l0 -0.27 -5.14 0c-19.35,-0.97 -38.66,-2.09 -57.93,-3.35l0 -0.06 -0.94 0c-7.07,-0.46 -14.16,-0.9 -21.22,-1.4l0 -0.3 -4.59 0c-6.43,-0.46 -12.84,-0.99 -19.27,-1.48l0 -0.22 -2.72 0c-6.48,-0.5 -12.96,-1.03 -19.44,-1.57l0 -0.13 -1.61 0c-6.85,-0.57 -13.71,-1.09 -20.55,-1.7l0 -0.01 -0.12 0c-5.66,-0.5 -11.28,-1.09 -16.92,-1.62l0 -0.09 -0.95 0 -16.1 -1.54 0 -0.17 -1.76 0c-5.09,-0.5 -10.2,-0.94 -15.29,-1.46l0 -0.24 -2.58 0c-4.26,-0.44 -8.51,-0.96 -12.77,-1.41l0 -0.29 -2.68 0c-4.8,-0.51 -9.58,-1.06 -14.36,-1.59l0 -0.12 -1.11 0c-14.43,-1.6 -28.84,-3.27 -43.22,-5.03l0 -0.08 -0.64 0 -13 -1.62 0 -0.08 -0.64 0 -11.29 -1.41 0 -0.3 -2.34 0c-3.76,-0.49 -7.54,-0.93 -11.29,-1.43l0 -0.27 -1.95 0c-3.34,-0.45 -6.65,-0.95 -9.99,-1.4l0 -0.31 -2.19 0 -11.44 -1.61 0 -0.1 -0.71 0c-19.13,-2.68 -38.21,-5.49 -57.25,-8.45l0 -0.07 -0.46 0 -9.77 -1.51 0 -0.19 -1.25 0c-2.99,-0.47 -5.99,-0.91 -8.98,-1.39l0 -0.32 -2.03 0 -8.19 -1.34 0 -0.37 -2.15 0c-3.27,-0.53 -6.52,-1.12 -9.79,-1.66l0 -0.04 -0.24 0 -9.99 -1.7 0 -0.01 -0.06 0c-13.07,-2.22 -26.12,-4.46 -39.15,-6.81l0 -0 -0.02 0 -8.51 -1.57 0 -0.14 -0.72 0c-6.02,-1.1 -12.03,-2.2 -18.03,-3.33l0 -0.08 -0.43 0c-2.69,-0.51 -5.4,-0.98 -8.1,-1.5l0 -0.2 -1.1 0c-2.47,-0.47 -4.95,-0.91 -7.42,-1.39l0 -0.32 -1.61 0c-2.31,-0.45 -4.61,-0.93 -6.92,-1.38l0 -0.32 -1.62 0c-19.41,-3.79 -38.75,-7.74 -58.05,-11.82l0 -0.11 -0.51 0c-4.95,-1.05 -9.89,-2.13 -14.83,-3.19l0 -0.22 -1.04 0 -7.48 -1.61 0 -0.1 -0.45 0 -6.37 -1.37 0 -0.33 -1.55 0c-2.32,-0.51 -4.65,-0.98 -6.97,-1.5l0 -0.21 -0.92 0 -5.91 -1.36 0 -0.35 -1.51 0 -7.01 -1.62 0 -0.09 -0.39 0 -6.43 -1.48 0 -0.22 -0.99 0 -14.36 -3.31 0 -0.1 -0.44 0c-7.25,-1.68 -14.5,-3.35 -21.72,-5.08l0 -0.03 -0.12 0 -6.7 -1.64 0 -0.06 -0.25 0 -6.57 -1.61 0 -0.09 -0.38 0 -6.44 -1.58 0 -0.12 -0.51 0 -6.31 -1.55 0 -0.16 -0.64 0 -6.18 -1.52 0 -0.18 -0.75 0 -6.07 -1.49 0 -0.22 -0.88 0 -5.94 -1.46 0 -0.25 -0.97 0c-1.96,-0.5 -3.9,-1.03 -5.85,-1.53l0 -0.18 -0.69 0 -6.13 -1.6 0 -0.11 -0.39 0 -6.42 -1.67 0 -0.03 -0.12 0c-17.05,-4.42 -34.06,-8.95 -51.02,-13.59l0 -0.05 -0.18 0 -11.75 -3.25 0 -0.17 -0.6 0c-3.78,-1.05 -7.57,-2.07 -11.34,-3.13l0 -0.28 -1.01 0 -5.8 -1.61 0 -0.1 -0.35 0 -4.76 -1.33 0 -0.38 -1.29 0 -5.53 -1.61 0 -0.09 -0.32 0 -4.8 -1.4 0 -0.3 -1.05 0 -5.77 -1.68 0 -0.02 -0.06 0c-15.36,-4.45 -30.69,-8.98 -45.97,-13.62l0 -0.03 -0.08 0c-7.37,-2.23 -14.73,-4.5 -22.08,-6.78l0 -0.04 -0.1 0 -5.01 -1.54 0 -0.16 -0.54 0 -4.58 -1.41 0 -0.29 -0.95 0c-5.37,-1.69 -10.74,-3.4 -16.1,-5.11l0 -0.01 -0.03 0 -5.08 -1.64 0 -0.06 -0.18 0 -4.93 -1.59 0 -0.11 -0.35 0 -4.77 -1.54 0 -0.16 -0.51 0c-20.36,-6.58 -40.65,-13.32 -60.87,-20.23l0 -0.22 -0.67 0 -4.44 -1.51 0 -0.2 -0.59 0 -4.52 -1.54 0 -0.17 -0.5 0 -4.61 -1.56 0 -0.14 -0.42 0 -4.7 -1.65 0 -0.05 -0.15 0c-6.22,-2.17 -12.4,-4.41 -18.6,-6.61l0 -0.22 -0.61 0 -4.51 -1.6 0 -0.1 -0.28 0c-14.15,-5.03 -28.26,-10.14 -42.33,-15.33l0 -0.01 -0.02 0 -13.62 -5.06 0 -0.06 -0.17 0 -8.36 -3.1 0 -0.3 -0.82 0 -4.3 -1.6 0 -0.11 -0.29 0 -8.23 -3.11 0 -0.3 -0.78 0 -4.33 -1.68 0 -0.02 -0.06 0 -8.47 -3.28 0 -0.13 -0.33 0c-7.28,-2.8 -14.56,-5.62 -21.83,-8.46l0 -0.06 -0.16 0c-11.34,-4.45 -22.64,-8.97 -33.93,-13.52l0 -0.11 -0.28 0 -8.24 -3.33 0 -0.08 -0.2 0 -8.33 -3.36 0 -0.05 -0.11 0c-2.8,-1.15 -5.62,-2.25 -8.42,-3.4l0 -0.01 -0.03 0 -3.39 -1.39 0 -0.31 -0.74 0c-2.6,-1.07 -5.18,-2.19 -7.78,-3.27l0 -0.14 -0.33 0c-3.88,-1.61 -7.73,-3.25 -11.61,-4.88l0 -0.23 -0.55 0 -7.98 -3.36 0 -0.05 -0.13 0c-11.92,-5.04 -23.82,-10.13 -35.67,-15.28l0 -0.07 -0.16 0 -15.18 -6.64 0 -0.17 -0.4 0c-3.84,-1.69 -7.7,-3.35 -11.54,-5.04l0 -0.07 -0.15 0 -3.25 -1.43 0 -0.28 -0.64 0c-3.77,-1.68 -7.53,-3.4 -11.29,-5.09l0 -0.02 -0.05 0 -3.36 -1.53 0 -0.18 -0.39 0c-4.99,-2.24 -9.97,-4.52 -14.95,-6.79l0 -0.03 -0.05 0c-6.23,-2.84 -12.49,-5.63 -18.7,-8.5l0 -0.02 -0.05 0c-9.68,-4.47 -19.3,-9.05 -28.93,-13.6l0 -0.04 -0.09 0 -3.32 -1.56 0 -0.14 -0.29 0 -3.12 -1.47 0 -0.24 -0.5 0c-10.66,-5.06 -21.29,-10.16 -31.89,-15.32l0 -0.02 -0.04 0 -3.37 -1.65 0 -0.06 -0.11 0 -3.29 -1.61 0 -0.1 -0.2 0 -3.22 -1.57 0 -0.12 -0.26 0 -3.14 -1.54 0 -0.17 -0.34 0c-14.72,-7.23 -29.37,-14.56 -43.98,-21.96l0 -0.2 -0.39 0 -3.02 -1.53 0 -0.17 -0.34 0 -3.06 -1.55 0 -0.16 -0.31 0 -3.11 -1.57 0 -0.13 -0.26 0 -3.15 -1.6 0 -0.11 -0.21 0 -3.2 -1.62 0 -0.08 -0.17 0 -3.24 -1.65 0 -0.06 -0.12 0 -3.29 -1.7 0 -0.01 -0.02 0c-9.69,-5 -19.32,-10.11 -28.96,-15.19l0 -0.15 -0.29 0 -3.12 -1.63 0 -0.07 -0.13 0c-8.5,-4.49 -16.98,-9.01 -25.44,-13.56l0 -0.08 -0.15 0c-6.21,-3.34 -12.41,-6.71 -18.6,-10.09l0 -0.14 -0.25 0c-5.02,-2.74 -10.08,-5.42 -15.09,-8.19l0 -0.34 -0.63 0 -2.79 -1.55 0 -0.16 -0.28 0c-3.9,-2.15 -7.76,-4.37 -11.65,-6.53l0 -0.29 -0.51 0 -2.9 -1.63 0 -0.07 -0.14 0c-13.06,-7.3 -26.1,-14.65 -39.07,-22.09l0 -0.07 -0.13 0c-6.79,-3.9 -13.56,-7.84 -20.33,-11.77l0 -0.16 -0.27 0 -8.26 -4.79 0 -0.33 -0.57 0 -2.83 -1.64 0 -0.07 -0.11 0 -8.42 -4.95 0 -0.17 -0.28 0c-2.76,-1.63 -5.49,-3.29 -8.25,-4.93l0 -0.18 -0.3 0 -8.23 -4.92 0 -0.2 -0.33 0c-11.29,-6.75 -22.55,-13.51 -33.77,-20.37l0 -0.08 -0.13 0c-4.52,-2.76 -9,-5.56 -13.51,-8.34l0 -0.19 -0.3 0 -8.22 -5.08 0 -0.04 -0.06 0 -5.05 -3.12 0 -0.3 -0.48 0c-2.67,-1.67 -5.37,-3.29 -8.04,-4.97l0 -0.15 -0.24 0 -4.87 -3.09 0 -0.32 -0.5 0c-2.68,-1.69 -5.34,-3.41 -8.02,-5.11l0 -0.01 -0 0 -5.11 -3.25 0 -0.15 -0.24 0c-15.91,-10.1 -31.74,-20.31 -47.49,-30.64l0 -0.04 -0.06 0 -5.05 -3.32 0 -0.1 -0.14 0 -4.97 -3.26 0 -0.15 -0.22 0 -4.89 -3.2 0 -0.21 -0.31 0 -4.81 -3.16 0 -0.25 -0.39 0 -4.73 -3.12 0 -0.28 -0.41 0c-1.57,-1.05 -3.13,-2.13 -4.7,-3.18l0 -0.23 -0.34 0 -4.77 -3.23 0 -0.18 -0.26 0 -4.85 -3.28 0 -0.13 -0.19 0 -4.92 -3.33 0 -0.08 -0.12 0 -5 -3.39 0 -0.02 -0.04 0c-14.84,-10.06 -29.59,-20.24 -44.29,-30.51l0 -0.18 -0.25 0 -4.86 -3.39 0 -0.02 -0.04 0c-2.26,-1.58 -4.53,-3.14 -6.78,-4.73l0 -0.39 -0.55 0 -4.57 -3.18 0 -0.22 -0.32 0c-3.89,-2.75 -7.73,-5.57 -11.61,-8.34l0 -0.19 -0.26 0 -11.67 -8.38 0 -0.14 -0.2 0c-10.2,-7.33 -20.37,-14.69 -30.48,-22.11l0 -0.05 -0.06 0 -6.75 -4.99 0 -0.12 -0.17 0 -6.65 -4.91 0 -0.2 -0.27 0 -6.55 -4.85 0 -0.27 -0.37 0 -6.45 -4.77 0 -0.35 -0.47 0 -6.35 -4.73 0 -0.38 -0.5 0c-2.12,-1.59 -4.2,-3.21 -6.31,-4.8l0 -0.31 -0.4 0 -6.42 -4.88 0 -0.23 -0.31 0 -6.51 -4.96 0 -0.16 -0.21 0 -6.61 -5.03 0 -0.08 -0.11 0 -6.71 -5.11 0 -0.01 -0.01 0c-5.12,-3.93 -10.22,-7.89 -15.33,-11.85l0 -0.08 -0.1 0c-5.1,-3.96 -10.17,-7.95 -15.25,-11.94l-8.53 -6.68 0 -0.14 -0.18 0c-2.77,-2.18 -5.58,-4.33 -8.33,-6.53l0 -0.29 -0.38 0c-2.73,-2.17 -5.42,-4.37 -8.15,-6.55l0 -0.27 -0.33 0 -8.19 -6.59 0 -0.22 -0.28 0 -8.25 -6.64 0 -0.17 -0.22 0c-12.5,-10.09 -24.92,-20.27 -37.28,-30.51l0 -0.18 -0.22 0 -10.01 -8.3 0 -0.23 -0.28 0c-3.31,-2.76 -6.65,-5.48 -9.95,-8.25l0 -0.28 -0.33 0c-3.32,-2.79 -6.58,-5.64 -9.89,-8.43l0 -0.09 -0.11 0 -1.6 -1.36 0 -0.34 -0.41 0 -9.82 -8.37 0 -0.14 -0.17 0c-12.51,-10.68 -24.95,-21.44 -37.33,-32.27l0 -0.12 -0.14 0c-4.5,-3.94 -9.01,-7.87 -13.5,-11.83l0 -0.11 -0.12 0 -1.58 -1.39 0 -0.32 -0.36 0c-4.44,-3.92 -8.86,-7.87 -13.28,-11.82l0 -0.12 -0.13 0 -1.57 -1.42 0 -0.29 -0.32 0c-5.03,-4.49 -10.03,-9.01 -15.02,-13.54l0 -0.1 -0.11 0c-13.69,-12.37 -27.29,-24.85 -40.8,-37.41l0 -0.09 -0.1 0 -1.61 -1.49 0 -0.22 -0.23 0 -1.48 -1.36 0 -0.34 -0.37 0c-7.87,-7.33 -15.69,-14.73 -23.5,-22.13l0 -0.03 -0.03 0 -1.67 -1.59 0 -0.11 -0.11 0 -1.58 -1.51 0 -0.2 -0.21 0c-15.4,-14.64 -30.67,-29.41 -45.82,-44.3l0 -0.03 -0.03 0 -1.68 -1.65 0 -0.06 -0.06 0 -1.64 -1.61 0 -0.1 -0.11 0 -1.6 -1.57 0 -0.14 -0.14 0 -1.56 -1.54 0 -0.17 -0.17 0 -1.53 -1.5 0 -0.21 -0.21 0 -1.49 -1.46 0 -0.24 -0.25 0 -1.46 -1.43 0 -0.28 -0.28 0 -1.42 -1.39 0 -0.31 -0.31 0 -1.39 -1.4 0 -0.3 -0.3 0 -1.4 -1.42 0 -0.29 -0.29 0 -1.41 -1.42 0 -0.28 -0.28 0 -1.43 -1.43 0 -0.27 -0.27 0 -1.44 -1.45 0 -0.26 -0.25 0 -1.45 -1.45 0 -0.25 -0.25 0 -1.46 -1.47 0 -0.24 -0.24 0 -1.47 -1.48 0 -0.22 -0.22 0 -1.48 -1.49 0 -0.22 -0.22 0 -1.49 -1.5 0 -0.21 -0.2 0 -1.51 -1.51 0 -0.19 -0.19 0 -1.51 -1.52 0 -0.18 -0.18 0 -1.52 -1.53 0 -0.17 -0.17 0 -1.54 -1.55 0 -0.16 -0.16 0 -1.54 -1.55 0 -0.15 -0.15 0 -1.56 -1.57 0 -0.14 -0.14 0 -1.56 -1.58 0 -0.13 -0.13 0c-3.36,-3.4 -6.75,-6.79 -10.1,-10.21l0 -0.02 -0.01 0c-12.01,-12.26 -23.94,-24.62 -35.78,-37.04l0 -0.47 -0.45 0 -1.26 -1.34 0 -0.36 -0.34 0 -1.36 -1.45 0 -0.26 -0.23 0 -1.47 -1.56 0 -0.15 -0.14 0 -1.57 -1.67 0 -0.04 -0.03 0c-9.13,-9.62 -18.22,-19.27 -27.24,-28.98l0 -0 -0 0c-5.72,-6.15 -11.37,-12.38 -17.04,-18.57l0 -0.18 -0.17 0 -1.54 -1.68 0 -0.02 -0.02 0c-4.54,-4.97 -9.1,-9.91 -13.62,-14.9l0 -0.45 -0.41 0 -1.29 -1.42 0 -0.29 -0.27 0 -1.44 -1.57 0 -0.13 -0.12 0c-4.53,-5.02 -9.01,-10.08 -13.52,-15.12l0 -0.22 -0.19 0 -1.51 -1.7 0 -0 -0 0c-4.56,-5.1 -9.1,-10.21 -13.63,-15.33l0 -0.02 -0.01 0c-10.88,-12.31 -21.65,-24.7 -32.37,-37.15l0 -0.36 -0.31 0 -1.39 -1.61 0 -0.09 -0.08 0c-2.81,-3.26 -5.65,-6.49 -8.44,-9.76l0 -0.47 -0.4 0 -1.3 -1.51 0 -0.19 -0.16 0c-2.81,-3.3 -5.57,-6.64 -8.37,-9.95l0 -0.28 -0.24 0c-3.35,-3.95 -6.66,-7.92 -9.99,-11.88l0 -0.06 -0.04 0c-10.88,-12.94 -21.64,-25.96 -32.35,-39.04l0 -0.17 -0.14 0 -6.68 -8.17 0 -0.35 -0.29 0c-2.17,-2.67 -4.36,-5.31 -6.52,-7.98l0 -0.55 -0.45 0 -1.26 -1.54 0 -0.17 -0.14 0c-2.24,-2.77 -4.45,-5.58 -6.68,-8.37l0 -0.16 -0.13 0c-2.24,-2.79 -4.45,-5.62 -6.69,-8.42l0 -0.1 -0.08 0 -6.74 -8.48 0 -0.05 -0.04 0c-4.75,-5.94 -9.51,-11.87 -14.2,-17.86 1.84,-5.99 3.74,-11.96 5.61,-17.94l0.1 0 0 -0.32 1.5 -4.79 0.21 0 0 -0.67 1.39 -4.45 0.32 0 0 -1 1.32 -4.12 0.39 0 0 -1.18 1.27 -3.93 0.43 0 0 -1.33 1.23 -3.79 0.48 0 0 -1.48 1.18 -3.64 0.53 0 0 -1.62 1.13 -3.49 0.58 0 0 -1.78 1.08 -3.34 0.62 0 0 -1.9 1.08 -3.21 0.63 0 0 -1.88 1.09 -3.24 0.62 0 0 -1.85 1.66 -4.97 0.04 0 0 -0.13 1.67 -4.98 0.03 0 0 -0.1 1.68 -5.02 0.02 0 0 -0.06 1.7 -5.05 0 0 0 -0.01c3.88,-11.39 7.85,-22.76 11.86,-34.09l0.07 0 0 -0.21c1.58,-4.48 3.2,-8.96 4.8,-13.43l0.31 0 0 -0.87 1.52 -4.24 0.19 0 0 -0.52 1.64 -4.59 0.06 0 0 -0.16 1.2 -3.25 0.51 0 0 -1.39 1.37 -3.72 0.33 0 0 -0.9 1.56 -4.22 0.15 0 0 -0.4 1.11 -3 0.6 0 0 -1.62 1.29 -3.49 0.41 0 0 -1.11 1.48 -4 0.23 0 0 -0.62 1.68 -4.49 0.03 0 0 -0.06 1.27 -3.35 0.43 0 0 -1.14 1.51 -3.97 0.19 0 0 -0.5 3.05 -8.02 0.36 0 0 -0.95 1.59 -4.17 0.12 0 0 -0.32 3.16 -8.2 0.25 0 0 -0.63c1.68,-4.34 3.4,-8.67 5.1,-13l0.02 0 0 -0.05c3.35,-8.53 6.74,-17.03 10.16,-25.52l0.06 0 0 -0.17 3.37 -8.35 0.04 0 0 -0.1 1.34 -3.31 0.37 0 0 -0.91 3.12 -7.6 0.28 0 0 -0.69 3.25 -7.83 0.16 0 0 -0.39 1.26 -3.03 0.45 0 0 -1.08 1.67 -4.03 0.03 0 0 -0.06 1.39 -3.35 0.32 0 0 -0.77 1.1 -2.64 0.61 0 0 -1.45 1.57 -3.67 0.14 0 0 -0.32 1.32 -3.08 0.39 0 0 -0.9 3.25 -7.62 0.16 0 0 -0.37 1.3 -3.04 0.4 0 0 -0.95 3.24 -7.57 0.17 0 0 -0.41 1.32 -3 0.39 0 0 -0.89 3.35 -7.63 0.06 0 0 -0.15c4.47,-10.21 8.98,-20.39 13.56,-30.54l0.08 0 0 -0.17 1.46 -3.24 0.24 0 0 -0.54c2.23,-4.94 4.46,-9.88 6.71,-14.8l0.11 0 0 -0.23 1.47 -3.18 0.24 0 0 -0.51 1.34 -2.9 0.36 0 0 -0.78 1.22 -2.63 0.49 0 0 -1.05 1.09 -2.36 0.61 0 0 -1.33 3.33 -7.2 0.08 0 0 -0.17 1.51 -3.24 0.2 0 0 -0.42 1.42 -2.99 0.28 0 0 -0.6 1.34 -2.8 0.37 0 0 -0.78 1.24 -2.63 0.46 0 0 -0.96 1.16 -2.45 0.54 0 0 -1.14c2.25,-4.74 4.48,-9.48 6.76,-14.2l0.06 0 0 -0.11 1.61 -3.29 0.1 0 0 -0.21 1.56 -3.2 0.15 0 0 -0.29 1.51 -3.11 0.19 0 0 -0.39 1.47 -3.02 0.23 0 0 -0.48c6.03,-12.38 12.13,-24.73 18.33,-37.02l0.42 0 0 -0.84 1.28 -2.57 0.42 0 0 -0.83 1.32 -2.58 0.39 0 0 -0.75 1.36 -2.65 0.34 0 0 -0.67 1.41 -2.74 0.3 0 0 -0.59 1.45 -2.82 0.26 0 0 -0.51 1.48 -2.9 0.22 0 0 -0.43 1.52 -2.98 0.18 0 0 -0.36 1.56 -3.05 0.14 0 0 -0.28 1.61 -3.13 0.1 0 0 -0.2 1.67 -3.21 0.03 0 0 -0.06c2.06,-3.97 4.15,-7.92 6.23,-11.88l0.59 0 0 -1.12 1.2 -2.28 0.51 0 0 -0.98 1.28 -2.44 0.43 0 0 -0.82 1.36 -2.59 0.34 0 0 -0.66 1.45 -2.76 0.25 0 0 -0.47 1.58 -2.94 0.12 0 0 -0.24 1.71 -3.17 0 -0.01c3.95,-7.4 7.92,-14.79 11.93,-22.15l0 -0c2.17,-3.99 4.37,-7.95 6.56,-11.93l0.26 0 0 -0.47 1.62 -2.94 0.09 0 0 -0.17c2.16,-3.93 4.31,-7.86 6.49,-11.77l0.32 0 0 -0.57 1.6 -2.83 0.11 0 0 -0.2 4.69 -8.33 0.42 0 0 -0.76 1.5 -2.65 0.21 0 0 -0.38 1.71 -3.03 2.88 -5.12 0.52 0 0 -0.94 1.42 -2.47 0.28 0 0 -0.5 1.68 -2.91 0.03 0 0 -0.05 2.91 -5.07 0.49 0 0 -0.85 1.47 -2.56 0.23 0 0 -0.4 4.67 -8.11 0.45 0 0 -0.78 1.52 -2.64 0.18 0 0 -0.31c1.59,-2.74 3.22,-5.47 4.83,-8.21l0.29 0 0 -0.5 6.74 -11.44 0.08 0 0 -0.14c3.35,-5.65 6.71,-11.28 10.09,-16.91l0.14 0 0 -0.23 4.99 -8.29 0.13 0 0 -0.21 2.95 -4.91 0.45 0 0 -0.75 1.6 -2.66 0.11 0 0 -0.17 3.04 -4.94 0.37 0 0 -0.6 4.88 -7.93 0.23 0 0 -0.37 2.92 -4.74 0.49 0 0 -0.8 1.61 -2.61 0.09 0 0 -0.15 3.07 -4.97 0.34 0 0 -0.55 2.88 -4.57 0.53 0 0 -0.84 1.61 -2.57 0.09 0 0 -0.15 3.13 -4.97 0.28 0 0 -0.45 2.93 -4.66 0.47 0 0 -0.75 1.67 -2.66 0.03 0 0 -0.06 3.21 -5.07 0.2 0 0 -0.31 3.08 -4.8 0.32 0 0 -0.5 8.45 -13.14 0.07 0 0 -0.11c5.51,-8.51 11.06,-17 16.65,-25.46l0.39 0 0 -0.6 2.96 -4.51 0.44 0 0 -0.67 2.98 -4.44 0.44 0 0 -0.64 3 -4.47 0.41 0 0 -0.61 3.02 -4.5 0.39 0 0 -0.58 3.05 -4.54 0.36 0 0 -0.54 3.07 -4.57 0.34 0 0 -0.5 3.15 -4.61 0.26 0 0 -0.38 3.25 -4.74 0.16 0 0 -0.23 3.34 -4.88 0.07 0 0 -0.1 1.1 -1.61 0.61 0 0 -0.89 2.9 -4.23 0.5 0 0 -0.74 3.01 -4.37 0.41 0 0 -0.58 3.18 -4.54 0.23 0 0 -0.33 3.35 -4.79 0.06 0 0 -0.09c3.96,-5.66 7.91,-11.32 11.91,-16.96l0.02 0 0 -0.04c2.82,-3.97 5.66,-7.93 8.5,-11.89l0.03 0 0 -0.04 4.85 -6.78 0.27 0 0 -0.38 3.4 -4.74 0 0 0 -0.01 1.24 -1.7 0.47 0 0 -0.64 3.26 -4.47 0.14 0 0 -0.2 1.1 -1.51 0.61 0 0 -0.83 3.12 -4.28 0.29 0 0 -0.4 4.68 -6.42 0.43 0 0 -0.59 3.32 -4.52 0.09 0 0 -0.12 1.18 -1.59 0.52 0 0 -0.7 3.29 -4.42 0.12 0 0 -0.16 1.15 -1.54 0.56 0 0 -0.75 3.25 -4.37 0.16 0 0 -0.21 1.11 -1.49 0.59 0 0 -0.8 3.22 -4.32 0.2 0 0 -0.27 4.94 -6.55 0.17 0 0 -0.22 5.01 -6.59 0.1 0 0 -0.14 5.08 -6.68 0.04 0 0 -0.06c3.9,-5.11 7.81,-10.2 11.74,-15.29l0.19 0 0 -0.24 5.1 -6.58 0.01 0 0 -0.02 1.31 -1.68 0.39 0 0 -0.51 4.89 -6.31 0.23 0 0 -0.3 1.11 -1.4 0.59 0 0 -0.75 4.8 -6.07 0.32 0 0 -0.4 5.07 -6.42 0.04 0 0 -0.05 1.31 -1.66 0.4 0 0 -0.5 4.99 -6.32 0.12 0 0 -0.15 1.24 -1.56 0.46 0 0 -0.58 5.04 -6.24 0.07 0 0 -0.09 1.3 -1.62 0.4 0 0 -0.5 5.1 -6.32 0.02 0 0 -0.02 1.36 -1.69 0.34 0 0 -0.43 6.56 -8.09 0.26 0 0 -0.32 6.76 -8.21 0.06 0 0 -0.07c5.61,-6.82 11.24,-13.62 16.9,-20.39l0.15 0 0 -0.18 8.43 -10.04 0.09 0 0 -0.11 1.34 -1.6 0.37 0 0 -0.44 8.31 -9.79 0.22 0 0 -0.25 1.25 -1.46 0.45 0 0 -0.53 8.31 -9.7 0.22 0 0 -0.26 1.24 -1.45 0.47 0 0 -0.55 1 -1.16 0.71 0 0 -0.83 6.69 -7.69 0.13 0 0 -0.16 1.35 -1.55 0.35 0 0 -0.41 1.14 -1.3 0.57 0 0 -0.66 8.36 -9.57 0.16 0 0 -0.18 1.33 -1.52 0.38 0 0 -0.43 1.11 -1.27 0.6 0 0 -0.68c2.82,-3.2 5.67,-6.36 8.5,-9.55l0.02 0 0 -0.02 1.5 -1.68 0.21 0 0 -0.23c10.11,-11.35 20.28,-22.65 30.55,-33.87l0.14 0 0 -0.15 1.43 -1.55 0.27 0 0 -0.29 1.32 -1.42 0.39 0 0 -0.43 1.18 -1.28 0.52 0 0 -0.56 1.06 -1.14 0.65 0 0 -0.7c4.52,-4.89 9.02,-9.78 13.56,-14.65l0.08 0 0 -0.08 1.51 -1.62 0.19 0 0 -0.2 1.42 -1.51 0.29 0 0 -0.3 1.32 -1.4 0.38 0 0 -0.4 1.23 -1.3 0.47 0 0 -0.5 1.13 -1.2 0.57 0 0 -0.61 1.03 -1.1 0.67 0 0 -0.71c6.77,-7.18 13.57,-14.34 20.41,-21.45l0.05 0 0 -0.04 1.6 -1.67 0.11 0 0 -0.11 1.54 -1.59 0.17 0 0 -0.17 1.47 -1.53 0.23 0 0 -0.24c19.37,-20.07 39,-39.88 58.89,-59.43l0.78 0 0 -0.77 0.96 -0.94 0.74 0 0 -0.73 0.99 -0.97 0.72 0 0 -0.7 1.02 -1 0.68 0 0 -0.67 1.06 -1.04 0.65 0 0 -0.63 1.09 -1.07 0.61 0 0 -0.6 1.13 -1.11 0.57 0 0 -0.56 1.17 -1.14 0.54 0 0 -0.53 1.2 -1.17 0.5 0 0 -0.5 1.26 -1.21 0.45 0 0 -0.43 1.32 -1.28 0.38 0 0 -0.36 1.39 -1.34 0.31 0 0 -0.3 1.46 -1.41 0.25 0 0 -0.23 1.53 -1.47 0.17 0 0 -0.17 1.6 -1.54 0.11 0 0 -0.1 1.67 -1.61 0.03 0 0 -0.03c8.91,-8.56 17.87,-17.08 26.89,-25.54l0.39 0 0 -0.38 1.41 -1.33 0.29 0 0 -0.27 1.52 -1.44 0.18 0 0 -0.17 1.62 -1.53 0.08 0 0 -0.08c4.86,-4.54 9.77,-9.04 14.66,-13.56l0.69 0 0 -0.64 1.16 -1.07 0.55 0 0 -0.5 1.29 -1.19 0.41 0 0 -0.39 1.43 -1.32 0.27 0 0 -0.25 1.57 -1.45 0.14 0 0 -0.12c4.31,-3.96 8.66,-7.88 13,-11.81l0.63 0 0 -0.57 1.24 -1.13 0.46 0 0 -0.41 1.43 -1.29 0.28 0 0 -0.26 1.6 -1.45 0.11 0 0 -0.1c4.39,-3.96 8.79,-7.9 13.21,-11.83l0.43 0 0 -0.38 1.49 -1.33 0.22 0 0 -0.19 1.7 -1.51c8.36,-7.43 16.76,-14.81 25.19,-22.16l0.38 0 0 -0.33 1.57 -1.37 0.14 0 0 -0.11 9.68 -8.41 0.55 0 0 -0.47 1.45 -1.23 0.25 0 0 -0.22 7.72 -6.6 0.8 0 0 -0.69 1.19 -1.02 0.51 0 0 -0.44 1.49 -1.27 0.22 0 0 -0.19 7.76 -6.63 0.76 0 0 -0.64 1.28 -1.06 0.42 0 0 -0.36 1.61 -1.35 0.1 0 0 -0.08 6 -5.03 0.82 0 0 -0.69 1.22 -1.02 0.49 0 0 -0.41 1.54 -1.29 0.17 0 0 -0.14 7.97 -6.69 0.55 0 0 -0.46 1.51 -1.23 0.2 0 0 -0.17c2.69,-2.23 5.4,-4.43 8.09,-6.65l0.43 0 0 -0.35 1.65 -1.36 0.05 0 0 -0.05c6.23,-5.12 12.48,-10.22 18.75,-15.3l0.01 0 0 -0.01 8.45 -6.81 0.07 0 0 -0.06 6.28 -5.06 0.54 0 0 -0.44 1.57 -1.27 0.14 0 0 -0.11c2.1,-1.68 4.23,-3.33 6.33,-5.01l0.49 0 0 -0.38 1.67 -1.33 0.02 0 0 -0.02 4.3 -3.39 0.83 0 0 -0.65 1.33 -1.06 0.37 0 0 -0.29 6.1 -4.82 0.72 0 0 -0.56 1.44 -1.14 0.26 0 0 -0.2 6.33 -4.91 0.5 0 0 -0.39 6.11 -4.73 0.71 0 0 -0.55 1.49 -1.16 0.22 0 0 -0.17 6.4 -4.95 0.43 0 0 -0.33 6.24 -4.78 0.58 0 0 -0.44 1.67 -1.27 0.03 0 0 -0.02 6.71 -5.09 0.11 0 0 -0.09c4.16,-3.17 8.31,-6.34 12.49,-9.48 4.86,-3.65 9.73,-7.28 14.61,-10.9l0.17 0 0 -0.13 6.75 -4.98 0.07 0 0 -0.06c3.83,-2.83 7.66,-5.66 11.51,-8.47l0.43 0 0 -0.31 6.62 -4.8 0.2 0 0 -0.15c6.22,-4.52 12.46,-9.01 18.72,-13.49l0.03 0 0 -0.02 11.93 -8.5 0 0 0 -0c5.64,-4 11.29,-7.98 16.96,-11.94l0.09 0 0 -0.06 4.8 -3.35 0.32 0 0 -0.22c5.64,-3.93 11.29,-7.83 16.96,-11.72l0.09 0 0 -0.06 4.86 -3.35 0.25 0 0 -0.17c16.79,-11.47 33.68,-22.78 50.7,-33.93l0.45 0 0 -0.3 4.77 -3.11 0.35 0 0 -0.22 4.91 -3.18 0.21 0 0 -0.14 5.04 -3.27 0.08 0 0 -0.05c7.93,-5.13 15.88,-10.23 23.86,-15.29l0 0 0 -0 13.5 -8.52 0.14 0 0 -0.09c4.5,-2.83 9.02,-5.63 13.55,-8.44l0.1 0 0 -0.06 8.18 -5.06 0.33 0 0 -0.21c4.52,-2.78 9.03,-5.56 13.56,-8.31l0.09 0 0 -0.06 8.37 -5.07 0.15 0 0 -0.09c5.62,-3.4 11.24,-6.77 16.88,-10.14l0.16 0 0 -0.1 8.43 -5.02 0.1 0 0 -0.06c3.83,-2.27 7.67,-4.51 11.5,-6.76l0.43 0 0 -0.25 8.3 -4.86 0.22 0 0 -0.13 11.57 -6.69 0.36 0 0 -0.21c11.85,-6.82 23.75,-13.57 35.7,-20.25l0.1 0 0 -0.06c5.08,-2.84 10.17,-5.66 15.27,-8.47l0.08 0 0 -0.04 3 -1.66 0.41 0 0 -0.23c5.06,-2.78 10.12,-5.54 15.2,-8.3l0.15 0 0 -0.08 2.99 -1.63 0.41 0 0 -0.22c16.95,-9.17 33.99,-18.18 51.12,-27.05l0.02 0 0 -0.01 3.26 -1.69 0.15 0 0 -0.08 3.14 -1.63 0.27 0 0 -0.14 3.07 -1.56 0.34 0 0 -0.17 3.01 -1.53 0.4 0 0 -0.21 2.92 -1.49 0.49 0 0 -0.25c15.68,-8 31.43,-15.88 47.27,-23.62l0.46 0 0 -0.22 3.05 -1.48 0.36 0 0 -0.17 3.15 -1.53 0.26 0 0 -0.12 3.25 -1.58 0.16 0 0 -0.08 3.34 -1.62 0.07 0 0 -0.04c17.97,-8.68 36.05,-17.19 54.21,-25.54l0.33 0 0 -0.16 3.36 -1.55 0.06 0 0 -0.02c4.97,-2.29 9.96,-4.54 14.95,-6.8l0.39 0 0 -0.17 3.37 -1.53 0.04 0 0 -0.01 11.41 -5.1 0.52 0 0 -0.23 3.3 -1.47 0.11 0 0 -0.05c12.96,-5.76 25.97,-11.42 39.02,-17l0.19 0 0 -0.08 11.85 -5.03 0.09 0 0 -0.04 7.98 -3.37 0.55 0 0 -0.23 11.75 -4.89 0.18 0 0 -0.08 8.04 -3.33 0.49 0 0 -0.21c6.81,-2.79 13.61,-5.57 20.44,-8.32l0.02 0 0 -0c10.01,-4.03 20.05,-8 30.1,-11.93l0.58 0 0 -0.23 8.13 -3.18 0.39 0 0 -0.15 8.49 -3.26 0.03 0 0 -0.01c4.45,-1.71 8.89,-3.41 13.35,-5.1l0.28 0 0 -0.11c9.02,-3.42 18.06,-6.79 27.12,-10.13l0.16 0 0 -0.06c6.17,-2.27 12.35,-4.53 18.54,-6.76l0.21 0 0 -0.07 4.52 -1.63 0.6 0 0 -0.22c6.19,-2.22 12.39,-4.41 18.58,-6.6l0.17 0 0 -0.06 4.66 -1.65 0.46 0 0 -0.16c32.14,-11.25 64.53,-21.99 97.15,-32.23l0.02 0 0 -0.01c7.31,-2.29 14.63,-4.57 21.96,-6.81l0.2 0 0 -0.06c3.69,-1.13 7.4,-2.23 11.1,-3.35l0.84 0 0 -0.26 4.8 -1.45 0.31 0 0 -0.09 11.17 -3.32 0.76 0 0 -0.22 5.02 -1.48 0.09 0 0 -0.03 11.62 -3.38 0.31 0 0 -0.09c7.87,-2.27 15.74,-4.51 23.63,-6.73l0.24 0 0 -0.06 11.93 -3.34 6.25 -1.71 0.58 0 0 -0.16 11.93 -3.25 6.38 -1.7 0.44 0 0 -0.11 5.97 -1.59 0.85 0 0 -0.22c6.23,-1.65 12.47,-3.29 18.71,-4.9l0.05 0 0 -0.01c6.66,-1.73 13.34,-3.43 20.03,-5.1l0.43 0 0 -0.11 6.35 -1.6 0.47 0 0 -0.12 6.42 -1.58 0.4 0 0 -0.1 6.57 -1.6 0.25 0 0 -0.06 6.73 -1.65 0.09 0 0 -0.02c7.12,-1.72 14.26,-3.42 21.39,-5.09l0.77 0 0 -0.18 6.59 -1.52 0.22 0 0 -0.06c4.83,-1.12 9.66,-2.24 14.51,-3.34 -2.01,-1.69 -3.99,-3.41 -5.98,-5.12l0 -0.02 -0.02 0 -1.68 -1.43 0 -0.27 -0.32 0c-3.9,-3.35 -7.77,-6.73 -11.62,-10.13l0 -0.1 -0.11 0 -1.59 -1.39 0 -0.31 -0.35 0 -1.35 -1.21 0 -0.49 -0.55 0c-4.4,-3.92 -8.76,-7.89 -13.09,-11.89l0 -0.04 -0.05 0 -1.66 -1.54 0 -0.17 -0.18 0c-19.96,-18.5 -39.24,-37.73 -57.78,-57.66l0 -0.31 -0.28 0 -1.41 -1.54 0 -0.17 -0.15 0 -1.56 -1.69 0 -0.02 -0.01 0c-4.59,-4.97 -9.14,-9.98 -13.62,-15.04l0 -0.3 -0.27 0 -1.44 -1.62 0 -0.09 -0.07 0c-6.32,-7.15 -12.55,-14.38 -18.68,-21.69l0 -0.47 -0.39 0 -1.31 -1.59 0 -0.11 -0.1 0c-2.25,-2.7 -4.5,-5.41 -6.73,-8.13l0 -0.4 -0.33 0 -1.37 -1.7 0 -0.01 -0 0 -5.11 -6.34 0 -0.47 -0.39 0 -1.32 -1.64 0 -0.06 -0.06 0c-5.75,-7.23 -11.42,-14.52 -16.99,-21.89l0 -0.28 -0.21 0 -4.91 -6.56 0 -0.26 -0.19 0c-1.64,-2.21 -3.29,-4.41 -4.92,-6.64l0 -0.18 -0.14 0 -3.27 -4.52 0 -0.59 -0.43 0c-1.56,-2.17 -3.14,-4.33 -4.69,-6.51l0 -0.31 -0.22 0c-5.13,-7.2 -10.17,-14.49 -15.12,-21.82l0 -0.34 -0.23 0 -3.17 -4.74 0 -0.38 -0.25 0 -3.16 -4.77 0 -0.34 -0.22 0 -3.18 -4.83 0 -0.28 -0.18 0 -3.23 -5.02 0 -0.1 -0.06 0c-8.2,-12.75 -16.13,-25.67 -23.8,-38.78l0 -0.44 -0.26 0c-1.63,-2.79 -3.25,-5.58 -4.85,-8.39l0 -0.13 -0.07 0 -1.63 -2.87 0 -0.55 -0.31 0c-5.73,-10.09 -11.33,-20.26 -16.74,-30.54l0 -0.14 -0.08 0 -1.63 -3.14 0 -0.27 -0.14 0 -1.56 -3.01 0 -0.39 -0.2 0 -1.51 -2.9 0 -0.51 -0.26 0 -1.45 -2.79 0 -0.62 -0.32 0 -1.39 -2.79 0 -0.62 -0.31 0 -1.39 -2.77 0 -0.64 -0.32 0 -1.39 -2.77 0 -0.64 -0.33 0 -1.38 -2.78 0 -0.63 -0.31 0c-4.58,-9.32 -9.02,-18.72 -13.33,-28.19l0 -0.79 -0.36 0 -1.35 -2.99 0 -0.42 -0.19 0 -1.52 -3.36 0 -0.05 -0.02 0 -3.39 -7.67 0 -0.85 -0.37 0 -1.34 -3.07 0 -0.33 -0.14 0c-1.68,-3.89 -3.33,-7.79 -4.97,-11.69l0 -0.25 -0.11 0c-2.28,-5.45 -4.52,-10.93 -6.72,-16.43l0 -0.61 -0.25 0c-1.06,-2.67 -2.12,-5.36 -3.16,-8.04l0 -0.48 -0.19 0c-1.08,-2.78 -2.17,-5.56 -3.23,-8.34l0 -0.18 -0.07 0 -1.63 -4.39 0 -0.73 -0.27 0c-1.06,-2.82 -2.12,-5.64 -3.14,-8.48l0 -0.04 -0.01 0 -1.69 -4.74 0 -0.38 -0.13 0c-3.5,-9.78 -6.87,-19.62 -10.09,-29.52l0 -1.16 -0.38 0 -1.33 -4.08 0 -1.03 -0.33 0 -1.37 -4.34 0 -0.77 -0.23 0 -1.47 -4.74 0 -0.37 -0.12 0c-2.93,-9.51 -5.73,-19.08 -8.41,-28.69l0 -0.29 -0.08 0 -1.62 -5.81 0 -1 -0.27 0 -1.44 -5.44 0 -1.38 -0.37 0 -1.34 -5.07 0 -0.06 -0.01 0 -1.69 -6.69 0 -0.13 -0.03 0 -1.67 -6.69 0 -0.13 -0.03 0c-1.77,-7.23 -3.45,-14.48 -5.08,-21.76l0 -0.4 -0.09 0 -1.62 -7.32 0 -1.2 -0.27 0c-0.49,-2.3 -0.95,-4.61 -1.43,-6.91l0 -1.61 -0.33 0 -1.37 -6.66 0 -1.86 -0.36 0 -1.34 -7 0 -1.52 -0.29 0 -1.42 -7.58 0 -0.95 -0.17 0c-1.79,-9.84 -3.43,-19.72 -4.95,-29.65l0 -1.04 -0.15 0c-0.53,-3.48 -1.06,-6.95 -1.55,-10.43l0 -1.51 -0.21 0c-0.52,-3.71 -1.01,-7.43 -1.5,-11.16l0 -0.78 -0.1 0c-0.56,-4.34 -1.09,-8.7 -1.6,-13.06l0 -0.57 -0.07 0c-0.58,-4.99 -1.12,-9.99 -1.64,-15l0 -2.06 -0.22 0c-0.54,-5.31 -1.03,-10.63 -1.49,-15.96l0 -4.51 -0.37 0c-0.5,-6.13 -0.94,-12.28 -1.34,-18.42l0 -2.03 -0.13 0c-0.68,-10.91 -1.2,-21.87 -1.57,-32.86l0 -13.17 -0.35 0c-0.17,-7.8 -0.28,-15.62 -0.28,-23.46 0,-8.68 0.13,-17.35 0.33,-25.98l0.3 0 0 -9.33c0.35,-11.14 0.89,-22.24 1.58,-33.3l0.12 0 0 -1.99c0.43,-6.74 0.9,-13.47 1.45,-20.17l0.26 0 0 -2.88c0.94,-11.02 2.04,-22 3.3,-32.92l0.11 0 0 -0.95c0.5,-4.23 0.94,-8.47 1.48,-12.69l0.22 0 0 -1.57c0.52,-4.03 1.12,-8.04 1.68,-12.06l0.02 0 0 -0.13c1.04,-7.37 2.15,-14.71 3.33,-22.04l0.08 0 0 -0.47c0.53,-3.26 1.06,-6.52 1.62,-9.76l0.09 0 0 -0.51c0.56,-3.24 1.11,-6.48 1.69,-9.71l0.01 0 0 -0.07c0.51,-2.83 1.08,-5.64 1.62,-8.45l0.09 0 0 -0.45c1.6,-8.42 3.3,-16.79 5.09,-25.13l0.02 0 0 -0.1c1.09,-5.08 2.16,-10.18 3.32,-15.24l0.09 0 0 -0.43c0.49,-2.14 1.04,-4.25 1.55,-6.39l0.16 0 0 -0.63c3.62,-15.25 7.51,-30.41 11.77,-45.4l0.17 0 0 -0.56c1.08,-3.81 2.25,-7.58 3.38,-11.37l0.03 0 0 -0.11c2.19,-7.38 4.45,-14.74 6.79,-22.05l0.03 0 0 -0.11 1.63 -5.01 0.08 0 0 -0.25 1.58 -4.87 0.12 0 0 -0.37 1.54 -4.74 0.16 0 0 -0.5 1.59 -4.61 0.12 0 0 -0.35 1.68 -4.76 0.03 0 0 -0.08c3.77,-10.85 7.71,-21.63 11.81,-32.31l0.12 0 0 -0.32c1.05,-2.73 2.05,-5.49 3.12,-8.21l0.29 0 0 -0.76c1.03,-2.6 2.12,-5.17 3.17,-7.76l0.24 0 0 -0.59c4.31,-10.68 8.79,-21.28 13.43,-31.79l0.21 0 0 -0.47c1.69,-3.83 3.37,-7.66 5.1,-11.47l0.01 0 0 -0.03 1.57 -3.37 0.13 0 0 -0.28c12.53,-27.24 26.17,-53.87 40.82,-79.85l0.09 0 0 -0.17c2.23,-3.93 4.45,-7.87 6.71,-11.77l0.11 0 0 -0.18c4.97,-8.54 10.06,-17 15.25,-25.39l0.1 0 0 -0.15c2.79,-4.51 5.57,-9.02 8.42,-13.48l0.11 0 0 -0.17c1.06,-1.66 2.15,-3.3 3.21,-4.95l0.2 0 0 -0.31c6.64,-10.25 13.46,-20.36 20.42,-30.37l0.04 0 0 -0.05c2.76,-3.97 5.52,-7.95 8.33,-11.89l0.19 0 0 -0.27c2.8,-3.92 5.67,-7.79 8.52,-11.67l0.01 0 0 -0.01c3.36,-4.57 6.76,-9.11 10.2,-13.62l0.03 0 0 -0.05c3.9,-5.13 7.8,-10.24 11.79,-15.3l0.15 0 0 -0.17c2.21,-2.81 4.48,-5.57 6.72,-8.35l0.1 0 0 -0.12c5.05,-6.26 10.16,-12.48 15.34,-18.63l0 0 0 -0c3.36,-3.99 6.69,-8 10.1,-11.93l0.13 0 0 -0.15 1.38 -1.55 0.33 0 0 -0.37c9.98,-11.46 20.2,-22.71 30.65,-33.73l0.04 0 0 -0.04 1.55 -1.66 0.16 0 0 -0.17 1.47 -1.54 0.24 0 0 -0.25 1.42 -1.45 0.29 0 0 -0.29 1.38 -1.42 0.32 0 0 -0.33c9.37,-9.72 18.92,-19.28 28.65,-28.65l0.33 0 0 -0.32 1.42 -1.39 0.28 0 0 -0.28 1.46 -1.43 0.24 0 0 -0.23 1.56 -1.47 0.14 0 0 -0.13 1.68 -1.57 0.02 0 0 -0.02c11.05,-10.45 22.3,-20.68 33.77,-30.67l0.32 0 0 -0.29 1.6 -1.42 0.1 0 0 -0.09c10.04,-8.7 20.3,-17.15 30.66,-25.49l0.03 0 0 -0.02c2.81,-2.26 5.6,-4.56 8.44,-6.8l0.09 0 0 -0.07c2.16,-1.7 4.35,-3.36 6.53,-5.04l0.29 0 0 -0.23c11.16,-8.65 22.48,-17.12 33.98,-25.34l0.11 0 0 -0.09 4.69 -3.33 0.43 0 0 -0.3c3.93,-2.77 7.89,-5.5 11.86,-8.22l0.08 0 0 -0.06c6.71,-4.6 13.47,-9.13 20.29,-13.59l0.17 0 0 -0.11c1.67,-1.09 3.33,-2.22 5.01,-3.3l0.11 0 0 -0.07c4.42,-2.86 8.9,-5.65 13.37,-8.45l0.27 0 0 -0.17c7.31,-4.58 14.68,-9.06 22.12,-13.47l0.04 0 0 -0.02c3.83,-2.27 7.64,-4.57 11.49,-6.8l0.44 0 0 -0.26c3.88,-2.23 7.81,-4.38 11.72,-6.56l0.22 0 0 -0.12c5.06,-2.83 10.12,-5.65 15.23,-8.4l0.11 0 0 -0.06c17.78,-9.57 35.88,-18.63 54.23,-27.22l0.32 0 0 -0.15 3.34 -1.56 0.08 0 0 -0.03c4.94,-2.29 9.9,-4.57 14.88,-6.79l0.46 0 0 -0.2c11.81,-5.26 23.74,-10.29 35.77,-15.14l0.04 0 0 -0.01c2.8,-1.12 5.58,-2.29 8.39,-3.39l0.13 0 0 -0.05c4.41,-1.73 8.88,-3.39 13.33,-5.07l0.31 0 0 -0.11c26.71,-10.08 53.9,-19.16 81.56,-27.16l0.28 0 0 -0.08c3.94,-1.14 7.89,-2.23 11.85,-3.33l0.08 0 0 -0.03 6.2 -1.67 0.61 0 0 -0.17c10.93,-2.95 21.9,-5.75 32.96,-8.36l1.13 0 0 -0.28 6.08 -1.43 0.74 0 0 -0.16c4.96,-1.13 9.95,-2.18 14.93,-3.25l0.41 0 0 -0.09c8.31,-1.77 16.67,-3.44 25.05,-5.02l0.52 0 0 -0.1c2.8,-0.53 5.57,-1.11 8.38,-1.61l1.84 0 0 -0.34c2.74,-0.49 5.52,-0.9 8.26,-1.37l0.26 0 0 -0.04c3.33,-0.56 6.67,-1.12 10.01,-1.66l0.22 0 0 -0.04c7.54,-1.21 15.12,-2.32 22.72,-3.37l1.14 0 0 -0.16c3.69,-0.5 7.36,-1.07 11.06,-1.55l2.58 0 0 -0.29c15.62,-1.95 31.35,-3.53 47.15,-4.82l2.29 0 0 -0.2c7.48,-0.59 15,-1.06 22.53,-1.51l1.33 0 0 -0.08c14.73,-0.85 29.54,-1.36 44.42,-1.62l8.43 0 0 -0.11c3.4,-0.06 6.8,-0.13 10.22,-0.13 3.42,0 6.82,0.1 10.23,0.13l0 0.11 8.43 0c14.88,0.25 29.69,0.78 44.42,1.62l0 0.08 1.33 0c7.53,0.44 15.05,0.92 22.54,1.51l0 0.2 2.28 0c15.81,1.28 31.54,2.87 47.15,4.82l0 0.29 2.58 0c3.7,0.47 7.37,1.04 11.06,1.55l0 0.16 1.14 0c7.6,1.06 15.18,2.17 22.73,3.38l0 0.04 0.21 0c3.35,0.54 6.68,1.09 10.01,1.66l0 0.04 0.26 0c2.75,0.47 5.52,0.88 8.26,1.37l0 0.34 1.84 0c2.81,0.5 5.58,1.08 8.38,1.61l0 0.1 0.51 0c8.38,1.58 16.74,3.25 25.05,5.02l0 0.09 0.41 0c4.98,1.06 9.97,2.12 14.93,3.25l0 0.16 0.74 0 6.08 1.43 0 0.28 1.13 0c11.06,2.61 22.04,5.42 32.96,8.36l0 0.17 0.61 0 6.2 1.67 0 0.03 0.08 0c3.96,1.09 7.92,2.19 11.85,3.33l0 0.08 0.27 0c27.66,7.99 54.85,17.08 81.56,27.16l0 0.11 0.31 0c4.45,1.67 8.91,3.33 13.33,5.07l0 0.05 0.13 0c2.81,1.11 5.59,2.26 8.39,3.39l0 0.01 0.03 0c12.03,4.85 23.96,9.89 35.77,15.14l0 0.2 0.46 0c4.98,2.22 9.94,4.49 14.88,6.79l0 0.03 0.08 0 3.33 1.56 0 0.15 0.32 0c18.36,8.59 36.45,17.65 54.24,27.22l0 0.06 0.11 0c5.11,2.75 10.17,5.57 15.23,8.4l0 0.12 0.22 0c3.91,2.18 7.84,4.33 11.72,6.56l0 0.26 0.44 0c3.86,2.22 7.67,4.52 11.5,6.8l0 0.02 0.04 0c7.43,4.4 14.81,8.9 22.12,13.47l0 0.17 0.27 0c4.47,2.8 8.94,5.59 13.37,8.45l0 0.07 0.11 0c1.68,1.08 3.34,2.21 5.01,3.3l0 0.11 0.17 0c6.81,4.46 13.58,8.98 20.29,13.59l0 0.06 0.07 0c3.96,2.72 7.93,5.45 11.86,8.22l0 0.3 0.43 0 4.69 3.33 0 0.08 0.11 0c11.5,8.22 22.81,16.69 33.98,25.34l0 0.23 0.29 0c2.17,1.68 4.37,3.35 6.53,5.04l0 0.07 0.09 0c2.84,2.24 5.63,4.53 8.44,6.8l0 0.02 0.03 0c10.36,8.33 20.61,16.79 30.66,25.49l0 0.09 0.1 0 1.61 1.42 0 0.28 0.32 0c11.48,9.98 22.73,20.21 33.77,30.67l0 0.02 0.02 0 1.69 1.57 0 0.13 0.14 0 1.57 1.47 0 0.23 0.24 0 1.46 1.43 0 0.28 0.28 0 1.43 1.39 0 0.32 0.33 0c9.73,9.37 19.27,18.93 28.66,28.65l0 0.33 0.32 0 1.39 1.42 0 0.28 0.28 0 1.42 1.45 0 0.25 0.24 0 1.47 1.54 0 0.17 0.15 0 1.55 1.67 0 0.04 0.04 0c10.45,11.03 20.67,22.28 30.65,33.74l0 0.36 0.32 0 1.38 1.56 0 0.15 0.13 0c3.41,3.93 6.74,7.94 10.1,11.93l0 0 0 0c5.18,6.15 10.29,12.36 15.34,18.63l0 0.12 0.1 0c2.24,2.78 4.51,5.54 6.72,8.35l0 0.17 0.15 0c3.99,5.06 7.89,10.18 11.79,15.31l0 0.04 0.03 0c3.44,4.52 6.84,9.06 10.2,13.63l0 0.01 0 0c2.85,3.88 5.71,7.76 8.51,11.67l0 0.27 0.2 0c2.82,3.93 5.57,7.91 8.33,11.89l0 0.05 0.03 0c6.97,10.01 13.79,20.13 20.43,30.38l0 0.3 0.2 0c1.07,1.65 2.15,3.29 3.21,4.95l0 0.17 0.11 0c2.85,4.46 5.63,8.98 8.42,13.48l0 0.15 0.1 0c5.19,8.4 10.28,16.86 15.25,25.39l0 0.18 0.11 0c2.27,3.91 4.49,7.84 6.71,11.77l0 0.17 0.09 0c14.66,25.97 28.28,52.62 40.82,79.85l0 0.27 0.13 0 1.58 3.38 0 0.02 0.01 0c1.73,3.8 3.41,7.64 5.1,11.47l0 0.47 0.21 0c4.64,10.51 9.12,21.11 13.43,31.79l0 0.59 0.24 0c1.05,2.6 2.14,5.16 3.17,7.77l0 0.75 0.29 0c1.07,2.72 2.07,5.48 3.12,8.21l0 0.32 0.12 0c4.1,10.69 8.04,21.47 11.82,32.32l0 0.07 0.02 0c0.56,1.59 1.14,3.18 1.68,4.78l0 0.33 0.11 0 1.58 4.61 0 0.5 0.17 0c0.53,1.57 1.01,3.17 1.54,4.74l0 0.37 0.12 0 1.58 4.88 0 0.23 0.07 0 1.63 5.02 0 0.1 0.03 0c2.34,7.32 4.59,14.68 6.79,22.07l0 0.09 0.03 0c1.12,3.79 2.29,7.56 3.38,11.37l0 0.56 0.17 0c4.26,15 8.14,30.16 11.77,45.42l0 0.61 0.15 0c0.5,2.14 1.06,4.27 1.56,6.42l0 0.4 0.09 0c1.17,5.06 2.22,10.16 3.32,15.24l0 0.1 0.02 0c1.79,8.34 3.49,16.71 5.09,25.13l0 0.45 0.09 0c0.53,2.82 1.11,5.62 1.62,8.45l0 0.07 0.01 0c0.59,3.23 1.13,6.47 1.69,9.71l0 0.51 0.09 0c0.56,3.25 1.09,6.52 1.62,9.78l0 0.45 0.07 0c1.19,7.32 2.29,14.67 3.33,22.04l0 0.13 0.02 0c0.57,4.02 1.16,8.03 1.69,12.06l0 1.57 0.22 0c0.55,4.23 0.99,8.49 1.49,12.73l0 0.91 0.11 0c1.27,10.92 2.35,21.9 3.3,32.92l0 2.88 0.26 0c0.56,6.7 1.01,13.44 1.45,20.17l0 1.99 0.12 0c0.7,11.05 1.21,22.16 1.58,33.3l0 9.33 0.3 0c0.22,8.63 0.33,17.29 0.33,25.98 0,7.84 -0.11,15.66 -0.28,23.46l-0.35 0 0 13.17c-0.36,10.99 -0.89,21.95 -1.58,32.86l-0.13 0 0 2.03c-0.39,6.16 -0.84,12.3 -1.34,18.42l-0.37 0 0 4.51c-0.46,5.33 -0.95,10.65 -1.49,15.96l-0.22 0 0 2.01c-0.51,5.02 -1.06,10.04 -1.64,15.04l-0.06 0 0 0.53c-0.51,4.37 -1.05,8.75 -1.61,13.1l-0.1 0 0 0.78c-0.48,3.73 -0.98,7.45 -1.5,11.16l-0.21 0 0 1.51c-0.49,3.48 -1.02,6.96 -1.55,10.43l-0.15 0 0 1.03c-1.52,9.93 -3.17,19.82 -4.95,29.66l-0.17 0 0 0.95 -1.41 7.57 -0.29 0 0 1.53 -1.34 6.99 -0.36 0 0 1.86c-0.45,2.23 -0.92,4.44 -1.38,6.66l-0.33 0 0 1.6 -1.44 6.92 -0.27 0 0 1.21 -1.61 7.32 -0.09 0 0 0.42c-1.62,7.28 -3.31,14.52 -5.08,21.75l-0.04 0 0 0.13 -1.67 6.69 -0.03 0 0 0.14 -1.69 6.68 -0.02 0 0 0.07 -1.34 5.05 -0.37 0 0 1.38 -1.44 5.44 -0.26 0 0 1 -1.62 5.81 -0.09 0 0 0.31c-2.68,9.61 -5.47,19.17 -8.41,28.67l-0.12 0 0 0.38 -1.47 4.74 -0.24 0 0 0.77 -1.37 4.34 -0.33 0 0 1.02 -1.33 4.1 -0.38 0 0 1.16c-3.23,9.91 -6.58,19.75 -10.09,29.53l-0.14 0 0 0.4 -1.68 4.71 -0.02 0 0 0.07c-1.03,2.83 -2.09,5.64 -3.14,8.45l-0.27 0 0 0.73 -1.63 4.39 -0.07 0 0 0.2c-1.06,2.79 -2.14,5.55 -3.22,8.33l-0.19 0 0 0.49c-3.27,8.41 -6.65,16.77 -10.12,25.07l-0.11 0 0 0.26c-1.63,3.91 -3.29,7.8 -4.97,11.68l-0.14 0 0 0.33 -1.34 3.07 -0.37 0 0 0.85 -3.39 7.67 -0.03 0 0 0.06 -1.51 3.35 -0.19 0 0 0.43c-4.85,10.74 -9.86,21.4 -15.04,31.96l-0.31 0 0 0.64 -1.38 2.77 -0.33 0 0 0.65 -1.38 2.76 -0.32 0 0 0.64 -1.39 2.77 -0.32 0 0 0.64 -1.38 2.77 -0.33 0 0 0.63 -1.44 2.77 -0.27 0 0 0.51 -1.5 2.9 -0.2 0 0 0.39 -1.56 3.01 -0.14 0 0 0.28 -1.62 3.13 -0.08 0 0 0.16c-3.89,7.39 -7.87,14.72 -11.93,22 -1.58,2.85 -3.18,5.69 -4.8,8.53l-0.32 0 0 0.56 -1.62 2.85 -0.08 0 0 0.14c-1.6,2.8 -3.22,5.6 -4.85,8.38l-0.27 0 0 0.45c-2.25,3.84 -4.52,7.67 -6.82,11.49 -5.53,9.18 -11.19,18.27 -16.98,27.28l-0.07 0 0 0.11 -3.22 5.01 -0.19 0 0 0.29 -3.18 4.82 -0.23 0 0 0.36 -3.15 4.76 -0.26 0 0 0.39 -3.17 4.73 -0.24 0 0 0.35c-4.96,7.33 -9.99,14.61 -15.11,21.81l-0.23 0 0 0.33c-1.55,2.18 -3.12,4.33 -4.68,6.49l-0.43 0 0 0.6 -3.26 4.52 -0.15 0 0 0.2c-1.62,2.22 -3.27,4.41 -4.91,6.62l-0.21 0 0 0.28 -4.9 6.54 -0.22 0 0 0.28c-5.57,7.37 -11.23,14.67 -16.99,21.89l-0.06 0 0 0.07 -1.32 1.63 -0.39 0 0 0.49 -5.1 6.33 -0.01 0 0 0.02 -1.37 1.69 -0.34 0 0 0.41c-2.22,2.72 -4.46,5.41 -6.72,8.11l-0.1 0 0 0.12c-6.68,8.01 -13.47,15.93 -20.37,23.74l-0.08 0 0 0.1 -1.43 1.61 -0.28 0 0 0.31c-4.49,5.06 -9.04,10.06 -13.62,15.03l-0.01 0 0 0.02 -1.56 1.69 -0.15 0 0 0.17 -1.41 1.54 -0.29 0 0 0.31c-18.53,19.93 -37.81,39.16 -57.77,57.65l-0.18 0 0 0.17 -1.67 1.54 -0.04 0 0 0.04c-4.34,4 -8.7,7.97 -13.09,11.89l-0.55 0 0 0.49 -1.35 1.21 -0.35 0 0 0.31 -1.59 1.39 -0.11 0 0 0.1c-3.85,3.41 -7.72,6.78 -11.62,10.13l-0.31 0 0 0.26 -1.68 1.44 -0.02 0 0 0.02c-1.99,1.71 -3.98,3.42 -5.99,5.12 4.84,1.1 9.67,2.23 14.51,3.34l0 0.05 0.22 0 6.6 1.52 0 0.18 0.77 0c7.14,1.67 14.27,3.37 21.4,5.09l0 0.02 0.09 0 6.73 1.65 0 0.06 0.24 0 6.58 1.6 0 0.1 0.4 0 6.41 1.58 0 0.12 0.47 0 6.35 1.6 0 0.11 0.43 0c6.69,1.68 13.36,3.38 20.03,5.1l0 0.01 0.04 0c6.24,1.62 12.48,3.24 18.71,4.9l0 0.22 0.85 0 5.97 1.59 0 0.11 0.44 0 6.38 1.7 11.94 3.25 0 0.16 0.57 0 6.25 1.71 11.93 3.34 0 0.06 0.24 0c7.89,2.22 15.76,4.45 23.63,6.73l0 0.09 0.31 0 11.62 3.39 0 0.03 0.09 0 5.02 1.48 0 0.22 0.76 0 11.17 3.32 0 0.09 0.3 0 4.81 1.45 0 0.25 0.84 0c3.7,1.12 7.41,2.22 11.1,3.35l0 0.06 0.2 0c7.34,2.24 14.65,4.52 21.97,6.81l0 0 0.02 0c32.61,10.24 65.01,20.98 97.16,32.23l0 0.16 0.45 0 4.66 1.65 0 0.06 0.17 0c6.2,2.18 12.4,4.38 18.59,6.6l0 0.22 0.59 0 4.52 1.63 0 0.07 0.2 0c6.19,2.24 12.38,4.49 18.55,6.77l0 0.05 0.15 0c9.06,3.34 18.1,6.71 27.13,10.13l0 0.11 0.28 0c4.46,1.68 8.91,3.39 13.36,5.1l0 0.01 0.03 0 8.49 3.26 0 0.15 0.39 0 8.13 3.18 0 0.23 0.57 0c10.06,3.93 20.1,7.9 30.11,11.93l0 0 0.01 0c6.83,2.75 13.64,5.53 20.45,8.32l0 0.2 0.48 0 8.04 3.33 0 0.07 0.17 0 11.76 4.89 0 0.22 0.54 0 7.98 3.37 0 0.04 0.08 0 11.86 5.03 0 0.08 0.18 0c13.06,5.58 26.06,11.26 39.02,17.01l0 0.04 0.1 0 3.31 1.48 0 0.23 0.51 0 11.43 5.1 0 0.01 0.03 0 3.38 1.53 0 0.17 0.38 0c4.99,2.26 9.98,4.52 14.96,6.8l0 0.02 0.04 0 3.37 1.56 0 0.15 0.33 0c18.17,8.35 36.24,16.86 54.23,25.54l0 0.03 0.06 0 3.34 1.62 0 0.08 0.16 0 3.26 1.58 0 0.12 0.25 0 3.16 1.54 0 0.17 0.35 0 3.06 1.48 0 0.22 0.45 0c15.84,7.75 31.59,15.63 47.28,23.63l0 0.24 0.48 0 2.93 1.5 0 0.2 0.39 0 3.01 1.54 0 0.17 0.33 0 3.08 1.58 0 0.13 0.25 0 3.16 1.63 0 0.07 0.14 0 3.28 1.7 0 0 0.01 0c17.13,8.87 34.18,17.89 51.13,27.06l0 0.22 0.4 0 3.01 1.63 0 0.07 0.13 0c5.08,2.75 10.15,5.52 15.21,8.31l0 0.22 0.39 0 3.01 1.66 0 0.04 0.07 0c5.1,2.81 10.2,5.64 15.28,8.47l0 0.06 0.09 0c11.95,6.68 23.85,13.44 35.71,20.26l0 0.21 0.35 0 11.58 6.7 0 0.12 0.21 0 8.31 4.86 0 0.25 0.41 0 11.52 6.76 0 0.06 0.09 0 8.44 5.02 0 0.09 0.15 0c5.64,3.36 11.27,6.75 16.9,10.14l0 0.08 0.14 0 8.38 5.07 0 0.05 0.08 0c4.52,2.76 9.04,5.53 13.56,8.31l0 0.2 0.33 0 8.2 5.07 0 0.05 0.08 0c4.52,2.81 9.04,5.62 13.56,8.44l0 0.08 0.13 0c12.52,7.85 24.98,15.8 37.38,23.82l0 0.05 0.07 0 5.04 3.28 0 0.13 0.2 0 4.91 3.19 0 0.22 0.33 0 4.78 3.12 0 0.29 0.44 0c17.01,11.16 33.92,22.47 50.71,33.93l0 0.16 0.23 0 4.88 3.35 0 0.06 0.08 0c5.67,3.89 11.32,7.8 16.96,11.72l0 0.21 0.31 0 4.8 3.35 0 0.06 0.08 0c9.68,6.76 19.3,13.58 28.9,20.44l0 0.02 0.03 0c6.26,4.47 12.5,8.98 18.73,13.5l0 0.14 0.19 0 6.63 4.81 0 0.3 0.42 0c3.85,2.81 7.68,5.64 11.51,8.47l0 0.06 0.07 0 6.75 4.99 0 0.12 0.17 0c4.88,3.62 9.76,7.25 14.61,10.9 4.18,3.14 8.33,6.32 12.5,9.48l0 0.08 0.11 0 6.71 5.09 0 0.02 0.03 0 1.67 1.27 0 0.44 0.57 0 6.25 4.79 0 0.33 0.42 0 6.4 4.95 0 0.17 0.22 0 1.49 1.16 0 0.55 0.7 0 6.12 4.74 0 0.38 0.49 0 6.33 4.91 0 0.2 0.26 0 1.45 1.14 0 0.56 0.71 0 6.1 4.82 0 0.29 0.37 0 1.34 1.06 0 0.65 0.82 0 4.29 3.39 0 0.02 0.03 0 1.68 1.33 0 0.38 0.48 0 6.34 5.01 0 0.11 0.13 0 1.58 1.27 0 0.43 0.54 0 6.28 5.07 0 0.05 0.06 0 8.46 6.81 0 0 0 0c6.27,5.08 12.52,10.18 18.75,15.3l0 0.05 0.06 0 1.65 1.36 0 0.35 0.43 0c2.69,2.22 5.41,4.42 8.1,6.66l0 0.16 0.2 0 1.51 1.24 0 0.46 0.55 0 7.98 6.69 0 0.13 0.16 0 1.54 1.29 0 0.41 0.49 0 1.22 1.02 0 0.69 0.82 0 6 5.03 0 0.08 0.1 0 1.61 1.35 0 0.36 0.43 0 1.28 1.07 0 0.63 0.75 0c2.6,2.2 5.18,4.42 7.77,6.63l0 0.19 0.22 0 1.48 1.27 0 0.44 0.51 0 1.19 1.02 0 0.69 0.8 0 7.72 6.6 0 0.22 0.25 0 1.45 1.24 0 0.46 0.54 0 9.69 8.41 0 0.11 0.13 0 1.57 1.37 0 0.33 0.38 0c8.44,7.34 16.84,14.73 25.19,22.16l1.7 1.52 0 0.19 0.22 0 1.49 1.33 0 0.38 0.43 0c4.41,3.93 8.82,7.87 13.21,11.84l0 0.09 0.1 0 1.61 1.45 0 0.25 0.28 0 1.42 1.29 0 0.41 0.46 0 1.25 1.13 0 0.57 0.63 0c4.34,3.93 8.69,7.86 13,11.81l0 0.12 0.14 0 1.57 1.45 0 0.25 0.27 0 1.44 1.33 0 0.38 0.41 0 1.29 1.2 0 0.5 0.55 0 1.16 1.07 0 0.64 0.69 0c4.89,4.52 9.79,9.02 14.66,13.56l0 0.08 0.08 0 1.62 1.53 0 0.17 0.18 0 1.52 1.44 0 0.27 0.29 0 1.42 1.34 0 0.37 0.39 0c9.01,8.46 17.97,16.97 26.88,25.54l0 0.03 0.04 0 1.67 1.61 0 0.1 0.1 0 1.61 1.54 0 0.17 0.17 0 1.54 1.47 0 0.23 0.24 0 1.46 1.41 0 0.3 0.32 0 1.39 1.34 0 0.36 0.38 0 1.33 1.28 0 0.43 0.45 0 1.26 1.21 0 0.49 0.5 0 1.2 1.17 0 0.53 0.54 0 1.17 1.14 0 0.56 0.57 0 1.14 1.11 0 0.6 0.61 0 1.1 1.07 0 0.63 0.64 0 1.06 1.05 0 0.66 0.68 0 1.02 1 0 0.7 0.72 0 0.99 0.97 0 0.73 0.74 0 0.96 0.95 0 0.76 0.78 0c19.89,19.55 39.52,39.37 58.89,59.43l0 0.24 0.23 0 1.48 1.54 0 0.17 0.17 0 1.54 1.6 0 0.11 0.1 0 1.6 1.67 0 0.04 0.05 0c6.84,7.12 13.64,14.28 20.42,21.46l0 0.71 0.67 0 1.04 1.1 0 0.6 0.57 0 1.13 1.2 0 0.5 0.47 0 1.23 1.3 0 0.4 0.38 0 1.33 1.4 0 0.3 0.28 0 1.42 1.51 0 0.2 0.19 0 1.51 1.62 0 0.08 0.08 0c4.54,4.86 9.05,9.76 13.56,14.65l0 0.69 0.64 0 1.06 1.14 0 0.56 0.52 0 1.18 1.28 0 0.43 0.39 0 1.32 1.42 0 0.29 0.26 0 1.44 1.56 0 0.15 0.14 0c10.27,11.21 20.44,22.51 30.55,33.87l0 0.22 0.21 0 1.5 1.69 0 0.02 0.01 0c2.83,3.18 5.69,6.35 8.51,9.55l0 0.68 0.6 0 1.11 1.27 0 0.43 0.38 0 1.33 1.52 0 0.18 0.16 0 8.37 9.58 0 0.65 0.56 0 1.14 1.3 0 0.4 0.35 0 1.35 1.55 0 0.16 0.14 0 6.69 7.7 0 0.83 0.71 0 1 1.16 0 0.55 0.47 0 1.24 1.45 0 0.26 0.22 0 8.31 9.7 0 0.53 0.45 0 1.26 1.46 0 0.24 0.21 0 8.31 9.8 0 0.43 0.36 0 1.34 1.6 0 0.11 0.09 0 8.43 10.04 0 0.18 0.15 0c5.66,6.77 11.29,13.57 16.9,20.39l0 0.07 0.06 0 6.76 8.21 0 0.32 0.25 0 6.56 8.09 0 0.43 0.34 0 1.36 1.69 0 0.02 0.01 0 5.1 6.32 0 0.5 0.41 0 1.3 1.62 0 0.09 0.07 0 5.04 6.25 0 0.56 0.46 0 1.24 1.56 0 0.15 0.11 0 5 6.32 0 0.49 0.39 0 1.31 1.66 0 0.05 0.04 0 5.08 6.42 0 0.39 0.32 0 4.8 6.07 0 0.75 0.6 0 1.11 1.42 0 0.29 0.23 0 4.88 6.31 0 0.51 0.4 0 1.31 1.68 0 0.02 0.01 0 5.1 6.58 0 0.24 0.19 0c3.93,5.09 7.85,10.18 11.75,15.29l0 0.05 0.04 0 5.08 6.68 0 0.14 0.1 0 5.01 6.59 0 0.22 0.17 0 4.95 6.56 0 0.26 0.19 0 3.21 4.32 0 0.8 0.6 0 1.11 1.49 0 0.21 0.16 0 3.26 4.37 0 0.74 0.55 0 1.15 1.54 0 0.16 0.12 0 3.29 4.42 0 0.7 0.52 0 1.19 1.6 0 0.11 0.08 0 3.33 4.52 0 0.59 0.43 0 4.69 6.42 0 0.39 0.28 0 3.12 4.28 0 0.83 0.6 0 1.1 1.51 0 0.2 0.15 0 3.27 4.48 0 0.63 0.46 0 1.24 1.7 0 0.01 0 0 3.4 4.74 0 0.37 0.27 0 4.85 6.78 0 0.04 0.03 0c2.84,3.96 5.68,7.92 8.5,11.89l0 0.04 0.02 0c4,5.64 7.96,11.3 11.91,16.96l0 0.08 0.06 0 3.35 4.79 0 0.33 0.23 0 3.18 4.55 0 0.57 0.4 0 3.01 4.37 0 0.74 0.51 0 2.9 4.24 0 0.88 0.6 0 1.11 1.62 0 0.09 0.06 0 3.35 4.88 0 0.23 0.16 0 3.25 4.74 0 0.37 0.25 0 3.15 4.61 0 0.5 0.34 0 3.07 4.58 0 0.53 0.35 0 3.05 4.54 0 0.58 0.39 0 3.02 4.5 0 0.61 0.41 0 3 4.47 0 0.64 0.44 0 2.97 4.44 0 0.67 0.45 0 2.97 4.52 0 0.6 0.39 0c5.59,8.46 11.14,16.95 16.65,25.46l0 0.11 0.07 0 8.45 13.14 0 0.5 0.32 0 3.09 4.81 0 0.3 0.19 0 3.22 5.07 0 0.06 0.03 0 1.67 2.66 0 0.75 0.48 0 2.94 4.67 0 0.44 0.28 0 3.13 4.97 0 0.15 0.09 0 1.62 2.57 0 0.84 0.53 0 2.88 4.58 0 0.54 0.33 0 3.07 4.97 0 0.15 0.09 0 1.62 2.62 0 0.79 0.49 0 2.92 4.74 0 0.37 0.23 0 4.88 7.93 0 0.59 0.36 0 3.05 4.94 0 0.17 0.11 0 1.6 2.66 0 0.75 0.45 0 2.96 4.91 0 0.21 0.12 0 4.99 8.29 0 0.23 0.14 0c3.38,5.63 6.75,11.27 10.09,16.92l0 0.13 0.08 0 6.74 11.44 0 0.49 0.28 0c1.6,2.74 3.23,5.47 4.83,8.21l0 0.31 0.18 0 1.53 2.65 0 0.77 0.44 0 4.68 8.11 0 0.4 0.23 0 1.48 2.56 0 0.85 0.49 0 2.92 5.07 0 0.04 0.02 0 1.68 2.91 0 0.5 0.28 0 1.42 2.47 0 0.94 0.53 0c1.54,2.71 3.06,5.43 4.59,8.15l0 0.38 0.21 0 1.49 2.65 0 0.76 0.43 0 4.69 8.34 0 0.19 0.11 0 1.59 2.83 0 0.57 0.33 0c2.18,3.91 4.33,7.84 6.49,11.77l0 0.17 0.09 0 1.62 2.94 0 0.47 0.26 0c2.19,3.98 4.39,7.94 6.56,11.93l0 0c4.58,8.43 9.13,16.87 13.64,25.34l0 0.23 0.12 0 1.58 2.94 0 0.47 0.25 0 1.45 2.76 0 0.66 0.34 0 1.36 2.6 0 0.8 0.43 0 1.28 2.45 0 0.97 0.5 0 1.19 2.28 0 1.12 0.59 0c2.08,3.96 4.17,7.92 6.23,11.89l0 0.05 0.03 0 1.67 3.21 0 0.2 0.1 0 1.61 3.13 0 0.28 0.14 0 1.57 3.06 0 0.35 0.18 0 1.52 2.98 0 0.43 0.22 0 1.48 2.9 0 0.51 0.26 0 1.45 2.82 0 0.59 0.3 0 1.4 2.74 0 0.67 0.34 0 1.36 2.66 0 0.74 0.38 0 1.33 2.59 0 0.82 0.42 0 1.28 2.57 0 0.84 0.42 0c6.19,12.29 12.3,24.65 18.34,37.03l0 0.47 0.23 0 1.47 3.03 0 0.38 0.19 0 1.51 3.11 0 0.29 0.15 0 1.56 3.2 0 0.21 0.1 0 1.61 3.29 0 0.11 0.06 0c2.28,4.72 4.51,9.47 6.76,14.2l0 1.14 0.54 0 1.16 2.46 0 0.95 0.45 0 1.25 2.64 0 0.78 0.37 0 1.34 2.8 0 0.6 0.28 0 1.42 2.99 0 0.42 0.2 0 1.51 3.24 0 0.17 0.08 0 3.34 7.2 0 1.32 0.61 0 1.09 2.36 0 1.05 0.49 0 1.22 2.63 0 0.78 0.36 0 1.35 2.91 0 0.5 0.23 0 1.48 3.19 0 0.22 0.1 0c2.26,4.93 4.48,9.87 6.72,14.81l0 0.53 0.23 0 1.47 3.25 0 0.16 0.07 0c4.57,10.16 9.1,20.34 13.56,30.55l0 0.13 0.06 0 3.35 7.63 0 0.89 0.39 0 1.31 3 0 0.41 0.17 0 3.24 7.58 0 0.95 0.4 0 1.3 3.04 0 0.37 0.16 0 3.25 7.62 0 0.9 0.39 0 1.32 3.09 0 0.31 0.13 0 1.57 3.68 0 1.43 0.6 0 1.1 2.64 0 0.77 0.32 0 1.39 3.35 0 0.06 0.03 0 1.68 4.04 0 1.07 0.45 0 1.26 3.04 0 0.37 0.16 0 3.25 7.83 0 0.69 0.28 0 3.12 7.61 0 0.9 0.36 0 1.34 3.33 0 0.09 0.03 0 3.38 8.35 0 0.17 0.06 0c3.42,8.49 6.81,17.01 10.16,25.53l0 0.04 0.01 0c1.7,4.34 3.42,8.67 5.1,13l0 0.63 0.25 0 3.17 8.22 0 0.31 0.11 0 1.58 4.17 0 0.95 0.36 0 3.05 8.02 0 0.5 0.19 0 1.52 3.99 0 1.12 0.43 0 1.28 3.36 0 0.05 0.02 0 1.68 4.49 0 0.62 0.22 0 1.48 4 0 1.11 0.41 0 1.29 3.51 0 1.61 0.6 0 1.11 3.01 0 0.39 0.15 0 1.56 4.22 0 0.9 0.33 0 1.37 3.72 0 1.39 0.51 0 1.19 3.25 0 0.16 0.06 0 1.65 4.61 0 0.51 0.18 0 1.52 4.26 0 0.85 0.3 0c1.61,4.48 3.22,8.95 4.81,13.44l0 0.2 0.07 0c4.02,11.33 7.98,22.69 11.86,34.09l0 0.01 0 0 1.7 5.05 0 0.06 0.02 0 1.69 5.03 0 0.09 0.03 0 1.67 5 0 0.11 0.04 0 1.66 4.97 0 1.85 0.62 0 1.09 3.24 0 1.88 0.63 0 1.08 3.21 0 1.9 0.61 0 1.09 3.35 0 1.76 0.57 0 1.13 3.51 0 1.61 0.52 0 1.18 3.64 0 1.48 0.48 0 1.23 3.79 0 1.33 0.43 0 1.28 3.94 0 1.17 0.38 0 1.33 4.13 0 0.98 0.31 0 1.39 4.45 0 0.67 0.21 0 1.5 4.79 0 0.32 0.11 0c1.88,5.97 3.77,11.95 5.61,17.94 -4.69,5.99 -9.47,11.9 -14.2,17.86l-0.04 0 0 0.05 -6.74 8.48 -0.08 0 0 0.1c-2.24,2.8 -4.45,5.63 -6.7,8.42l-0.12 0 0 0.16c-2.23,2.79 -4.44,5.59 -6.69,8.37l-0.13 0 0 0.17 -1.26 1.54 -0.45 0 0 0.55c-2.16,2.67 -4.36,5.31 -6.52,7.98l-0.3 0 0 0.35 -6.68 8.17 -0.14 0 0 0.17c-10.7,13.09 -21.48,26.1 -32.35,39.04l-0.05 0 0 0.06c-3.32,3.96 -6.64,7.93 -9.99,11.88l-0.24 0 0 0.28c-2.8,3.31 -5.56,6.65 -8.37,9.95l-0.16 0 0 0.18 -1.3 1.52 -0.4 0 0 0.46c-2.79,3.27 -5.64,6.5 -8.45,9.76l-0.08 0 0 0.09 -1.39 1.61 -0.31 0 0 0.36c-10.71,12.45 -21.5,24.83 -32.37,37.15l-0.02 0 0 0.02c-4.52,5.13 -9.07,10.23 -13.63,15.33l-0 0 0 0 -1.51 1.7 -0.19 0 0 0.22c-4.51,5.04 -8.98,10.11 -13.52,15.12l-0.12 0 0 0.13 -1.44 1.57 -0.27 0 0 0.29 -1.29 1.42 -0.41 0 0 0.45c-4.52,4.99 -9.08,9.93 -13.62,14.9l-0.02 0 0 0.02 -1.54 1.68 -0.17 0 0 0.18c-5.68,6.19 -11.33,12.42 -17.05,18.58 -9.03,9.71 -18.13,19.36 -27.25,28.98l-0.03 0 0 0.04 -1.57 1.67 -0.13 0 0 0.14 -1.47 1.56 -0.23 0 0 0.25 -1.37 1.45 -0.33 0 0 0.36 -1.26 1.34 -0.45 0 0 0.47c-11.84,12.42 -23.77,24.77 -35.78,37.04l-0.01 0 0 0.02c-3.35,3.42 -6.75,6.8 -10.11,10.21l-0.12 0 0 0.13 -1.56 1.58 -0.14 0 0 0.13 -1.56 1.57 -0.14 0 0 0.14 -1.55 1.56 -0.16 0 0 0.16 -1.54 1.55 -0.17 0 0 0.17 -1.52 1.53 -0.18 0 0 0.18 -1.51 1.52 -0.19 0 0 0.19 -1.51 1.51 -0.2 0 0 0.2 -1.49 1.51 -0.22 0 0 0.22 -1.48 1.49 -0.22 0 0 0.22 -1.47 1.48 -0.23 0 0 0.23 -1.46 1.47 -0.24 0 0 0.24 -1.45 1.46 -0.26 0 0 0.26 -1.43 1.45 -0.27 0 0 0.27 -1.43 1.43 -0.28 0 0 0.28 -1.42 1.42 -0.28 0 0 0.28 -1.41 1.42 -0.3 0 0 0.3 -1.39 1.4 -0.31 0 0 0.31 -1.42 1.39 -0.28 0 0 0.28 -1.46 1.43 -0.24 0 0 0.24 -1.5 1.47 -0.21 0 0 0.2 -1.53 1.5 -0.17 0 0 0.17 -1.56 1.53 -0.14 0 0 0.14 -1.61 1.57 -0.1 0 0 0.1 -1.64 1.61 -0.06 0 0 0.06 -1.68 1.65 -0.02 0 0 0.02c-15.15,14.89 -30.42,29.66 -45.82,44.3l-0.21 0 0 0.2 -1.58 1.51 -0.12 0 0 0.12 -1.67 1.58 -0.04 0 0 0.04c-7.81,7.41 -15.63,14.79 -23.5,22.12l-0.37 0 0 0.35 -1.47 1.36 -0.23 0 0 0.22 -1.61 1.49 -0.1 0 0 0.09c-13.51,12.57 -27.11,25.04 -40.8,37.41l-0.12 0 0 0.11c-5,4.52 -9.99,9.04 -15.02,13.53l-0.32 0 0 0.29 -1.57 1.42 -0.13 0 0 0.12c-4.42,3.94 -8.83,7.89 -13.27,11.81l-0.37 0 0 0.32 -1.57 1.38 -0.13 0 0 0.11c-4.48,3.96 -8.99,7.88 -13.49,11.82l-0.15 0 0 0.13c-12.37,10.83 -24.82,21.59 -37.33,32.26l-0.17 0 0 0.15 -9.82 8.37 -0.4 0 0 0.35 -1.6 1.36 -0.11 0 0 0.09c-3.31,2.8 -6.58,5.64 -9.89,8.43l-0.33 0 0 0.28c-3.3,2.77 -6.64,5.49 -9.96,8.25l-0.28 0 0 0.23c-3.32,2.77 -6.67,5.53 -10.01,8.29l-0.22 0 0 0.18c-12.37,10.25 -24.79,20.41 -37.29,30.51l-0.21 0 0 0.17 -8.26 6.64 -0.27 0 0 0.22 -8.2 6.6 -0.33 0 0 0.27c-2.73,2.18 -5.42,4.39 -8.15,6.55l-0.37 0 0 0.29c-2.76,2.19 -5.57,4.34 -8.34,6.53l-0.19 0 0 0.14 -8.52 6.68 -0 0c-5.08,3.98 -10.15,7.98 -15.24,11.94l-0.1 0 0 0.08c-5.1,3.96 -10.2,7.92 -15.32,11.85l-0.02 0 0 0.01 -6.7 5.1 -0.11 0 0 0.09 -6.61 5.02 -0.21 0 0 0.16 -6.51 4.96 -0.31 0 0 0.23 -6.42 4.88 -0.4 0 0 0.31c-2.11,1.6 -4.2,3.22 -6.32,4.8l-0.5 0 0 0.38 -6.35 4.73 -0.48 0 0 0.35 -6.45 4.76 -0.37 0 0 0.28 -6.55 4.84 -0.27 0 0 0.2 -6.64 4.91 -0.17 0 0 0.13 -6.75 4.99 -0.07 0 0 0.06c-10.12,7.42 -20.29,14.78 -30.48,22.11l-0.2 0 0 0.14 -11.67 8.38 -0.26 0 0 0.19c-3.88,2.77 -7.72,5.58 -11.62,8.34l-0.32 0 0 0.22c-1.51,1.07 -3.06,2.12 -4.57,3.18l-0.55 0 0 0.39c-2.25,1.59 -4.53,3.14 -6.79,4.73l-0.03 0 0 0.02 -4.86 3.39 -0.26 0 0 0.18c-14.68,10.27 -29.45,20.44 -44.28,30.51l-0.04 0 0 0.02 -5 3.39 -0.11 0 0 0.07 -4.92 3.34 -0.19 0 0 0.13 -4.85 3.28 -0.26 0 0 0.18 -4.78 3.23 -0.33 0 0 0.23c-1.58,1.05 -3.13,2.13 -4.7,3.18l-0.42 0 0 0.28 -4.73 3.12 -0.39 0 0 0.25 -4.81 3.16 -0.3 0 0 0.2 -4.89 3.21 -0.23 0 0 0.15 -4.97 3.26 -0.14 0 0 0.1 -5.05 3.32 -0.06 0 0 0.04c-15.75,10.33 -31.58,20.54 -47.49,30.64l-0.24 0 0 0.16 -5.11 3.25 -0 0c-2.68,1.7 -5.34,3.42 -8.03,5.12l-0.5 0 0 0.32 -4.88 3.09 -0.23 0 0 0.15c-2.67,1.67 -5.37,3.3 -8.05,4.97l-0.47 0 0 0.3 -5.05 3.12 -0.06 0 0 0.04 -8.22 5.08 -0.31 0 0 0.19c-4.5,2.78 -8.99,5.58 -13.5,8.34l-0.13 0 0 0.08c-11.21,6.86 -22.48,13.62 -33.77,20.37l-0.32 0 0 0.2 -8.24 4.92 -0.29 0 0 0.17c-2.76,1.64 -5.49,3.31 -8.26,4.94l-0.27 0 0 0.16 -8.42 4.95 -0.11 0 0 0.06 -2.84 1.64 -0.58 0 0 0.33c-2.74,1.61 -5.51,3.18 -8.26,4.79l-0.27 0 0 0.16c-6.77,3.94 -13.54,7.87 -20.33,11.77l-0.12 0 0 0.07c-12.97,7.44 -26,14.8 -39.07,22.09l-0.14 0 0 0.07 -2.9 1.63 -0.5 0 0 0.29c-3.89,2.17 -7.76,4.38 -11.66,6.53l-0.28 0 0 0.16 -2.78 1.55 -0.62 0 0 0.34c-5.01,2.76 -10.07,5.45 -15.09,8.19l-0.25 0 0 0.13c-6.19,3.37 -12.38,6.75 -18.59,10.09l-0.16 0 0 0.09c-8.46,4.55 -16.94,9.07 -25.44,13.56l-0.13 0 0 0.07 -3.11 1.63 -0.29 0 0 0.15c-9.64,5.08 -19.27,10.19 -28.96,15.19l-0.02 0 0 0.01 -3.29 1.7 -0.12 0 0 0.06 -3.25 1.65 -0.16 0 0 0.08 -3.21 1.62 -0.2 0 0 0.11 -3.15 1.6 -0.26 0 0 0.13 -3.11 1.57 -0.3 0 0 0.15 -3.07 1.56 -0.34 0 0 0.17 -3.03 1.53 -0.38 0 0 0.2c-14.61,7.41 -29.27,14.73 -43.98,21.97l-0.34 0 0 0.17 -3.15 1.54 -0.26 0 0 0.12 -3.22 1.57 -0.19 0 0 0.1 -3.29 1.61 -0.11 0 0 0.06 -3.37 1.65 -0.04 0 0 0.02c-10.6,5.16 -21.23,10.27 -31.89,15.32l-0.5 0 0 0.24 -3.12 1.47 -0.29 0 0 0.14 -3.33 1.56 -0.09 0 0 0.04c-9.63,4.55 -19.25,9.13 -28.93,13.6l-0.05 0 0 0.02c-6.21,2.87 -12.48,5.66 -18.71,8.5l-0.04 0 0 0.02c-4.98,2.27 -9.96,4.55 -14.95,6.8l-0.39 0 0 0.17 -3.36 1.53 -0.05 0 0 0.02c-3.76,1.69 -7.53,3.41 -11.29,5.09l-0.64 0 0 0.28 -3.26 1.43 -0.16 0 0 0.07c-3.83,1.7 -7.69,3.35 -11.53,5.04l-0.4 0 0 0.17 -15.19 6.64 -0.15 0 0 0.07c-11.86,5.15 -23.75,10.24 -35.67,15.28l-0.14 0 0 0.06 -7.97 3.35 -0.55 0 0 0.23c-3.87,1.62 -7.73,3.27 -11.6,4.88l-0.33 0 0 0.14c-2.59,1.08 -5.17,2.2 -7.77,3.27l-0.75 0 0 0.31 -3.38 1.39 -0.03 0 0 0.01c-2.79,1.15 -5.61,2.25 -8.42,3.4l-0.11 0 0 0.05 -8.33 3.36 -0.2 0 0 0.08 -8.25 3.33 -0.28 0 0 0.11c-11.29,4.55 -22.6,9.08 -33.94,13.53l-0.16 0 0 0.06c-7.26,2.85 -14.55,5.65 -21.83,8.46l-0.33 0 0 0.13c-2.83,1.09 -5.64,2.2 -8.47,3.28l-0.06 0 0 0.02 -4.33 1.68 -0.78 0 0 0.3 -8.23 3.11 -0.29 0 0 0.11 -4.3 1.6 -0.82 0 0 0.3c-2.78,1.05 -5.58,2.06 -8.36,3.1l-0.17 0 0 0.06 -13.62 5.06 -0.02 0 0 0.01c-14.07,5.19 -28.19,10.3 -42.34,15.33l-0.28 0 0 0.1 -4.51 1.6 -0.61 0 0 0.22c-6.2,2.2 -12.39,4.44 -18.6,6.61l-0.15 0 0 0.05 -4.69 1.65 -0.42 0 0 0.14 -4.62 1.56 -0.5 0 0 0.17 -4.53 1.54 -0.59 0 0 0.2 -4.44 1.51 -0.67 0 0 0.22c-20.21,6.91 -40.5,13.65 -60.87,20.23l-0.51 0 0 0.16 -4.77 1.54 -0.34 0 0 0.11 -4.93 1.59 -0.18 0 0 0.06 -5.08 1.64 -0.03 0 0 0.01c-5.36,1.71 -10.72,3.42 -16.1,5.11l-0.95 0 0 0.29 -4.58 1.41 -0.53 0 0 0.16 -5.02 1.54 -0.1 0 0 0.03c-7.36,2.28 -14.71,4.55 -22.08,6.79l-0.09 0 0 0.03c-15.28,4.64 -30.6,9.16 -45.97,13.62l-0.06 0 0 0.02 -5.77 1.68 -1.05 0 0 0.3 -4.8 1.4 -0.32 0 0 0.09c-1.84,0.52 -3.68,1.09 -5.52,1.61l-1.29 0 0 0.38 -4.77 1.33 -0.35 0 0 0.1 -5.8 1.61 -1.02 0 0 0.28c-3.77,1.06 -7.56,2.08 -11.33,3.13l-0.6 0 0 0.17 -11.75 3.25 -0.18 0 0 0.05c-16.96,4.64 -33.98,9.17 -51.03,13.59l-0.11 0 0 0.03 -6.42 1.67 -0.4 0 0 0.11 -6.13 1.6 -0.69 0 0 0.18c-1.95,0.5 -3.89,1.03 -5.85,1.53l-0.97 0 0 0.25 -5.94 1.46 -0.88 0 0 0.22 -6.07 1.49 -0.75 0 0 0.18 -6.18 1.52 -0.64 0 0 0.16 -6.31 1.55 -0.51 0 0 0.12 -6.44 1.58 -0.38 0 0 0.09 -6.57 1.61 -0.25 0 0 0.06 -6.7 1.64 -0.12 0 0 0.03c-7.23,1.73 -14.47,3.4 -21.72,5.08l-0.45 0 0 0.1c-4.78,1.12 -9.57,2.21 -14.35,3.31l-0.99 0 0 0.22 -6.43 1.48 -0.39 0 0 0.09 -7.02 1.62 -1.51 0 0 0.35 -5.91 1.36 -0.91 0 0 0.21c-2.32,0.52 -4.66,0.99 -6.97,1.5l-1.55 0 0 0.33 -6.37 1.37 -0.45 0 0 0.1 -7.49 1.61 -1.04 0 0 0.22c-4.94,1.07 -9.88,2.14 -14.83,3.19l-0.51 0 0 0.11c-19.3,4.08 -38.64,8.03 -58.05,11.82l-1.62 0 0 0.32 -6.92 1.38 -1.6 0 0 0.32 -7.42 1.39 -1.11 0 0 0.2 -8.1 1.5 -0.42 0 0 0.08c-6.01,1.13 -12.02,2.23 -18.03,3.33l-0.72 0 0 0.13 -8.51 1.57 -0.01 0 0 0c-13.02,2.35 -26.09,4.6 -39.15,6.81l-0.06 0 0 0.01 -9.99 1.7 -0.23 0 0 0.04c-3.27,0.55 -6.52,1.13 -9.79,1.66l-2.14 0 0 0.36 -8.2 1.34 -2.04 0 0 0.32c-2.99,0.48 -5.99,0.92 -8.98,1.39l-1.25 0 0 0.19 -9.76 1.51 -0.46 0 0 0.07c-19.04,2.96 -38.13,5.77 -57.26,8.45l-0.7 0 0 0.1 -11.44 1.61 -2.19 0 0 0.31c-3.34,0.45 -6.65,0.95 -9.99,1.4l-1.94 0 0 0.27c-3.76,0.5 -7.54,0.95 -11.3,1.43l-2.34 0 0 0.3c-3.76,0.49 -7.53,0.93 -11.29,1.41l-0.64 0 0 0.08 -13 1.62 -0.64 0 0 0.08c-14.38,1.76 -28.79,3.43 -43.22,5.03l-1.11 0 0 0.12c-4.79,0.53 -9.57,1.07 -14.36,1.59l-2.68 0 0 0.29c-4.26,0.45 -8.5,0.97 -12.77,1.41l-2.57 0 0 0.24c-5.09,0.52 -10.2,0.96 -15.29,1.46l-1.76 0 0 0.17c-5.36,0.53 -10.73,1.04 -16.11,1.54l-0.95 0 0 0.09c-5.64,0.53 -11.27,1.11 -16.92,1.62l-0.12 0 0 0.01c-6.84,0.61 -13.7,1.12 -20.55,1.7l-1.62 0 0 0.13c-6.47,0.54 -12.95,1.06 -19.44,1.57l-2.72 0 0 0.22c-6.42,0.5 -12.84,1.02 -19.27,1.48l-4.59 0 0 0.3c-7.07,0.5 -14.15,0.94 -21.23,1.4l-0.94 0 0 0.06c-19.27,1.26 -38.59,2.36 -57.94,3.35l-5.14 0 0 0.27c-10.56,0.52 -21.13,1 -31.7,1.44l-5.8 0 0 0.21c-14.01,0.56 -28.02,1.08 -42.07,1.5l-0.55 0 0 0.01c-36.8,1.07 -73.76,1.59 -110.82,1.59 -37.06,0 -73.99,-0.55 -110.81,-1.59zm110.81 -8258.28c129.46,0 257.4,6.5 383.58,19l0 0 0.04 0c5.67,0.56 11.34,1.12 17.01,1.7l0 0 0.04 0c19.94,2.06 39.78,4.45 59.63,6.82l0.02 0c364.75,43.52 713.86,137.91 1039.9,276.18l0 0c9.15,3.87 18.16,7.99 27.27,11.93 9.11,3.95 18.2,7.92 27.28,11.94l0 0c9.07,4.02 18.24,7.85 27.27,11.93 17.16,7.76 34.11,15.87 51.14,23.87l0 0c418.36,196.56 795.44,466.32 1114.93,792.73 423.04,432.2 744.92,963.78 927.4,1556.47l0 0c110.24,358.03 169.64,738.36 169.64,1132.58 0,19.15 -0.15,38.27 -0.43,57.36l-0.44 0 0 24.26c-0.38,18.08 -0.89,36.14 -1.51,54.17l-0.19 0 0 5.69c-0.38,10.62 -0.81,21.22 -1.28,31.81l-0.43 0 0 9.32c-0.44,9.41 -0.91,18.8 -1.42,28.18l-0.29 0 0 5.08c-0.95,17.09 -1.99,34.14 -3.15,51.17l-0.26 0 0 3.55c-0.43,6.21 -0.89,12.42 -1.34,18.62l-0.36 0 0 5c-0.44,5.73 -0.9,11.44 -1.36,17.16l-0.34 0 0 4.3c-0.48,5.96 -0.98,11.91 -1.49,17.86l-0.21 0 0 2.43c-1.06,12.27 -2.18,24.53 -3.36,36.78l-0.05 0 0 0.5 -1.45 14.84 -0.25 0 0 2.44 -1.33 12.91 -0.38 0 0 3.69 -1.44 13.35 -0.27 0 0 2.45 -1.43 12.9 -0.28 0 0 2.54 -1.49 12.8 -0.22 0 0 1.83c-1.6,13.62 -3.26,27.23 -5,40.8l-0.11 0 0 0.88 -1.44 11.05 -0.26 0 0 1.98 -1.33 9.95 -0.37 0 0 2.79 -1.47 10.84 -0.23 0 0 1.64 -1.45 10.29 -0.25 0 0 1.79 -1.43 10.15 -0.27 0 0 1.9 -1.5 10.03 -0.21 0 0 1.43c-1.11,7.48 -2.23,14.96 -3.39,22.44l-0.02 0 0 0.13 -1.58 10.1 -0.12 0 0 0.78 -1.48 9.44 -0.22 0 0 1.45 -1.44 8.78 -0.27 0 0 1.61 -1.41 8.62 -0.29 0 0 1.76 -1.39 8.47 -0.31 0 0 1.84 -1.45 8.39 -0.26 0 0 1.52 -1.5 8.7 -0.21 0 0 1.21 -1.57 9.03 -0.13 0 0 0.73c-1.67,9.43 -3.37,18.84 -5.11,28.24l-0.01 0 0 0.07 -1.58 8.45 -0.11 0 0 0.61 -1.49 7.91 -0.22 0 0 1.18c-1.11,5.86 -2.24,11.72 -3.38,17.57l-0.04 0 0 0.18 -1.62 8.34 -0.08 0 0 0.39 -1.59 8.14 -0.11 0 0 0.56 -1.62 7.96 -0.09 0 0 0.45 -1.64 8.08 -0.06 0 0 0.31 -1.67 8.22 -0.03 0 0 0.17c-3.28,15.89 -6.67,31.74 -10.14,47.55l-0.09 0 0 0.4c-1.1,4.98 -2.18,9.97 -3.3,14.95l-0.11 0 0 0.5 -1.44 6.32 -0.27 0 0 1.2 -1.66 7.32 -0.04 0 0 0.17 -1.51 6.65 -0.2 0 0 0.87 -1.38 5.95 -0.33 0 0 1.37 -1.67 7.15 -0.03 0 0 0.11 -1.57 6.71 -0.13 0 0 0.56 -1.47 6.26 -0.23 0 0 0.99c-2.78,11.62 -5.62,23.22 -8.5,34.81l-0.02 0 0 0.1 -1.68 6.72 -0.03 0 0 0.09 -1.68 6.73 -0.02 0 0 0.08 -1.69 6.74 -0.02 0 0 0.07 -3.07 11.87 -0.34 0 0 1.32 -1.42 5.5 -0.28 0 0 1.1 -1.48 5.72 -0.22 0 0 0.87 -1.57 5.95 -0.13 0 0 0.48 -1.69 6.34 -0.01 0 0 0.06 -1.35 5.05 -0.36 0 0 1.34 -1.46 5.47 -0.25 0 0 0.92 -1.59 5.9 -0.12 0 0 0.43c-3.83,14.09 -7.74,28.16 -11.72,42.19l-0.21 0 0 0.74 -3.18 11.2 -0.23 0 0 0.79 -3.24 11.14 -0.17 0 0 0.58 -1.32 4.54 -0.39 0 0 1.33 -1.6 5.5 -0.11 0 0 0.37 -1.41 4.74 -0.29 0 0 0.98 -3.27 10.95 -0.14 0 0 0.47 -1.39 4.64 -0.32 0 0 1.07 -3.29 10.86 -0.12 0 0 0.38 -5.12 16.67c-3.35,10.81 -6.73,21.61 -10.17,32.39l-0.05 0 0 0.17 -1.6 4.95 -0.11 0 0 0.32 -1.55 4.79 -0.16 0 0 0.49 -1.5 4.63 -0.21 0 0 0.65 -1.45 4.46 -0.26 0 0 0.79 -1.39 4.32 -0.31 0 0 0.95 -1.38 4.17 -0.33 0 0 0.98 -1.37 4.13 -0.33 0 0 1.01 -1.36 4.1 -0.35 0 0 1.05 -1.35 4.07 -0.35 0 0 1.06c-4.45,13.31 -8.96,26.6 -13.55,39.85l-0.1 0 0 0.28 -1.68 4.84 -0.01 0 0 0.05c-2.17,6.24 -4.34,12.47 -6.54,18.7l-0.28 0 0 0.77 -1.55 4.35 -0.16 0 0 0.44 -1.67 4.67 -0.04 0 0 0.12 -3 8.41 -0.41 0 0 1.17 -1.42 3.95 -0.28 0 0 0.77 -1.58 4.35 -0.12 0 0 0.33 -4.85 13.31 -0.26 0 0 0.72 -1.6 4.4 -0.11 0 0 0.28c-1.64,4.46 -3.31,8.91 -4.97,13.35l-0.14 0 0 0.38c-3.35,8.98 -6.74,17.95 -10.15,26.9l-0.07 0 0 0.19 -3.18 8.33 -0.23 0 0 0.61 -3.05 7.91 -0.35 0 0 0.91 -1.64 4.21 -0.06 0 0 0.17 -3.26 8.36 -0.15 0 0 0.39 -3.17 8.13 -0.24 0 0 0.59 -3.16 7.93 -0.25 0 0 0.63 -3.15 7.89 -0.26 0 0 0.66 -3.13 7.87 -0.28 0 0 0.69 -3.19 7.83 -0.22 0 0 0.54c-5.01,12.35 -10.08,24.68 -15.22,36.97l-0.12 0 0 0.3 -4.89 11.63 -0.23 0 0 0.55 -3.39 7.98 -0.02 0 0 0.06 -1.42 3.35 -0.28 0 0 0.67 -3.33 7.86 -0.08 0 0 0.18 -1.39 3.23 -0.31 0 0 0.7 -3.39 7.82 -0.02 0 0 0.06 -1.45 3.35 -0.26 0 0 0.59 -4.92 11.34 -0.19 0 0 0.43c-1.68,3.84 -3.4,7.67 -5.09,11.51l-0.02 0 0 0.06c-2.25,5.1 -4.51,10.2 -6.78,15.29l-0.04 0 0 0.1c-2.79,6.23 -5.59,12.44 -8.41,18.65l-0.11 0 0 0.26 -1.42 3.15 -0.28 0 0 0.62c-2.23,4.91 -4.51,9.81 -6.76,14.72l-0.06 0 0 0.12 -1.51 3.29 -0.19 0 0 0.42 -1.37 2.99 -0.33 0 0 0.73c-2.26,4.88 -4.54,9.74 -6.82,14.62l-1.6 3.41 -0.11 0 0 0.23 -1.48 3.18 -0.22 0 0 0.47 -1.38 2.94 -0.32 0 0 0.69c-3.38,7.17 -6.8,14.33 -10.22,21.47l-0.01 0 0 0.01c-17.12,35.71 -34.77,71.14 -52.95,106.23 -262.82,-425.82 -604.52,-801.52 -1008.71,-1105.05 -127.5,-95.74 -260.31,-183.59 -397.66,-263.2 25.35,-128.72 38.77,-261.74 38.77,-397.86 0,-1131.46 -917.25,-2048.7 -2048.7,-2048.7 -1131.46,0 -2048.7,917.25 -2048.7,2048.7 0,136.13 13.43,269.15 38.77,397.86 -137.36,79.61 -270.18,167.46 -397.66,263.2 -404.19,303.52 -745.9,679.22 -1008.71,1105.05 -21.82,-42.13 -42.88,-84.7 -63.18,-127.72l0 -0.68 -0.32 0 -1.39 -2.96 0 -0.45 -0.21 0 -1.49 -3.19 0 -0.22 -0.1 0c-2.82,-6.01 -5.64,-12.02 -8.43,-18.05l0 -0.71 -0.33 0 -1.38 -3 0 -0.41 -0.19 0 -1.51 -3.3 0 -0.11 -0.05 0c-2.26,-4.91 -4.53,-9.81 -6.77,-14.73l0 -0.61 -0.28 0 -1.43 -3.17 0 -0.25 -0.11 0c-2.82,-6.21 -5.63,-12.44 -8.42,-18.68l0 -0.07 -0.03 0c-2.28,-5.09 -4.53,-10.19 -6.79,-15.29l0 -0.05 -0.02 0 -5.09 -11.53 0 -0.41 -0.18 0 -4.93 -11.36 0 -0.57 -0.25 0 -1.46 -3.37 0 -0.04 -0.01 0 -3.39 -7.83 0 -0.69 -0.3 0 -1.4 -3.25 0 -0.16 -0.07 0 -3.34 -7.87 0 -0.66 -0.28 0 -1.42 -3.36 0 -0.04 -0.02 0 -3.4 -8 0 -0.53 -0.22 0 -4.89 -11.65 0 -0.29 -0.12 0c-5.14,-12.3 -10.21,-24.63 -15.23,-37l0 -0.51 -0.21 0 -3.2 -7.87 0 -0.65 -0.26 0 -3.14 -7.89 0 -0.63 -0.25 0 -3.16 -7.93 0 -0.59 -0.24 0 -3.17 -7.96 0 -0.56 -0.23 0 -3.18 -8.17 0 -0.36 -0.14 0 -3.27 -8.37 0 -0.15 -0.06 0 -1.65 -4.23 0 -0.89 -0.35 0 -3.07 -7.93 0 -0.58 -0.22 0 -3.18 -8.35 0 -0.17 -0.07 0c-3.42,-8.96 -6.8,-17.95 -10.16,-26.94l0 -0.34 -0.13 0c-1.66,-4.46 -3.34,-8.92 -4.99,-13.39l0 -0.25 -0.09 0 -1.61 -4.43 0 -0.69 -0.25 0 -4.86 -13.33 0 -0.31 -0.11 0 -1.59 -4.37 0 -0.75 -0.27 0 -1.44 -3.99 0 -1.12 -0.4 0 -3.01 -8.45 0 -0.07 -0.03 0 -1.67 -4.7 0 -0.41 -0.15 0 -1.56 -4.37 0 -0.74 -0.27 0c-2.2,-6.23 -4.38,-12.48 -6.55,-18.73l0 -0.02 -0 0 -1.7 -4.89 0 -0.23 -0.08 0c-4.59,-13.26 -9.11,-26.56 -13.56,-39.88l0 -1.04 -0.34 0 -1.36 -4.11 0 -1 -0.33 0 -1.37 -4.14 0 -0.97 -0.32 0 -1.39 -4.18 0 -0.93 -0.31 0 -1.39 -4.2 0 -0.92 -0.3 0 -1.4 -4.35 0 -0.77 -0.25 0 -1.46 -4.51 0 -0.61 -0.19 0 -1.51 -4.67 0 -0.45 -0.14 0 -1.56 -4.82 0 -0.29 -0.1 0 -1.61 -4.98 0 -0.14 -0.04 0c-5.22,-16.32 -10.3,-32.69 -15.3,-49.1l0 -0.34 -0.11 0 -3.3 -10.92 0 -1.01 -0.3 0 -1.41 -4.7 0 -0.41 -0.12 0 -3.28 -10.99 0 -0.95 -0.28 0 -1.43 -4.8 0 -0.32 -0.09 0 -1.62 -5.55 0 -1.27 -0.37 0 -1.33 -4.58 0 -0.53 -0.16 0 -3.26 -11.21 0 -0.73 -0.21 0 -3.2 -11.26 0 -0.67 -0.19 0c-2.23,-7.87 -4.45,-15.74 -6.63,-23.63l0 -0.24 -0.06 0c-1.7,-6.12 -3.38,-12.25 -5.05,-18.38l0 -0.37 -0.1 0 -1.6 -5.95 0 -0.87 -0.23 0 -1.47 -5.53 0 -1.29 -0.34 0 -1.36 -5.09 0 -0.03 -0 0 -1.7 -6.37 0 -0.45 -0.12 0 -1.58 -6.01 0 -0.81 -0.22 0 -1.49 -5.79 0 -1.03 -0.27 0 -1.44 -5.55 0 -1.27 -0.33 0c-1.61,-6.24 -3.21,-12.49 -4.79,-18.75l0 -0.01 -1.71 -6.8 0 -0.02 -0 0 -1.69 -6.76 0 -0.06 -0.01 0c-2.89,-11.61 -5.73,-23.22 -8.51,-34.87l0 -0.93 -0.22 0 -1.49 -6.34 0 -0.48 -0.11 0 -1.59 -6.79 0 -0.03 -0.01 0 -1.69 -7.24 0 -1.28 -0.31 0 -1.39 -6.02 0 -0.81 -0.18 0 -1.52 -6.7 0 -0.12 -0.02 0 -1.68 -7.4 0 -1.12 -0.26 0 -1.45 -6.39 0 -0.43 -0.1 0 -3.31 -14.99 0 -0.35 -0.07 0c-3.48,-15.84 -6.87,-31.71 -10.16,-47.63l0 -0.1 -0.02 0 -1.69 -8.29 0 -0.23 -0.05 0 -1.65 -8.14 0 -0.39 -0.08 0 -1.63 -8.04 0 -2.19 -0.43 0 -1.28 -6.53 0 -1.99 -0.39 0 -1.32 -6.73 0 -1.79 -0.34 0 -1.36 -6.94 0 -1.59 -0.31 0 -1.39 -7.42 0 -1.11 -0.21 0 -1.5 -7.98 0 -0.54 -0.1 0c-2.29,-12.27 -4.54,-24.55 -6.72,-36.85l0 -0.65 -0.11 0 -1.59 -9.14 0 -1.09 -0.19 0 -1.51 -8.82 0 -1.41 -0.24 0 -1.46 -8.5 0 -1.73 -0.29 0 -1.41 -8.55 0 -1.67 -0.28 0 -1.43 -8.7 0 -1.52 -0.25 0 -1.45 -8.91 0 -1.32 -0.21 0 -1.5 -9.57 0 -0.66 -0.11 0 -1.6 -10.19 0 -0.04 -0 0c-1.16,-7.51 -2.29,-15.04 -3.4,-22.57l0 -1.29 -0.19 0c-0.5,-3.39 -1.02,-6.77 -1.51,-10.16l0 -1.77 -0.25 0 -1.45 -10.29 0 -1.65 -0.23 0 -1.47 -10.39 0 -1.54 -0.22 0 -1.49 -10.95 0 -2.68 -0.36 0 -1.35 -10.1 0 -1.84 -0.24 0 -1.46 -11.21 0 -0.73 -0.09 0 -1.61 -12.78 0 -0.85 -0.11 0c-1.14,-9.1 -2.24,-18.2 -3.31,-27.32l0 -1.67 -0.2 0 -1.51 -12.98 0 -2.36 -0.26 0 -1.45 -13.07 0 -2.27 -0.25 0 -1.45 -13.49 0 -3.55 -0.36 0 -1.34 -13.05 0 -2.3 -0.23 0 -1.47 -15.05 0 -2 -0.19 0c-1.13,-11.73 -2.2,-23.48 -3.22,-35.24l0 -2.27 -0.2 0c-0.52,-6.01 -1.01,-12.03 -1.51,-18.05l0 -4.12 -0.33 0c-0.46,-5.8 -0.94,-11.61 -1.38,-17.42l0 -4.74 -0.34 0c-0.47,-6.29 -0.93,-12.59 -1.36,-18.89l0 -3.28 -0.24 0c-1.17,-17.11 -2.22,-34.25 -3.17,-51.43l0 -4.83 -0.28 0c-0.51,-9.48 -0.99,-18.97 -1.43,-28.48l0 -9.03 -0.41 0c-0.48,-10.78 -0.9,-21.58 -1.29,-32.38l0 -5.12 -0.17 0c-0.64,-18.37 -1.15,-36.77 -1.53,-55.19l0 -23.23 -0.42 0c-0.29,-19.09 -0.43,-38.21 -0.43,-57.36 0,-22.43 0.47,-44.75 0.85,-67.08l0 -0.1c25.91,-1510.98 923.31,-2809.43 2211.12,-3414.6 17.02,-8 33.98,-16.12 51.14,-23.87 9.03,-4.08 18.2,-7.92 27.27,-11.93l0.01 0 0 -0c9.07,-4.02 18.17,-7.98 27.28,-11.93 9.1,-3.95 18.13,-8.06 27.27,-11.93l0.01 0 0 -0c326.01,-138.31 675.16,-232.64 1039.9,-276.17l0.02 0c19.85,-2.37 39.69,-4.75 59.62,-6.82l0.05 0 0 -0c5.66,-0.59 11.33,-1.13 17.01,-1.7l0.04 0 0 -0c126.16,-12.54 254.11,-19 383.58,-19z"/>
 </g>
</svg>
