<?xml version="1.0" encoding="UTF-8"?>
<!DOCTYPE svg PUBLIC "-//W3C//DTD SVG 1.1//EN" "http://www.w3.org/Graphics/SVG/1.1/DTD/svg11.dtd">
<!-- Creator: CorelDRAW 2021.5 -->
<svg xmlns="http://www.w3.org/2000/svg" xml:space="preserve" width="39.104mm" height="42mm" version="1.1" style="shape-rendering:geometricPrecision; text-rendering:geometricPrecision; image-rendering:optimizeQuality; fill-rule:evenodd; clip-rule:evenodd"
viewBox="0 0 645.95 693.78"
 xmlns:xlink="http://www.w3.org/1999/xlink"
 xmlns:xodm="http://www.corel.com/coreldraw/odm/2003">
 <defs>
  <style type="text/css">
   <![CDATA[
    .fil0 {fill:url(#id0)}
   ]]>
  </style>
  <linearGradient id="id0" gradientUnits="userSpaceOnUse" x1="716.14" y1="-140.03" x2="-176.68" y2="965.83">
   <stop offset="0" style="stop-opacity:1; stop-color:#4286F4"/>
   <stop offset="1" style="stop-opacity:1; stop-color:#373B44"/>
  </linearGradient>
 </defs>
 <g id="Layer_x0020_1">
  <metadata id="CorelCorpID_0Corel-Layer"/>
  <path class="fil0" d="M313.66 693.65l0 -0 -0.05 0c-1.18,-0.03 -2.36,-0.08 -3.53,-0.12l0 -0.02 -0.49 0c-0.89,-0.04 -1.78,-0.08 -2.66,-0.12l0 -0.02 -0.43 0c-1.63,-0.08 -3.25,-0.18 -4.87,-0.28l0 -0 -0.08 0c-0.59,-0.04 -1.19,-0.08 -1.78,-0.12l0 -0.03 -0.38 0c-0.54,-0.04 -1.08,-0.08 -1.62,-0.12l0 -0.02 -0.23 0c-0.54,-0.04 -1.09,-0.09 -1.63,-0.13l0 -0.01 -0.14 0c-0.57,-0.05 -1.15,-0.09 -1.73,-0.14l0 -0 -0.01 0c-0.48,-0.04 -0.95,-0.09 -1.42,-0.14l0 -0.01 -0.08 0 -1.35 -0.13 0 -0.01 -0.15 0c-0.43,-0.04 -0.86,-0.08 -1.28,-0.12l0 -0.02 -0.22 0c-0.36,-0.04 -0.71,-0.08 -1.07,-0.12l0 -0.02 -0.22 0c-0.4,-0.04 -0.8,-0.09 -1.21,-0.13l0 -0.01 -0.09 0c-1.21,-0.14 -2.42,-0.28 -3.63,-0.42l0 -0.01 -0.05 0 -1.09 -0.14 0 -0.01 -0.05 0 -0.95 -0.12 0 -0.02 -0.2 0c-0.32,-0.04 -0.63,-0.08 -0.95,-0.12l0 -0.02 -0.16 0c-0.28,-0.04 -0.56,-0.08 -0.84,-0.12l0 -0.02 -0.19 0 -0.96 -0.14 0 -0.01 -0.06 0c-1.61,-0.22 -3.21,-0.46 -4.81,-0.71l0 -0 -0.04 0 -0.82 -0.13 0 -0.02 -0.1 0c-0.25,-0.04 -0.5,-0.08 -0.75,-0.12l0 -0.03 -0.17 0 -0.69 -0.11 0 -0.03 -0.18 0c-0.27,-0.04 -0.55,-0.09 -0.82,-0.14l0 -0 -0.02 0 -0.84 -0.14 0 -0 -0 0c-1.1,-0.19 -2.19,-0.37 -3.29,-0.57l0 0 -0 0 -0.71 -0.13 0 -0.01 -0.06 0c-0.51,-0.09 -1.01,-0.19 -1.51,-0.28l0 -0.01 -0.03 0c-0.23,-0.04 -0.45,-0.08 -0.68,-0.13l0 -0.02 -0.09 0c-0.21,-0.04 -0.42,-0.08 -0.62,-0.12l0 -0.03 -0.14 0c-0.19,-0.04 -0.39,-0.08 -0.58,-0.12l0 -0.03 -0.14 0c-1.63,-0.32 -3.26,-0.65 -4.88,-0.99l0 -0.01 -0.04 0c-0.42,-0.09 -0.83,-0.18 -1.25,-0.27l0 -0.02 -0.09 0 -0.63 -0.14 0 -0.01 -0.04 0 -0.53 -0.11 0 -0.03 -0.13 0c-0.19,-0.04 -0.39,-0.08 -0.59,-0.13l0 -0.02 -0.08 0 -0.5 -0.11 0 -0.03 -0.13 0 -0.59 -0.14 0 -0.01 -0.03 0 -0.54 -0.12 0 -0.02 -0.08 0 -1.21 -0.28 0 -0.01 -0.04 0c-0.61,-0.14 -1.22,-0.28 -1.82,-0.43l0 -0 -0.01 0 -0.56 -0.14 0 -0 -0.02 0 -0.55 -0.14 0 -0.01 -0.03 0 -0.54 -0.13 0 -0.01 -0.04 0 -0.53 -0.13 0 -0.01 -0.05 0 -0.52 -0.13 0 -0.02 -0.06 0 -0.51 -0.12 0 -0.02 -0.07 0 -0.5 -0.12 0 -0.02 -0.08 0c-0.16,-0.04 -0.33,-0.09 -0.49,-0.13l0 -0.01 -0.06 0 -0.52 -0.13 0 -0.01 -0.03 0 -0.54 -0.14 0 -0 -0.01 0c-1.43,-0.37 -2.86,-0.75 -4.29,-1.14l0 -0 -0.01 0 -0.99 -0.27 0 -0.01 -0.05 0c-0.32,-0.09 -0.64,-0.17 -0.95,-0.26l0 -0.02 -0.09 0 -0.49 -0.13 0 -0.01 -0.03 0 -0.4 -0.11 0 -0.03 -0.11 0 -0.46 -0.14 0 -0.01 -0.03 0 -0.4 -0.12 0 -0.02 -0.09 0 -0.48 -0.14 0 -0 -0 0c-1.29,-0.37 -2.58,-0.75 -3.86,-1.14l0 -0 -0.01 0c-0.62,-0.19 -1.24,-0.38 -1.85,-0.57l0 -0 -0.01 0 -0.42 -0.13 0 -0.01 -0.04 0 -0.38 -0.12 0 -0.02 -0.08 0c-0.45,-0.14 -0.9,-0.29 -1.35,-0.43l0 -0 -0 0 -0.43 -0.14 0 -0 -0.02 0 -0.41 -0.13 0 -0.01 -0.03 0 -0.4 -0.13 0 -0.01 -0.04 0c-1.71,-0.55 -3.41,-1.12 -5.11,-1.7l0 -0.02 -0.06 0 -0.37 -0.13 0 -0.02 -0.05 0 -0.38 -0.13 0 -0.01 -0.04 0 -0.39 -0.13 0 -0.01 -0.03 0 -0.39 -0.14 0 -0 -0.01 0c-0.52,-0.18 -1.04,-0.37 -1.56,-0.56l0 -0.02 -0.05 0 -0.38 -0.14 0 -0.01 -0.02 0c-1.19,-0.42 -2.37,-0.85 -3.56,-1.29l0 0 -0 0 -1.14 -0.42 0 -0 -0.01 0 -0.7 -0.26 0 -0.03 -0.07 0 -0.36 -0.13 0 -0.01 -0.02 0 -0.69 -0.26 0 -0.03 -0.07 0 -0.36 -0.14 0 -0 -0 0 -0.71 -0.28 0 -0.01 -0.03 0c-0.61,-0.23 -1.22,-0.47 -1.83,-0.71l0 -0 -0.01 0c-0.95,-0.37 -1.9,-0.75 -2.85,-1.14l0 -0.01 -0.02 0 -0.69 -0.28 0 -0.01 -0.02 0 -0.7 -0.28 0 -0 -0.01 0c-0.23,-0.1 -0.47,-0.19 -0.71,-0.29l0 -0 -0 0 -0.28 -0.12 0 -0.03 -0.06 0c-0.22,-0.09 -0.43,-0.19 -0.65,-0.28l0 -0.01 -0.03 0c-0.33,-0.14 -0.65,-0.27 -0.97,-0.41l0 -0.02 -0.05 0 -0.67 -0.28 0 -0 -0.01 0c-1,-0.42 -2,-0.85 -3,-1.28l0 -0 -0.01 0 -1.28 -0.56 0 -0.01 -0.03 0c-0.32,-0.14 -0.65,-0.28 -0.97,-0.42l0 -0 -0.01 0 -0.27 -0.12 0 -0.02 -0.05 0c-0.32,-0.14 -0.63,-0.29 -0.95,-0.43l0 -0 -0 0 -0.28 -0.13 0 -0.02 -0.03 0c-0.42,-0.19 -0.84,-0.38 -1.26,-0.57l0 -0 -0 0c-0.52,-0.24 -1.05,-0.47 -1.57,-0.72l0 -0 -0 0c-0.81,-0.37 -1.62,-0.76 -2.43,-1.14l0 -0 -0.01 0 -0.28 -0.13 0 -0.01 -0.02 0 -0.26 -0.12 0 -0.02 -0.04 0c-0.9,-0.42 -1.79,-0.85 -2.68,-1.29l0 -0 -0 0 -0.28 -0.14 0 -0 -0.01 0 -0.28 -0.13 0 -0.01 -0.01 0 -0.27 -0.13 0 -0.01 -0.02 0 -0.26 -0.13 0 -0.01 -0.03 0c-1.24,-0.61 -2.47,-1.22 -3.69,-1.84l0 -0.02 -0.03 0 -0.25 -0.13 0 -0.01 -0.03 0 -0.26 -0.13 0 -0.01 -0.02 0 -0.26 -0.13 0 -0.01 -0.02 0 -0.26 -0.13 0 -0.01 -0.02 0 -0.27 -0.14 0 -0.01 -0.01 0 -0.27 -0.14 0 -0 -0.01 0 -0.28 -0.14 0 0 -0 0c-0.81,-0.42 -1.62,-0.85 -2.43,-1.28l0 -0.01 -0.02 0 -0.26 -0.14 0 -0 -0.01 0c-0.72,-0.38 -1.43,-0.76 -2.14,-1.14l0 -0.01 -0.01 0c-0.52,-0.28 -1.04,-0.56 -1.56,-0.85l0 -0.01 -0.02 0c-0.42,-0.23 -0.85,-0.45 -1.27,-0.69l0 -0.03 -0.05 0 -0.23 -0.13 0 -0.01 -0.02 0c-0.33,-0.18 -0.65,-0.37 -0.98,-0.55l0 -0.02 -0.04 0 -0.24 -0.14 0 -0.01 -0.01 0c-1.1,-0.61 -2.19,-1.23 -3.28,-1.86l0 -0.01 -0.01 0c-0.57,-0.33 -1.14,-0.66 -1.71,-0.99l0 -0.01 -0.02 0 -0.69 -0.4 0 -0.03 -0.05 0 -0.24 -0.14 0 -0.01 -0.01 0 -0.71 -0.41 0 -0.01 -0.02 0c-0.23,-0.14 -0.46,-0.28 -0.69,-0.41l0 -0.01 -0.02 0 -0.69 -0.41 0 -0.02 -0.03 0c-0.95,-0.57 -1.89,-1.13 -2.84,-1.71l0 -0.01 -0.01 0c-0.38,-0.23 -0.76,-0.47 -1.13,-0.7l0 -0.02 -0.02 0 -0.69 -0.43 0 -0 -0 0 -0.42 -0.26 0 -0.02 -0.04 0c-0.22,-0.14 -0.45,-0.28 -0.68,-0.42l0 -0.01 -0.02 0 -0.41 -0.26 0 -0.03 -0.04 0c-0.23,-0.14 -0.45,-0.29 -0.67,-0.43l0 0 0 0 -0.43 -0.27 0 -0.01 -0.02 0c-1.34,-0.85 -2.67,-1.71 -3.99,-2.57l0 -0 -0.01 0 -0.42 -0.28 0 -0.01 -0.01 0 -0.42 -0.27 0 -0.01 -0.02 0 -0.41 -0.27 0 -0.02 -0.03 0 -0.4 -0.27 0 -0.02 -0.03 0 -0.4 -0.26 0 -0.02 -0.03 0c-0.13,-0.09 -0.26,-0.18 -0.39,-0.27l0 -0.02 -0.03 0 -0.4 -0.27 0 -0.01 -0.02 0 -0.41 -0.28 0 -0.01 -0.02 0 -0.41 -0.28 0 -0.01 -0.01 0 -0.42 -0.29 0 -0 -0 0c-1.25,-0.85 -2.49,-1.7 -3.72,-2.56l0 -0.01 -0.02 0 -0.41 -0.28 0 -0 -0 0c-0.19,-0.13 -0.38,-0.26 -0.57,-0.4l0 -0.03 -0.05 0 -0.38 -0.27 0 -0.02 -0.03 0c-0.33,-0.23 -0.65,-0.47 -0.97,-0.7l0 -0.01 -0.02 0 -0.98 -0.7 0 -0.01 -0.02 0c-0.86,-0.61 -1.71,-1.23 -2.56,-1.86l0 -0 -0 0 -0.57 -0.42 0 -0.01 -0.01 0 -0.56 -0.41 0 -0.02 -0.02 0 -0.55 -0.41 0 -0.02 -0.03 0 -0.54 -0.4 0 -0.03 -0.04 0 -0.53 -0.4 0 -0.03 -0.04 0c-0.18,-0.13 -0.35,-0.27 -0.53,-0.4l0 -0.03 -0.03 0 -0.54 -0.41 0 -0.02 -0.02 0 -0.55 -0.42 0 -0.01 -0.02 0 -0.56 -0.42 0 -0.01 -0.01 0 -0.56 -0.43 0 0 -0 0c-0.43,-0.33 -0.86,-0.66 -1.29,-1l0 -0.01 -0.01 0c-0.43,-0.33 -0.85,-0.67 -1.28,-1l-0.72 -0.56 0 -0.01 -0.01 0c-0.23,-0.18 -0.47,-0.36 -0.7,-0.55l0 -0.02 -0.03 0c-0.23,-0.18 -0.46,-0.37 -0.68,-0.55l0 -0.02 -0.03 0 -0.69 -0.56 0 -0.02 -0.02 0 -0.69 -0.56 0 -0.01 -0.02 0c-1.05,-0.85 -2.09,-1.7 -3.13,-2.56l0 -0.01 -0.02 0 -0.84 -0.7 0 -0.02 -0.02 0c-0.28,-0.23 -0.56,-0.46 -0.84,-0.69l0 -0.02 -0.03 0c-0.28,-0.23 -0.55,-0.47 -0.83,-0.71l0 -0.01 -0.01 0 -0.13 -0.12 0 -0.03 -0.03 0 -0.83 -0.7 0 -0.01 -0.01 0c-1.05,-0.9 -2.09,-1.8 -3.14,-2.71l0 -0.01 -0.01 0c-0.38,-0.33 -0.76,-0.66 -1.13,-0.99l0 -0.01 -0.01 0 -0.13 -0.12 0 -0.03 -0.03 0c-0.37,-0.33 -0.74,-0.66 -1.12,-0.99l0 -0.01 -0.01 0 -0.13 -0.12 0 -0.02 -0.03 0c-0.42,-0.38 -0.84,-0.76 -1.26,-1.14l0 -0.01 -0.01 0c-1.15,-1.04 -2.29,-2.09 -3.43,-3.14l0 -0.01 -0.01 0 -0.14 -0.13 0 -0.02 -0.02 0 -0.12 -0.11 0 -0.03 -0.03 0c-0.66,-0.62 -1.32,-1.24 -1.97,-1.86l0 -0 -0 0 -0.14 -0.13 0 -0.01 -0.01 0 -0.13 -0.13 0 -0.02 -0.02 0c-1.29,-1.23 -2.58,-2.47 -3.85,-3.72l0 -0 -0 0 -0.14 -0.14 0 -0 -0.01 0 -0.14 -0.14 0 -0.01 -0.01 0 -0.14 -0.13 0 -0.01 -0.01 0 -0.13 -0.13 0 -0.01 -0.01 0 -0.13 -0.13 0 -0.02 -0.02 0 -0.13 -0.12 0 -0.02 -0.02 0 -0.12 -0.12 0 -0.02 -0.02 0 -0.12 -0.12 0 -0.03 -0.03 0 -0.12 -0.12 0 -0.03 -0.02 0 -0.12 -0.12 0 -0.02 -0.02 0 -0.12 -0.12 0 -0.02 -0.02 0 -0.12 -0.12 0 -0.02 -0.02 0 -0.12 -0.12 0 -0.02 -0.02 0 -0.12 -0.12 0 -0.02 -0.02 0 -0.12 -0.12 0 -0.02 -0.02 0 -0.12 -0.12 0 -0.02 -0.02 0 -0.12 -0.13 0 -0.02 -0.02 0 -0.13 -0.13 0 -0.02 -0.02 0 -0.13 -0.13 0 -0.01 -0.02 0 -0.13 -0.13 0 -0.01 -0.02 0 -0.13 -0.13 0 -0.01 -0.01 0 -0.13 -0.13 0 -0.01 -0.01 0 -0.13 -0.13 0 -0.01 -0.01 0 -0.13 -0.13 0 -0.01 -0.01 0 -0.13 -0.13 0 -0.01 -0.01 0c-0.28,-0.29 -0.57,-0.57 -0.85,-0.86l0 -0 -0 0c-1.01,-1.03 -2.01,-2.07 -3,-3.11l0 -0.04 -0.04 0 -0.11 -0.11 0 -0.03 -0.03 0 -0.11 -0.12 0 -0.02 -0.02 0 -0.12 -0.13 0 -0.01 -0.01 0 -0.13 -0.14 0 -0 -0 0c-0.77,-0.81 -1.53,-1.62 -2.29,-2.43l0 0 0 0c-0.48,-0.52 -0.95,-1.04 -1.43,-1.56l0 -0.01 -0.01 0 -0.13 -0.14 0 -0 -0 0c-0.38,-0.42 -0.76,-0.83 -1.14,-1.25l0 -0.04 -0.03 0 -0.11 -0.12 0 -0.02 -0.02 0 -0.12 -0.13 0 -0.01 -0.01 0c-0.38,-0.42 -0.76,-0.85 -1.14,-1.27l0 -0.02 -0.02 0 -0.13 -0.14 0 0 0 0c-0.38,-0.43 -0.76,-0.86 -1.14,-1.29l0 -0 -0 0c-0.91,-1.03 -1.82,-2.07 -2.72,-3.12l0 -0.03 -0.03 0 -0.12 -0.14 0 -0.01 -0.01 0c-0.23,-0.27 -0.47,-0.55 -0.71,-0.82l0 -0.04 -0.03 0 -0.11 -0.13 0 -0.02 -0.01 0c-0.24,-0.28 -0.47,-0.56 -0.7,-0.83l0 -0.02 -0.02 0c-0.28,-0.33 -0.56,-0.67 -0.84,-1l0 -0 -0 0c-0.91,-1.09 -1.82,-2.18 -2.72,-3.28l0 -0.01 -0.01 0 -0.56 -0.69 0 -0.03 -0.02 0c-0.18,-0.22 -0.37,-0.45 -0.55,-0.67l0 -0.05 -0.04 0 -0.11 -0.13 0 -0.01 -0.01 0c-0.19,-0.23 -0.37,-0.47 -0.56,-0.7l0 -0.01 -0.01 0c-0.19,-0.23 -0.37,-0.47 -0.56,-0.71l0 -0.01 -0.01 0 -0.57 -0.71 0 -0 -0 0c-0.4,-0.5 -0.8,-1 -1.19,-1.5 0.16,-0.5 0.31,-1 0.47,-1.51l0.01 0 0 -0.03 0.13 -0.4 0.02 0 0 -0.05 0.12 -0.37 0.03 0 0 -0.08 0.11 -0.35 0.03 0 0 -0.1 0.11 -0.33 0.03 0 0 -0.11 0.1 -0.32 0.04 0 0 -0.12 0.1 -0.31 0.04 0 0 -0.14 0.09 -0.29 0.05 0 0 -0.15 0.09 -0.28 0.05 0 0 -0.16 0.09 -0.27 0.05 0 0 -0.16 0.09 -0.27 0.05 0 0 -0.16 0.14 -0.42 0 0 0 -0.01 0.14 -0.42 0 0 0 -0.01 0.14 -0.42 0 0 0 -0 0.14 -0.42 0 0 0 -0c0.33,-0.96 0.66,-1.91 1,-2.86l0 0 0 -0.02c0.13,-0.38 0.27,-0.75 0.4,-1.13l0.02 0 0 -0.07 0.13 -0.36 0.02 0 0 -0.04 0.14 -0.38 0 0 0 -0.01 0.1 -0.27 0.04 0 0 -0.12 0.12 -0.31 0.03 0 0 -0.08 0.13 -0.35 0.01 0 0 -0.03 0.09 -0.25 0.05 0 0 -0.14 0.11 -0.29 0.03 0 0 -0.09 0.12 -0.34 0.02 0 0 -0.05 0.14 -0.38 0 0 0 -0.01 0.11 -0.28 0.04 0 0 -0.1 0.13 -0.33 0.02 0 0 -0.04 0.26 -0.67 0.03 0 0 -0.08 0.13 -0.35 0.01 0 0 -0.03 0.27 -0.69 0.02 0 0 -0.05c0.14,-0.36 0.29,-0.73 0.43,-1.09l0 0 0 -0c0.28,-0.72 0.57,-1.43 0.85,-2.14l0 0 0 -0.01 0.28 -0.7 0 0 0 -0.01 0.11 -0.28 0.03 0 0 -0.08 0.26 -0.64 0.02 0 0 -0.06 0.27 -0.66 0.01 0 0 -0.03 0.11 -0.25 0.04 0 0 -0.09 0.14 -0.34 0 0 0 -0.01 0.12 -0.28 0.03 0 0 -0.06 0.09 -0.22 0.05 0 0 -0.12 0.13 -0.31 0.01 0 0 -0.03 0.11 -0.26 0.03 0 0 -0.08 0.27 -0.64 0.01 0 0 -0.03 0.11 -0.26 0.03 0 0 -0.08 0.27 -0.64 0.01 0 0 -0.03 0.11 -0.25 0.03 0 0 -0.08 0.28 -0.64 0 0 0 -0.01c0.37,-0.86 0.75,-1.71 1.14,-2.57l0.01 0 0 -0.01 0.12 -0.27 0.02 0 0 -0.04c0.19,-0.41 0.37,-0.83 0.56,-1.24l0.01 0 0 -0.02 0.12 -0.27 0.02 0 0 -0.04 0.11 -0.24 0.03 0 0 -0.07 0.1 -0.22 0.04 0 0 -0.09 0.09 -0.2 0.05 0 0 -0.11 0.28 -0.6 0.01 0 0 -0.01 0.13 -0.27 0.02 0 0 -0.03 0.12 -0.25 0.02 0 0 -0.05 0.11 -0.24 0.03 0 0 -0.06 0.1 -0.22 0.04 0 0 -0.08 0.1 -0.2 0.04 0 0 -0.1c0.19,-0.4 0.38,-0.8 0.57,-1.19l0 0 0 -0.01 0.14 -0.28 0.01 0 0 -0.02 0.13 -0.27 0.01 0 0 -0.02 0.13 -0.26 0.02 0 0 -0.03 0.12 -0.25 0.02 0 0 -0.04c0.51,-1.04 1.02,-2.08 1.54,-3.11l0.03 0 0 -0.07 0.11 -0.21 0.03 0 0 -0.07 0.11 -0.22 0.03 0 0 -0.06 0.11 -0.22 0.03 0 0 -0.06 0.12 -0.23 0.02 0 0 -0.05 0.12 -0.24 0.02 0 0 -0.04 0.12 -0.24 0.02 0 0 -0.04 0.13 -0.25 0.01 0 0 -0.03 0.13 -0.26 0.01 0 0 -0.02 0.13 -0.26 0.01 0 0 -0.02 0.14 -0.27 0 0 0 -0c0.17,-0.33 0.35,-0.66 0.52,-1l0.05 0 0 -0.09 0.1 -0.19 0.04 0 0 -0.08 0.11 -0.2 0.03 0 0 -0.07 0.11 -0.22 0.03 0 0 -0.05 0.12 -0.23 0.02 0 0 -0.04 0.13 -0.25 0.01 0 0 -0.02 0.14 -0.27 0 0c0.33,-0.62 0.67,-1.24 1,-1.86l0 0c0.18,-0.34 0.37,-0.67 0.55,-1l0.02 0 0 -0.04 0.14 -0.25 0.01 0 0 -0.01c0.18,-0.33 0.36,-0.66 0.55,-0.99l0.03 0 0 -0.05 0.13 -0.24 0.01 0 0 -0.02 0.39 -0.7 0.04 0 0 -0.06 0.13 -0.22 0.02 0 0 -0.03 0.14 -0.25 0.24 -0.43 0.04 0 0 -0.08 0.12 -0.21 0.02 0 0 -0.04 0.14 -0.24 0 0 0 -0 0.24 -0.42 0.04 0 0 -0.07 0.12 -0.21 0.02 0 0 -0.03 0.39 -0.68 0.04 0 0 -0.06 0.13 -0.22 0.02 0 0 -0.03c0.13,-0.23 0.27,-0.46 0.4,-0.69l0.02 0 0 -0.04 0.56 -0.96 0.01 0 0 -0.01c0.28,-0.47 0.56,-0.95 0.85,-1.42l0.01 0 0 -0.02 0.42 -0.7 0.01 0 0 -0.02 0.25 -0.41 0.04 0 0 -0.06 0.13 -0.22 0.01 0 0 -0.01 0.25 -0.41 0.03 0 0 -0.05 0.41 -0.67 0.02 0 0 -0.03 0.25 -0.4 0.04 0 0 -0.07 0.13 -0.22 0.01 0 0 -0.01 0.26 -0.42 0.03 0 0 -0.05 0.24 -0.38 0.04 0 0 -0.07 0.14 -0.22 0.01 0 0 -0.01 0.26 -0.42 0.02 0 0 -0.04 0.25 -0.39 0.04 0 0 -0.06 0.14 -0.22 0 0 0 -0 0.27 -0.42 0.02 0 0 -0.03 0.26 -0.4 0.03 0 0 -0.04 0.71 -1.1 0.01 0 0 -0.01c0.46,-0.72 0.93,-1.43 1.4,-2.14l0.03 0 0 -0.05 0.25 -0.38 0.04 0 0 -0.06 0.25 -0.37 0.04 0 0 -0.05 0.25 -0.37 0.03 0 0 -0.05 0.25 -0.38 0.03 0 0 -0.05 0.26 -0.38 0.03 0 0 -0.05 0.26 -0.38 0.03 0 0 -0.04 0.26 -0.39 0.02 0 0 -0.03 0.27 -0.4 0.01 0 0 -0.02 0.28 -0.41 0 0 0 -0.01 0.09 -0.13 0.05 0 0 -0.07 0.24 -0.36 0.04 0 0 -0.06 0.25 -0.37 0.03 0 0 -0.05 0.27 -0.38 0.02 0 0 -0.03 0.28 -0.4 0.01 0 0 -0.01c0.33,-0.48 0.66,-0.95 1,-1.42l0 0 0 -0c0.24,-0.33 0.48,-0.67 0.72,-1l0 0 0 -0 0.41 -0.57 0.02 0 0 -0.03 0.29 -0.4 0 0 0 0 0.1 -0.14 0.04 0 0 -0.05 0.27 -0.38 0.01 0 0 -0.02 0.09 -0.13 0.05 0 0 -0.07 0.26 -0.36 0.02 0 0 -0.03 0.39 -0.54 0.03 0 0 -0.05 0.28 -0.38 0.01 0 0 -0.01 0.1 -0.13 0.04 0 0 -0.06 0.28 -0.37 0.01 0 0 -0.01 0.1 -0.13 0.05 0 0 -0.06 0.27 -0.37 0.01 0 0 -0.02 0.09 -0.13 0.05 0 0 -0.07 0.27 -0.36 0.02 0 0 -0.02 0.41 -0.55 0.01 0 0 -0.02 0.42 -0.55 0.01 0 0 -0.01 0.43 -0.56 0 0 0 -0c0.33,-0.43 0.66,-0.86 0.99,-1.29l0.02 0 0 -0.02 0.43 -0.55 0 0 0 -0 0.11 -0.14 0.03 0 0 -0.04 0.41 -0.53 0.02 0 0 -0.02 0.09 -0.12 0.05 0 0 -0.06 0.4 -0.51 0.03 0 0 -0.03 0.43 -0.54 0 0 0 -0 0.11 -0.14 0.03 0 0 -0.04 0.42 -0.53 0.01 0 0 -0.01 0.1 -0.13 0.04 0 0 -0.05 0.42 -0.52 0.01 0 0 -0.01 0.11 -0.14 0.03 0 0 -0.04 0.43 -0.53 0 0 0 -0 0.11 -0.14 0.03 0 0 -0.04 0.55 -0.68 0.02 0 0 -0.02 0.57 -0.69 0 0 0 -0.01c0.47,-0.57 0.94,-1.14 1.42,-1.71l0.01 0 0 -0.01 0.71 -0.84 0.01 0 0 -0.01 0.11 -0.13 0.03 0 0 -0.04 0.7 -0.82 0.02 0 0 -0.02 0.11 -0.12 0.04 0 0 -0.04 0.7 -0.81 0.02 0 0 -0.02 0.1 -0.12 0.04 0 0 -0.04 0.08 -0.1 0.06 0 0 -0.07 0.56 -0.65 0.01 0 0 -0.01 0.11 -0.13 0.03 0 0 -0.03 0.1 -0.11 0.05 0 0 -0.06 0.7 -0.8 0.01 0 0 -0.02 0.11 -0.13 0.03 0 0 -0.04 0.09 -0.11 0.05 0 0 -0.06c0.24,-0.27 0.48,-0.54 0.71,-0.8l0 0 0 -0 0.13 -0.14 0.02 0 0 -0.02c0.85,-0.95 1.7,-1.9 2.57,-2.84l0.01 0 0 -0.01 0.12 -0.13 0.02 0 0 -0.02 0.11 -0.12 0.03 0 0 -0.03 0.1 -0.11 0.04 0 0 -0.05 0.09 -0.1 0.05 0 0 -0.06c0.38,-0.41 0.76,-0.82 1.14,-1.23l0.01 0 0 -0.01 0.13 -0.14 0.02 0 0 -0.02 0.12 -0.13 0.02 0 0 -0.03 0.11 -0.12 0.03 0 0 -0.03 0.1 -0.11 0.04 0 0 -0.04 0.1 -0.1 0.05 0 0 -0.05 0.09 -0.09 0.06 0 0 -0.06c0.57,-0.6 1.14,-1.2 1.71,-1.8l0 0 0 -0 0.13 -0.14 0.01 0 0 -0.01 0.13 -0.14 0.01 0 0 -0.01 0.12 -0.13 0.02 0 0 -0.02c1.63,-1.69 3.28,-3.35 4.95,-4.99l0.07 0 0 -0.06 0.08 -0.08 0.06 0 0 -0.06 0.08 -0.08 0.06 0 0 -0.06 0.09 -0.08 0.06 0 0 -0.06 0.09 -0.09 0.05 0 0 -0.05 0.09 -0.09 0.05 0 0 -0.05 0.1 -0.09 0.05 0 0 -0.05 0.1 -0.1 0.05 0 0 -0.04 0.1 -0.1 0.04 0 0 -0.04 0.11 -0.1 0.04 0 0 -0.04 0.11 -0.11 0.03 0 0 -0.03 0.12 -0.11 0.03 0 0 -0.02 0.12 -0.12 0.02 0 0 -0.02 0.13 -0.12 0.01 0 0 -0.01 0.13 -0.13 0.01 0 0 -0.01 0.14 -0.14 0 0 0 -0c0.75,-0.72 1.5,-1.44 2.26,-2.15l0.03 0 0 -0.03 0.12 -0.11 0.02 0 0 -0.02 0.13 -0.12 0.01 0 0 -0.01 0.14 -0.13 0.01 0 0 -0.01c0.41,-0.38 0.82,-0.76 1.23,-1.14l0.06 0 0 -0.05 0.1 -0.09 0.05 0 0 -0.04 0.11 -0.1 0.03 0 0 -0.03 0.12 -0.11 0.02 0 0 -0.02 0.13 -0.12 0.01 0 0 -0.01c0.36,-0.33 0.73,-0.66 1.09,-0.99l0.05 0 0 -0.05 0.11 -0.09 0.04 0 0 -0.04 0.12 -0.11 0.02 0 0 -0.02 0.13 -0.12 0.01 0 0 -0.01c0.37,-0.33 0.74,-0.66 1.11,-0.99l0.04 0 0 -0.03 0.13 -0.11 0.02 0 0 -0.02 0.14 -0.13c0.7,-0.62 1.41,-1.24 2.12,-1.86l0.03 0 0 -0.03 0.13 -0.12 0.01 0 0 -0.01 0.81 -0.71 0.05 0 0 -0.04 0.12 -0.1 0.02 0 0 -0.02 0.65 -0.55 0.07 0 0 -0.06 0.1 -0.09 0.04 0 0 -0.04 0.13 -0.11 0.02 0 0 -0.02 0.65 -0.56 0.06 0 0 -0.05 0.11 -0.09 0.04 0 0 -0.03 0.14 -0.11 0.01 0 0 -0.01 0.5 -0.42 0.07 0 0 -0.06 0.1 -0.09 0.04 0 0 -0.03 0.13 -0.11 0.01 0 0 -0.01 0.67 -0.56 0.05 0 0 -0.04 0.13 -0.1 0.02 0 0 -0.01c0.23,-0.19 0.45,-0.37 0.68,-0.56l0.03 0 0 -0.03 0.14 -0.11 0 0 0 -0c0.52,-0.43 1.05,-0.86 1.57,-1.29l0 0 0 -0 0.71 -0.57 0 0 0 -0 0.53 -0.42 0.05 0 0 -0.04 0.13 -0.11 0.01 0 0 -0.01c0.18,-0.14 0.36,-0.28 0.53,-0.42l0.04 0 0 -0.03 0.14 -0.11 0 0 0 -0 0.36 -0.28 0.07 0 0 -0.05 0.11 -0.09 0.03 0 0 -0.02 0.51 -0.4 0.06 0 0 -0.05 0.12 -0.1 0.02 0 0 -0.02 0.53 -0.41 0.04 0 0 -0.03 0.51 -0.4 0.06 0 0 -0.04 0.12 -0.1 0.02 0 0 -0.01 0.54 -0.41 0.03 0 0 -0.03 0.53 -0.4 0.05 0 0 -0.04 0.14 -0.11 0 0 0 -0 0.56 -0.43 0.01 0 0 -0.01c0.35,-0.26 0.7,-0.53 1.05,-0.79 0.41,-0.31 0.82,-0.61 1.23,-0.92l0.01 0 0 -0.01 0.57 -0.42 0.01 0 0 -0c0.32,-0.24 0.64,-0.48 0.97,-0.71l0.04 0 0 -0.03 0.56 -0.4 0.02 0 0 -0.01c0.52,-0.38 1.05,-0.76 1.57,-1.13l0 0 0 -0 1 -0.71 0 0 0 0c0.47,-0.34 0.95,-0.67 1.42,-1l0.01 0 0 -0 0.4 -0.28 0.03 0 0 -0.02c0.47,-0.33 0.95,-0.66 1.42,-0.98l0.01 0 0 -0 0.41 -0.28 0.02 0 0 -0.01c1.41,-0.96 2.83,-1.91 4.26,-2.85l0.04 0 0 -0.02 0.4 -0.26 0.03 0 0 -0.02 0.41 -0.27 0.02 0 0 -0.01 0.42 -0.27 0.01 0 0 -0c0.67,-0.43 1.33,-0.86 2.01,-1.29l0 0 0 0 1.13 -0.72 0.01 0 0 -0.01c0.38,-0.24 0.76,-0.47 1.14,-0.71l0.01 0 0 -0 0.69 -0.42 0.03 0 0 -0.02c0.38,-0.23 0.76,-0.47 1.14,-0.7l0.01 0 0 -0 0.7 -0.43 0.01 0 0 -0.01c0.47,-0.29 0.94,-0.57 1.42,-0.85l0.01 0 0 -0.01 0.71 -0.42 0.01 0 0 -0c0.32,-0.19 0.64,-0.38 0.97,-0.57l0.03 0 0 -0.02 0.7 -0.41 0.02 0 0 -0.01 0.97 -0.56 0.03 0 0 -0.02c0.99,-0.57 1.99,-1.14 3,-1.7l0.01 0 0 -0c0.43,-0.24 0.85,-0.47 1.28,-0.71l0.01 0 0 -0 0.25 -0.14 0.03 0 0 -0.02c0.42,-0.23 0.85,-0.47 1.28,-0.7l0.01 0 0 -0.01 0.25 -0.14 0.03 0 0 -0.02c1.42,-0.77 2.85,-1.53 4.29,-2.27l0 0 0 0 0.27 -0.14 0.01 0 0 -0.01 0.26 -0.14 0.02 0 0 -0.01 0.26 -0.13 0.03 0 0 -0.01 0.25 -0.13 0.03 0 0 -0.02 0.25 -0.13 0.04 0 0 -0.02c1.32,-0.67 2.64,-1.33 3.97,-1.98l0.04 0 0 -0.02 0.26 -0.12 0.03 0 0 -0.01 0.26 -0.13 0.02 0 0 -0.01 0.27 -0.13 0.01 0 0 -0.01 0.28 -0.14 0 0 0 -0c1.51,-0.73 3.03,-1.44 4.55,-2.15l0.03 0 0 -0.01 0.28 -0.13 0 0 0 -0c0.42,-0.19 0.84,-0.38 1.26,-0.57l0.03 0 0 -0.01 0.28 -0.13 0 0 0 -0 0.96 -0.43 0.04 0 0 -0.02 0.28 -0.12 0.01 0 0 -0c1.09,-0.48 2.18,-0.96 3.28,-1.43l0.02 0 0 -0.01 0.99 -0.42 0.01 0 0 -0 0.67 -0.28 0.05 0 0 -0.02 0.99 -0.41 0.01 0 0 -0.01 0.68 -0.28 0.04 0 0 -0.02c0.57,-0.23 1.14,-0.47 1.72,-0.7l0 0 0 0c0.84,-0.34 1.68,-0.67 2.53,-1l0.05 0 0 -0.02 0.68 -0.27 0.03 0 0 -0.01 0.71 -0.27 0 0 0 -0c0.37,-0.14 0.75,-0.29 1.12,-0.43l0.02 0 0 -0.01c0.76,-0.29 1.52,-0.57 2.28,-0.85l0.01 0 0 -0c0.52,-0.19 1.04,-0.38 1.56,-0.57l0.02 0 0 -0.01 0.38 -0.14 0.05 0 0 -0.02c0.52,-0.19 1.04,-0.37 1.56,-0.56l0.01 0 0 -0 0.39 -0.14 0.04 0 0 -0.01c2.7,-0.94 5.42,-1.85 8.16,-2.71l0 0 0 -0c0.61,-0.19 1.23,-0.38 1.84,-0.57l0.02 0 0 -0c0.31,-0.1 0.62,-0.19 0.93,-0.28l0.07 0 0 -0.02 0.4 -0.12 0.02 0 0 -0.01 0.94 -0.28 0.06 0 0 -0.02 0.42 -0.12 0.01 0 0 -0 0.98 -0.28 0.03 0 0 -0.01c0.66,-0.19 1.32,-0.38 1.98,-0.56l0.02 0 0 -0.01 1 -0.28 0.53 -0.14 0.05 0 0 -0.01 1 -0.27 0.54 -0.14 0.04 0 0 -0.01 0.5 -0.13 0.07 0 0 -0.02c0.52,-0.14 1.05,-0.28 1.57,-0.41l0 0 0 -0c0.56,-0.15 1.12,-0.29 1.68,-0.43l0.04 0 0 -0.01 0.53 -0.13 0.04 0 0 -0.01 0.54 -0.13 0.03 0 0 -0.01 0.55 -0.13 0.02 0 0 -0 0.57 -0.14 0.01 0 0 -0c0.6,-0.15 1.2,-0.29 1.8,-0.43l0.06 0 0 -0.01 0.56 -0.13 0.02 0 0 -0c0.41,-0.09 0.81,-0.19 1.22,-0.28 -0.17,-0.14 -0.34,-0.29 -0.5,-0.43l0 -0 -0 0 -0.14 -0.12 0 -0.02 -0.03 0c-0.33,-0.28 -0.65,-0.56 -0.98,-0.85l0 -0.01 -0.01 0 -0.13 -0.12 0 -0.03 -0.03 0 -0.11 -0.1 0 -0.04 -0.04 0c-0.37,-0.33 -0.74,-0.66 -1.1,-1l0 -0 -0 0 -0.14 -0.13 0 -0.01 -0.01 0c-1.68,-1.55 -3.3,-3.17 -4.85,-4.84l0 -0.03 -0.02 0 -0.12 -0.13 0 -0.01 -0.01 0 -0.13 -0.14 0 0 -0 0c-0.38,-0.42 -0.77,-0.84 -1.14,-1.26l0 -0.03 -0.02 0 -0.12 -0.14 0 -0.01 -0 0c-0.53,-0.6 -1.05,-1.21 -1.57,-1.82l0 -0.04 -0.03 0 -0.11 -0.13 0 -0.01 -0.01 0c-0.19,-0.23 -0.38,-0.45 -0.56,-0.68l0 -0.03 -0.03 0 -0.12 -0.14 0 0 0 0 -0.43 -0.53 0 -0.04 -0.03 0 -0.11 -0.14 0 -0 -0 0c-0.48,-0.61 -0.96,-1.22 -1.43,-1.84l0 -0.02 -0.02 0 -0.41 -0.55 0 -0.02 -0.02 0c-0.14,-0.19 -0.28,-0.37 -0.41,-0.56l0 -0.01 -0.01 0 -0.27 -0.38 0 -0.05 -0.04 0c-0.13,-0.18 -0.26,-0.36 -0.39,-0.55l0 -0.03 -0.02 0c-0.43,-0.6 -0.85,-1.22 -1.27,-1.83l0 -0.03 -0.02 0 -0.27 -0.4 0 -0.03 -0.02 0 -0.26 -0.4 0 -0.03 -0.02 0 -0.27 -0.4 0 -0.02 -0.01 0 -0.27 -0.42 0 -0.01 -0 0c-0.69,-1.07 -1.35,-2.16 -2,-3.26l0 -0.04 -0.02 0c-0.14,-0.23 -0.27,-0.47 -0.41,-0.7l0 -0.01 -0 0 -0.14 -0.24 0 -0.04 -0.03 0c-0.48,-0.85 -0.95,-1.7 -1.41,-2.57l0 -0.01 -0.01 0 -0.14 -0.26 0 -0.02 -0.01 0 -0.13 -0.25 0 -0.03 -0.02 0 -0.13 -0.24 0 -0.04 -0.02 0 -0.12 -0.23 0 -0.05 -0.03 0 -0.12 -0.23 0 -0.05 -0.03 0 -0.12 -0.23 0 -0.05 -0.03 0 -0.12 -0.23 0 -0.05 -0.03 0 -0.12 -0.23 0 -0.05 -0.02 0c-0.38,-0.78 -0.76,-1.57 -1.12,-2.37l0 -0.07 -0.03 0 -0.11 -0.25 0 -0.04 -0.01 0 -0.13 -0.28 0 -0 -0 0 -0.28 -0.64 0 -0.07 -0.03 0 -0.11 -0.26 0 -0.03 -0.01 0c-0.14,-0.33 -0.28,-0.65 -0.42,-0.98l0 -0.02 -0.01 0c-0.19,-0.46 -0.38,-0.92 -0.56,-1.38l0 -0.05 -0.02 0c-0.09,-0.22 -0.18,-0.45 -0.27,-0.68l0 -0.04 -0.01 0c-0.09,-0.23 -0.18,-0.47 -0.27,-0.7l0 -0.01 -0.01 0 -0.14 -0.37 0 -0.06 -0.02 0c-0.09,-0.24 -0.18,-0.47 -0.26,-0.71l0 -0 -0 0 -0.14 -0.4 0 -0.03 -0.01 0c-0.29,-0.82 -0.58,-1.65 -0.85,-2.48l0 -0.1 -0.03 0 -0.11 -0.34 0 -0.09 -0.03 0 -0.11 -0.37 0 -0.06 -0.02 0 -0.12 -0.4 0 -0.03 -0.01 0c-0.25,-0.8 -0.48,-1.6 -0.71,-2.41l0 -0.02 -0.01 0 -0.14 -0.49 0 -0.08 -0.02 0 -0.12 -0.46 0 -0.12 -0.03 0 -0.11 -0.42 0 -0 0 0 -0.14 -0.56 0 -0.01 -0 0 -0.14 -0.56 0 -0.01 -0 0c-0.15,-0.61 -0.29,-1.22 -0.43,-1.83l0 -0.03 -0.01 0 -0.14 -0.62 0 -0.1 -0.02 0c-0.04,-0.19 -0.08,-0.39 -0.12,-0.58l0 -0.14 -0.03 0 -0.12 -0.56 0 -0.16 -0.03 0 -0.11 -0.59 0 -0.13 -0.02 0 -0.12 -0.64 0 -0.08 -0.01 0c-0.15,-0.83 -0.29,-1.66 -0.41,-2.49l0 -0.09 -0.01 0c-0.04,-0.29 -0.09,-0.58 -0.13,-0.88l0 -0.13 -0.02 0c-0.04,-0.31 -0.08,-0.62 -0.13,-0.94l0 -0.06 -0.01 0c-0.05,-0.37 -0.09,-0.73 -0.13,-1.1l0 -0.05 -0.01 0c-0.05,-0.42 -0.09,-0.84 -0.14,-1.26l0 -0.17 -0.02 0c-0.05,-0.45 -0.09,-0.89 -0.13,-1.34l0 -0.38 -0.03 0c-0.04,-0.51 -0.08,-1.03 -0.11,-1.55l0 -0.17 -0.01 0c-0.06,-0.92 -0.1,-1.84 -0.13,-2.76l0 -1.11 -0.03 0c-0.01,-0.65 -0.02,-1.31 -0.02,-1.97 0,-0.73 0.01,-1.46 0.03,-2.18l0.03 0 0 -0.78c0.03,-0.93 0.07,-1.87 0.13,-2.8l0.01 0 0 -0.17c0.04,-0.56 0.08,-1.13 0.12,-1.69l0.02 0 0 -0.24c0.08,-0.93 0.17,-1.85 0.28,-2.77l0.01 0 0 -0.08c0.04,-0.36 0.08,-0.71 0.12,-1.07l0.02 0 0 -0.13c0.04,-0.34 0.09,-0.67 0.14,-1.01l0 0 0 -0.01c0.09,-0.62 0.18,-1.24 0.28,-1.85l0.01 0 0 -0.04c0.04,-0.27 0.09,-0.55 0.14,-0.82l0.01 0 0 -0.04c0.05,-0.27 0.09,-0.55 0.14,-0.82l0 0 0 -0.01c0.04,-0.24 0.09,-0.47 0.14,-0.71l0.01 0 0 -0.04c0.14,-0.71 0.28,-1.41 0.43,-2.11l0 0 0 -0.01c0.09,-0.43 0.18,-0.86 0.28,-1.28l0.01 0 0 -0.04c0.04,-0.18 0.09,-0.36 0.13,-0.54l0.01 0 0 -0.05c0.31,-1.28 0.63,-2.55 0.99,-3.81l0.01 0 0 -0.05c0.09,-0.32 0.19,-0.64 0.28,-0.95l0 0 0 -0.01c0.18,-0.62 0.37,-1.24 0.57,-1.85l0 0 0 -0.01 0.14 -0.42 0.01 0 0 -0.02 0.13 -0.41 0.01 0 0 -0.03 0.13 -0.4 0.01 0 0 -0.04 0.13 -0.39 0.01 0 0 -0.03 0.14 -0.4 0 0 0 -0.01c0.32,-0.91 0.65,-1.82 0.99,-2.71l0.01 0 0 -0.03c0.09,-0.23 0.17,-0.46 0.26,-0.69l0.02 0 0 -0.06c0.09,-0.22 0.18,-0.43 0.27,-0.65l0.02 0 0 -0.05c0.36,-0.9 0.74,-1.79 1.13,-2.67l0.02 0 0 -0.04c0.14,-0.32 0.28,-0.64 0.43,-0.96l0 0 0 -0 0.13 -0.28 0.01 0 0 -0.02c1.05,-2.29 2.2,-4.53 3.43,-6.71l0.01 0 0 -0.01c0.19,-0.33 0.37,-0.66 0.56,-0.99l0.01 0 0 -0.01c0.42,-0.72 0.84,-1.43 1.28,-2.13l0.01 0 0 -0.01c0.23,-0.38 0.47,-0.76 0.71,-1.13l0.01 0 0 -0.01c0.09,-0.14 0.18,-0.28 0.27,-0.41l0.02 0 0 -0.03c0.56,-0.86 1.13,-1.71 1.71,-2.55l0 0 0 -0c0.23,-0.33 0.46,-0.67 0.7,-1l0.02 0 0 -0.02c0.24,-0.33 0.48,-0.65 0.72,-0.98l0 0 0 -0c0.28,-0.38 0.57,-0.76 0.86,-1.14l0 0 0 -0c0.33,-0.43 0.66,-0.86 0.99,-1.29l0.01 0 0 -0.01c0.19,-0.24 0.38,-0.47 0.56,-0.7l0.01 0 0 -0.01c0.42,-0.53 0.85,-1.05 1.29,-1.57l0 0 0 0c0.28,-0.34 0.56,-0.67 0.85,-1l0.01 0 0 -0.01 0.12 -0.13 0.03 0 0 -0.03c0.84,-0.96 1.7,-1.91 2.58,-2.83l0 0 0 -0 0.13 -0.14 0.01 0 0 -0.01 0.12 -0.13 0.02 0 0 -0.02 0.12 -0.12 0.02 0 0 -0.02 0.12 -0.12 0.03 0 0 -0.03c0.79,-0.82 1.59,-1.62 2.41,-2.41l0.03 0 0 -0.03 0.12 -0.12 0.02 0 0 -0.02 0.12 -0.12 0.02 0 0 -0.02 0.13 -0.12 0.01 0 0 -0.01 0.14 -0.13 0 0 0 -0c0.93,-0.88 1.87,-1.74 2.84,-2.58l0.03 0 0 -0.02 0.13 -0.12 0.01 0 0 -0.01c0.84,-0.73 1.7,-1.44 2.58,-2.14l0 0 0 -0c0.24,-0.19 0.47,-0.38 0.71,-0.57l0.01 0 0 -0c0.18,-0.14 0.37,-0.28 0.55,-0.42l0.02 0 0 -0.02c0.94,-0.73 1.89,-1.44 2.85,-2.13l0.01 0 0 -0.01 0.39 -0.28 0.03 0 0 -0.02c0.33,-0.23 0.66,-0.46 1,-0.69l0.01 0 0 -0c0.56,-0.39 1.13,-0.77 1.7,-1.14l0.01 0 0 -0.01c0.14,-0.09 0.28,-0.19 0.42,-0.28l0.01 0 0 -0.01c0.37,-0.24 0.75,-0.47 1.12,-0.71l0.02 0 0 -0.01c0.61,-0.38 1.23,-0.76 1.86,-1.13l0 0 0 -0c0.32,-0.19 0.64,-0.38 0.96,-0.57l0.04 0 0 -0.02c0.33,-0.19 0.66,-0.37 0.98,-0.55l0.02 0 0 -0.01c0.42,-0.24 0.85,-0.47 1.28,-0.71l0.01 0 0 -0c1.49,-0.8 3.01,-1.56 4.55,-2.29l0.03 0 0 -0.01 0.28 -0.13 0.01 0 0 -0c0.41,-0.19 0.83,-0.38 1.25,-0.57l0.04 0 0 -0.02c0.99,-0.44 1.99,-0.86 3,-1.27l0 0 0 -0c0.23,-0.09 0.47,-0.19 0.7,-0.29l0.01 0 0 -0c0.37,-0.15 0.75,-0.28 1.12,-0.43l0.02 0 0 -0.01c2.24,-0.85 4.53,-1.61 6.85,-2.28l0.02 0 0 -0.01c0.33,-0.1 0.66,-0.19 0.99,-0.28l0.01 0 0 -0 0.52 -0.14 0.05 0 0 -0.01c0.92,-0.25 1.84,-0.48 2.77,-0.7l0.1 0 0 -0.02 0.51 -0.12 0.06 0 0 -0.01c0.42,-0.1 0.83,-0.18 1.25,-0.27l0.03 0 0 -0.01c0.7,-0.15 1.4,-0.29 2.1,-0.42l0.04 0 0 -0.01c0.23,-0.04 0.47,-0.09 0.7,-0.14l0.16 0 0 -0.03c0.23,-0.04 0.46,-0.08 0.69,-0.12l0.02 0 0 -0c0.28,-0.05 0.56,-0.09 0.84,-0.14l0.02 0 0 -0c0.63,-0.1 1.27,-0.19 1.91,-0.28l0.1 0 0 -0.01c0.31,-0.04 0.62,-0.09 0.93,-0.13l0.22 0 0 -0.02c1.31,-0.16 2.63,-0.3 3.96,-0.4l0.19 0 0 -0.02c0.63,-0.05 1.26,-0.09 1.89,-0.13l0.11 0 0 -0.01c1.24,-0.07 2.48,-0.11 3.73,-0.14l0.71 0 0 -0.01c0.29,-0 0.57,-0.01 0.86,-0.01 0.29,0 0.57,0.01 0.86,0.01l0 0.01 0.71 0c1.25,0.02 2.49,0.07 3.73,0.14l0 0.01 0.11 0c0.63,0.04 1.26,0.08 1.89,0.13l0 0.02 0.19 0c1.33,0.11 2.65,0.24 3.96,0.4l0 0.02 0.22 0c0.31,0.04 0.62,0.09 0.93,0.13l0 0.01 0.1 0c0.64,0.09 1.28,0.18 1.91,0.28l0 0 0.02 0c0.28,0.04 0.56,0.09 0.84,0.14l0 0 0.02 0c0.23,0.04 0.46,0.07 0.69,0.12l0 0.03 0.16 0c0.24,0.04 0.47,0.09 0.7,0.14l0 0.01 0.04 0c0.71,0.13 1.41,0.27 2.1,0.42l0 0.01 0.03 0c0.42,0.09 0.84,0.18 1.26,0.27l0 0.01 0.06 0 0.51 0.12 0 0.02 0.1 0c0.93,0.22 1.85,0.45 2.77,0.7l0 0.01 0.05 0 0.52 0.14 0 0 0.01 0c0.33,0.09 0.66,0.18 1,0.28l0 0.01 0.02 0c2.32,0.67 4.61,1.44 6.85,2.28l0 0.01 0.02 0c0.37,0.14 0.75,0.28 1.12,0.43l0 0 0.01 0c0.24,0.09 0.47,0.19 0.7,0.29l0 0 0 0c1.01,0.41 2.01,0.83 3,1.27l0 0.02 0.04 0c0.42,0.19 0.84,0.38 1.25,0.57l0 0 0.01 0 0.28 0.13 0 0.01 0.03 0c1.54,0.72 3.06,1.48 4.55,2.29l0 0 0.01 0c0.43,0.23 0.85,0.47 1.28,0.71l0 0.01 0.02 0c0.33,0.19 0.66,0.37 0.98,0.55l0 0.02 0.04 0c0.32,0.19 0.64,0.38 0.96,0.57l0 0 0 0c0.62,0.37 1.24,0.75 1.86,1.13l0 0.01 0.02 0c0.37,0.23 0.75,0.47 1.12,0.71l0 0.01 0.01 0c0.14,0.09 0.28,0.19 0.42,0.28l0 0.01 0.01 0c0.57,0.37 1.14,0.75 1.7,1.14l0 0 0.01 0c0.33,0.23 0.67,0.46 1,0.69l0 0.02 0.03 0 0.39 0.28 0 0.01 0.01 0c0.97,0.69 1.92,1.4 2.85,2.13l0 0.02 0.02 0c0.18,0.14 0.37,0.28 0.55,0.42l0 0 0.01 0c0.24,0.19 0.47,0.38 0.71,0.57l0 0 0 0c0.87,0.7 1.73,1.41 2.58,2.14l0 0.01 0.01 0 0.14 0.12 0 0.02 0.03 0c0.96,0.84 1.91,1.7 2.84,2.58l0 0 0 0 0.14 0.13 0 0.01 0.01 0 0.13 0.12 0 0.02 0.02 0 0.12 0.12 0 0.02 0.02 0 0.12 0.12 0 0.03 0.03 0c0.82,0.79 1.62,1.59 2.41,2.41l0 0.03 0.03 0 0.12 0.12 0 0.02 0.02 0 0.12 0.12 0 0.02 0.02 0 0.12 0.13 0 0.01 0.01 0 0.13 0.14 0 0 0 0c0.88,0.93 1.74,1.87 2.58,2.83l0 0.03 0.03 0 0.12 0.13 0 0.01 0.01 0c0.29,0.33 0.57,0.67 0.85,1l0 0 0 0c0.43,0.52 0.86,1.04 1.29,1.57l0 0.01 0.01 0c0.19,0.23 0.38,0.47 0.56,0.7l0 0.01 0.01 0c0.33,0.42 0.66,0.86 0.99,1.29l0 0 0 0c0.29,0.38 0.57,0.76 0.86,1.14l0 0 0 0c0.24,0.33 0.48,0.65 0.72,0.98l0 0.02 0.02 0c0.24,0.33 0.47,0.66 0.7,1l0 0 0 0c0.58,0.84 1.16,1.69 1.72,2.55l0 0.03 0.02 0c0.09,0.14 0.18,0.28 0.27,0.41l0 0.01 0.01 0c0.24,0.37 0.47,0.75 0.71,1.13l0 0.01 0.01 0c0.44,0.7 0.86,1.42 1.28,2.13l0 0.01 0.01 0c0.19,0.33 0.38,0.66 0.56,0.99l0 0.01 0.01 0c1.23,2.18 2.38,4.42 3.43,6.71l0 0.02 0.01 0 0.13 0.28 0 0 0 0c0.15,0.32 0.29,0.64 0.43,0.96l0 0.04 0.02 0c0.39,0.88 0.76,1.77 1.13,2.67l0 0.05 0.02 0c0.09,0.22 0.18,0.43 0.27,0.65l0 0.06 0.02 0c0.09,0.23 0.17,0.46 0.26,0.69l0 0.03 0.01 0c0.34,0.9 0.68,1.8 0.99,2.71l0 0.01 0 0c0.05,0.13 0.09,0.27 0.14,0.4l0 0.03 0.01 0 0.13 0.39 0 0.04 0.01 0c0.04,0.13 0.09,0.27 0.13,0.4l0 0.03 0.01 0 0.13 0.41 0 0.02 0.01 0 0.14 0.42 0 0.01 0 0c0.2,0.62 0.39,1.23 0.57,1.85l0 0.01 0 0c0.09,0.32 0.19,0.63 0.28,0.95l0 0.05 0.01 0c0.36,1.26 0.68,2.53 0.99,3.81l0 0.05 0.01 0c0.04,0.18 0.09,0.36 0.13,0.54l0 0.03 0.01 0c0.1,0.42 0.19,0.85 0.28,1.28l0 0.01 0 0c0.15,0.7 0.29,1.4 0.43,2.11l0 0.04 0.01 0c0.04,0.24 0.09,0.47 0.14,0.71l0 0.01 0 0c0.05,0.27 0.1,0.54 0.14,0.82l0 0.04 0.01 0c0.05,0.27 0.09,0.55 0.14,0.82l0 0.04 0.01 0c0.1,0.61 0.19,1.23 0.28,1.85l0 0.01 0 0c0.05,0.34 0.1,0.67 0.14,1.01l0 0.13 0.02 0c0.05,0.36 0.08,0.71 0.13,1.07l0 0.08 0.01 0c0.11,0.92 0.2,1.84 0.28,2.77l0 0.24 0.02 0c0.05,0.56 0.09,1.13 0.12,1.69l0 0.17 0.01 0c0.06,0.93 0.1,1.86 0.13,2.8l0 0.78 0.03 0c0.02,0.73 0.03,1.45 0.03,2.18 0,0.66 -0.01,1.31 -0.02,1.97l-0.03 0 0 1.11c-0.03,0.92 -0.07,1.84 -0.13,2.76l-0.01 0 0 0.17c-0.03,0.52 -0.07,1.03 -0.11,1.55l-0.03 0 0 0.38c-0.04,0.45 -0.08,0.9 -0.13,1.34l-0.02 0 0 0.17c-0.04,0.42 -0.09,0.84 -0.14,1.26l-0 0 0 0.05c-0.04,0.37 -0.09,0.73 -0.14,1.1l-0.01 0 0 0.06c-0.04,0.31 -0.08,0.63 -0.13,0.94l-0.02 0 0 0.13c-0.04,0.29 -0.09,0.58 -0.13,0.88l-0.01 0 0 0.09c-0.13,0.83 -0.27,1.67 -0.42,2.49l-0.01 0 0 0.08 -0.12 0.64 -0.02 0 0 0.13 -0.11 0.59 -0.03 0 0 0.16c-0.04,0.19 -0.08,0.37 -0.12,0.56l-0.03 0 0 0.13 -0.12 0.58 -0.02 0 0 0.1 -0.14 0.61 -0.01 0 0 0.03c-0.14,0.61 -0.28,1.22 -0.43,1.83l-0 0 0 0.01 -0.14 0.56 -0 0 0 0.01 -0.14 0.56 -0 0 0 0.01 -0.11 0.42 -0.03 0 0 0.12 -0.12 0.46 -0.02 0 0 0.08 -0.14 0.49 -0.01 0 0 0.03c-0.22,0.81 -0.46,1.61 -0.71,2.41l-0.01 0 0 0.03 -0.12 0.4 -0.02 0 0 0.06 -0.11 0.37 -0.03 0 0 0.08 -0.11 0.35 -0.03 0 0 0.1c-0.27,0.83 -0.55,1.66 -0.85,2.48l-0.01 0 0 0.03 -0.14 0.39 -0 0 0 0.01c-0.09,0.24 -0.18,0.47 -0.26,0.71l-0.02 0 0 0.06 -0.14 0.37 -0.01 0 0 0.02c-0.09,0.23 -0.18,0.47 -0.27,0.7l-0.02 0 0 0.04c-0.27,0.71 -0.56,1.41 -0.85,2.11l-0.01 0 0 0.02c-0.14,0.33 -0.28,0.66 -0.42,0.98l-0.01 0 0 0.03 -0.11 0.26 -0.03 0 0 0.07 -0.28 0.64 -0 0 0 0 -0.13 0.28 -0.02 0 0 0.04c-0.41,0.9 -0.83,1.8 -1.26,2.68l-0.02 0 0 0.05 -0.12 0.23 -0.03 0 0 0.05 -0.12 0.23 -0.03 0 0 0.05 -0.12 0.23 -0.03 0 0 0.05 -0.12 0.23 -0.03 0 0 0.05 -0.12 0.23 -0.02 0 0 0.04 -0.13 0.24 -0.02 0 0 0.03 -0.13 0.25 -0.01 0 0 0.02 -0.14 0.26 -0.01 0 0 0.01c-0.33,0.62 -0.66,1.24 -1,1.85 -0.13,0.24 -0.27,0.48 -0.4,0.72l-0.03 0 0 0.05 -0.14 0.24 -0.01 0 0 0.01c-0.14,0.24 -0.27,0.47 -0.41,0.7l-0.02 0 0 0.04c-0.19,0.32 -0.38,0.64 -0.57,0.96 -0.46,0.77 -0.94,1.53 -1.43,2.29l-0.01 0 0 0.01 -0.27 0.42 -0.01 0 0 0.02 -0.27 0.4 -0.02 0 0 0.03 -0.26 0.4 -0.02 0 0 0.03 -0.27 0.4 -0.02 0 0 0.03c-0.42,0.62 -0.84,1.23 -1.27,1.83l-0.02 0 0 0.03c-0.13,0.18 -0.26,0.36 -0.39,0.55l-0.04 0 0 0.05 -0.27 0.38 -0.01 0 0 0.02c-0.14,0.19 -0.27,0.37 -0.41,0.56l-0.02 0 0 0.02 -0.41 0.55 -0.02 0 0 0.02c-0.47,0.62 -0.94,1.23 -1.43,1.84l-0 0 0 0 -0.11 0.14 -0.03 0 0 0.04 -0.43 0.53 -0 0 0 0 -0.11 0.14 -0.03 0 0 0.03c-0.19,0.23 -0.37,0.46 -0.56,0.68l-0.01 0 0 0.01c-0.56,0.67 -1.13,1.34 -1.71,2l-0.01 0 0 0.01 -0.12 0.13 -0.02 0 0 0.03c-0.38,0.42 -0.76,0.85 -1.14,1.26l0 0 0 0 -0.13 0.14 -0.01 0 0 0.01 -0.12 0.13 -0.02 0 0 0.03c-1.56,1.67 -3.18,3.29 -4.85,4.84l-0.01 0 0 0.01 -0.14 0.13 -0 0 0 0c-0.36,0.34 -0.73,0.67 -1.1,1l-0.05 0 0 0.04 -0.11 0.1 -0.03 0 0 0.03 -0.13 0.12 -0.01 0 0 0.01c-0.32,0.29 -0.65,0.57 -0.98,0.85l-0.02 0 0 0.02 -0.14 0.12 -0 0 0 0c-0.17,0.14 -0.34,0.29 -0.5,0.43 0.41,0.09 0.81,0.19 1.22,0.28l0 0 0.02 0 0.56 0.13 0 0.01 0.06 0c0.6,0.14 1.2,0.28 1.8,0.43l0 0 0.01 0 0.57 0.14 0 0 0.02 0 0.55 0.13 0 0.01 0.03 0 0.54 0.13 0 0.01 0.04 0 0.53 0.13 0 0.01 0.04 0c0.56,0.14 1.12,0.28 1.68,0.43l0 0 0 0c0.53,0.14 1.05,0.27 1.57,0.41l0 0.02 0.07 0 0.5 0.13 0 0.01 0.04 0 0.54 0.14 1 0.27 0 0.01 0.05 0 0.53 0.14 1 0.28 0 0.01 0.02 0c0.66,0.19 1.32,0.37 1.98,0.56l0 0.01 0.03 0 0.98 0.29 0 0 0.01 0 0.42 0.12 0 0.02 0.06 0 0.94 0.28 0 0.01 0.02 0 0.4 0.12 0 0.02 0.07 0c0.31,0.09 0.62,0.19 0.93,0.28l0 0 0.02 0c0.62,0.19 1.23,0.38 1.84,0.57l0 0 0 0c2.74,0.86 5.46,1.76 8.16,2.71l0 0.01 0.04 0 0.39 0.14 0 0 0.01 0c0.52,0.18 1.04,0.37 1.56,0.56l0 0.02 0.05 0 0.38 0.14 0 0.01 0.02 0c0.52,0.19 1.04,0.38 1.56,0.57l0 0 0.01 0c0.76,0.28 1.52,0.56 2.28,0.85l0 0.01 0.02 0c0.37,0.14 0.75,0.28 1.12,0.43l0 0 0 0 0.71 0.27 0 0.01 0.03 0 0.68 0.27 0 0.02 0.05 0c0.85,0.33 1.69,0.66 2.53,1l0 0 0 0c0.57,0.23 1.15,0.46 1.72,0.7l0 0.02 0.04 0 0.68 0.28 0 0.01 0.01 0 0.99 0.41 0 0.02 0.04 0 0.67 0.28 0 0 0.01 0 1 0.42 0 0.01 0.01 0c1.1,0.47 2.19,0.95 3.28,1.43l0 0 0.01 0 0.28 0.13 0 0.02 0.04 0 0.96 0.43 0 0 0 0 0.28 0.13 0 0.01 0.03 0c0.42,0.19 0.84,0.38 1.26,0.57l0 0 0 0 0.28 0.13 0 0.01 0.03 0c1.53,0.7 3.04,1.42 4.55,2.15l0 0 0 0 0.28 0.14 0 0.01 0.01 0 0.27 0.13 0 0.01 0.02 0 0.27 0.13 0 0.01 0.03 0 0.26 0.12 0 0.02 0.04 0c1.33,0.65 2.65,1.31 3.97,1.99l0 0.02 0.04 0 0.25 0.13 0 0.02 0.03 0 0.25 0.13 0 0.01 0.03 0 0.26 0.13 0 0.01 0.02 0 0.26 0.14 0 0.01 0.01 0 0.28 0.14 0 0 0 0c1.44,0.74 2.87,1.5 4.29,2.27l0 0.02 0.03 0 0.25 0.14 0 0.01 0.01 0c0.43,0.23 0.85,0.46 1.28,0.7l0 0.02 0.03 0 0.25 0.14 0 0 0 0c0.43,0.24 0.86,0.47 1.28,0.71l0 0 0.01 0c1,0.56 2,1.13 3,1.7l0 0.02 0.03 0 0.97 0.56 0 0.01 0.02 0 0.7 0.41 0 0.02 0.03 0 0.97 0.57 0 0 0.01 0 0.71 0.42 0 0.01 0.01 0c0.47,0.28 0.95,0.57 1.42,0.85l0 0.01 0.01 0 0.7 0.43 0 0 0.01 0c0.38,0.23 0.76,0.46 1.14,0.7l0 0.02 0.03 0 0.69 0.43 0 0 0.01 0c0.38,0.24 0.76,0.47 1.14,0.71l0 0.01 0.01 0c1.05,0.66 2.1,1.33 3.14,2l0 0 0 0 0.42 0.28 0 0.01 0.02 0 0.41 0.27 0 0.02 0.03 0 0.4 0.26 0 0.02 0.04 0c1.43,0.94 2.85,1.89 4.26,2.85l0 0.01 0.02 0 0.41 0.28 0 0 0.01 0c0.48,0.33 0.95,0.66 1.42,0.98l0 0.02 0.03 0 0.4 0.28 0 0 0.01 0c0.81,0.57 1.62,1.14 2.43,1.72l0 0 0 0c0.53,0.37 1.05,0.75 1.57,1.13l0 0.01 0.02 0 0.56 0.4 0 0.02 0.04 0c0.32,0.24 0.64,0.47 0.97,0.71l0 0 0.01 0 0.57 0.42 0 0.01 0.01 0c0.41,0.3 0.82,0.61 1.23,0.92 0.35,0.26 0.7,0.53 1.05,0.8l0 0.01 0.01 0 0.56 0.43 0 0 0 0 0.14 0.11 0 0.04 0.05 0 0.53 0.4 0 0.03 0.03 0 0.54 0.41 0 0.01 0.02 0 0.13 0.1 0 0.04 0.06 0 0.51 0.4 0 0.03 0.04 0 0.53 0.41 0 0.02 0.02 0 0.12 0.1 0 0.05 0.06 0 0.51 0.4 0 0.02 0.03 0 0.11 0.09 0 0.05 0.07 0 0.36 0.28 0 0 0 0 0.14 0.11 0 0.03 0.04 0 0.53 0.42 0 0.01 0.01 0 0.13 0.11 0 0.04 0.05 0 0.53 0.42 0 0 0.01 0 0.71 0.57 0 0 0 0c0.53,0.43 1.05,0.85 1.57,1.29l0 0 0 0 0.14 0.11 0 0.03 0.03 0c0.23,0.19 0.46,0.37 0.68,0.56l0 0.01 0.02 0 0.13 0.1 0 0.04 0.05 0 0.67 0.56 0 0.01 0.01 0 0.13 0.11 0 0.03 0.04 0 0.1 0.09 0 0.06 0.07 0 0.5 0.42 0 0.01 0.01 0 0.14 0.11 0 0.03 0.04 0 0.11 0.09 0 0.05 0.06 0c0.22,0.19 0.43,0.37 0.65,0.56l0 0.01 0.02 0 0.13 0.11 0 0.04 0.04 0 0.1 0.09 0 0.06 0.07 0 0.65 0.55 0 0.02 0.02 0 0.12 0.1 0 0.04 0.04 0 0.81 0.71 0 0.01 0.01 0 0.13 0.12 0 0.03 0.03 0c0.71,0.62 1.41,1.24 2.12,1.86l0.14 0.13 0 0.02 0.02 0 0.13 0.11 0 0.03 0.04 0c0.37,0.33 0.74,0.66 1.11,0.99l0 0.01 0.01 0 0.13 0.12 0 0.02 0.02 0 0.12 0.11 0 0.04 0.04 0 0.11 0.09 0 0.05 0.05 0c0.36,0.33 0.73,0.66 1.09,0.99l0 0.01 0.01 0 0.13 0.12 0 0.02 0.02 0 0.12 0.11 0 0.03 0.03 0 0.11 0.1 0 0.04 0.05 0 0.1 0.09 0 0.05 0.06 0c0.41,0.38 0.82,0.76 1.23,1.14l0 0.01 0.01 0 0.14 0.13 0 0.01 0.01 0 0.13 0.12 0 0.02 0.02 0 0.12 0.11 0 0.03 0.03 0c0.76,0.71 1.51,1.43 2.26,2.15l0 0 0 0 0.14 0.14 0 0.01 0.01 0 0.13 0.13 0 0.01 0.01 0 0.13 0.12 0 0.02 0.02 0 0.12 0.12 0 0.02 0.03 0 0.12 0.11 0 0.03 0.03 0 0.11 0.11 0 0.04 0.04 0 0.11 0.1 0 0.04 0.04 0 0.1 0.1 0 0.04 0.05 0 0.1 0.1 0 0.05 0.05 0 0.1 0.09 0 0.05 0.05 0 0.09 0.09 0 0.05 0.05 0 0.09 0.09 0 0.06 0.06 0 0.09 0.08 0 0.06 0.06 0 0.08 0.08 0 0.06 0.06 0 0.08 0.08 0 0.06 0.07 0c1.67,1.64 3.32,3.31 4.95,4.99l0 0.02 0.02 0 0.12 0.13 0 0.01 0.01 0 0.13 0.14 0 0.01 0.01 0 0.13 0.14 0 0 0 0c0.57,0.6 1.15,1.2 1.72,1.8l0 0.06 0.06 0 0.09 0.09 0 0.05 0.05 0 0.1 0.1 0 0.04 0.04 0 0.1 0.11 0 0.03 0.03 0 0.11 0.12 0 0.03 0.02 0 0.12 0.13 0 0.02 0.02 0 0.13 0.14 0 0.01 0.01 0c0.38,0.41 0.76,0.82 1.14,1.23l0 0.06 0.05 0 0.09 0.1 0 0.05 0.04 0 0.1 0.11 0 0.03 0.03 0 0.11 0.12 0 0.02 0.02 0 0.12 0.13 0 0.01 0.01 0c0.86,0.94 1.72,1.89 2.57,2.84l0 0.02 0.02 0 0.13 0.14 0 0 0 0c0.24,0.27 0.48,0.53 0.71,0.8l0 0.06 0.05 0 0.09 0.11 0 0.04 0.03 0 0.11 0.13 0 0.02 0.01 0 0.7 0.8 0 0.05 0.05 0 0.1 0.11 0 0.03 0.03 0 0.11 0.13 0 0.01 0.01 0 0.56 0.65 0 0.07 0.06 0 0.08 0.1 0 0.04 0.04 0 0.1 0.12 0 0.02 0.02 0 0.7 0.81 0 0.04 0.04 0 0.11 0.12 0 0.02 0.02 0 0.7 0.82 0 0.04 0.03 0 0.11 0.13 0 0.01 0.01 0 0.71 0.84 0 0.01 0.01 0c0.48,0.57 0.95,1.14 1.42,1.71l0 0.01 0 0 0.57 0.69 0 0.02 0.02 0 0.55 0.68 0 0.04 0.03 0 0.11 0.14 0 0 0 0 0.43 0.53 0 0.04 0.03 0 0.11 0.14 0 0.01 0.01 0 0.42 0.53 0 0.05 0.04 0 0.1 0.13 0 0.01 0.01 0 0.42 0.53 0 0.04 0.03 0 0.11 0.14 0 0 0 0 0.43 0.54 0 0.03 0.03 0 0.4 0.51 0 0.06 0.05 0 0.09 0.12 0 0.02 0.02 0 0.41 0.53 0 0.04 0.03 0 0.11 0.14 0 0 0 0 0.43 0.55 0 0.02 0.02 0c0.33,0.43 0.66,0.86 0.99,1.29l0 0 0 0 0.43 0.56 0 0.01 0.01 0 0.42 0.55 0 0.02 0.01 0 0.41 0.55 0 0.02 0.02 0 0.27 0.36 0 0.07 0.05 0 0.09 0.13 0 0.02 0.01 0 0.27 0.37 0 0.06 0.05 0 0.1 0.13 0 0.01 0.01 0 0.28 0.37 0 0.06 0.04 0 0.1 0.13 0 0.01 0.01 0 0.28 0.38 0 0.05 0.04 0 0.39 0.54 0 0.03 0.02 0 0.26 0.36 0 0.07 0.05 0 0.09 0.13 0 0.02 0.01 0 0.27 0.38 0 0.05 0.04 0 0.1 0.14 0 0 0 0 0.29 0.4 0 0.03 0.02 0 0.41 0.57 0 0 0 0c0.24,0.33 0.48,0.67 0.71,1l0 0 0 0c0.34,0.47 0.67,0.95 1,1.42l0 0.01 0 0 0.28 0.4 0 0.03 0.02 0 0.27 0.38 0 0.05 0.03 0 0.25 0.37 0 0.06 0.04 0 0.24 0.36 0 0.07 0.05 0 0.09 0.14 0 0.01 0 0 0.28 0.41 0 0.02 0.01 0 0.27 0.4 0 0.03 0.02 0 0.26 0.39 0 0.04 0.03 0 0.26 0.38 0 0.05 0.03 0 0.26 0.38 0 0.05 0.03 0 0.25 0.38 0 0.05 0.03 0 0.25 0.37 0 0.05 0.04 0 0.25 0.37 0 0.06 0.04 0 0.25 0.38 0 0.05 0.03 0c0.47,0.71 0.93,1.42 1.4,2.14l0 0.01 0.01 0 0.71 1.1 0 0.04 0.03 0 0.26 0.4 0 0.03 0.02 0 0.27 0.42 0 0 0 0 0.14 0.22 0 0.06 0.04 0 0.25 0.39 0 0.04 0.02 0 0.26 0.42 0 0.01 0.01 0 0.14 0.22 0 0.07 0.04 0 0.24 0.38 0 0.04 0.03 0 0.26 0.42 0 0.01 0.01 0 0.14 0.22 0 0.07 0.04 0 0.25 0.4 0 0.03 0.02 0 0.41 0.67 0 0.05 0.03 0 0.25 0.41 0 0.01 0.01 0 0.13 0.22 0 0.06 0.04 0 0.25 0.41 0 0.02 0.01 0 0.42 0.7 0 0.02 0.01 0c0.28,0.47 0.57,0.95 0.85,1.42l0 0.01 0.01 0 0.56 0.96 0 0.04 0.02 0c0.14,0.23 0.27,0.46 0.4,0.69l0 0.03 0.02 0 0.13 0.22 0 0.06 0.04 0 0.39 0.68 0 0.03 0.02 0 0.12 0.21 0 0.07 0.04 0 0.24 0.43 0 0 0 0 0.14 0.24 0 0.04 0.02 0 0.12 0.21 0 0.08 0.04 0c0.13,0.23 0.26,0.46 0.39,0.68l0 0.03 0.02 0 0.13 0.22 0 0.06 0.04 0 0.39 0.7 0 0.02 0.01 0 0.13 0.24 0 0.05 0.03 0c0.18,0.33 0.36,0.66 0.55,0.99l0 0.01 0.01 0 0.14 0.25 0 0.04 0.02 0c0.18,0.34 0.37,0.67 0.55,1l0 0c0.38,0.71 0.77,1.42 1.15,2.13l0 0.02 0.01 0 0.13 0.25 0 0.04 0.02 0 0.12 0.23 0 0.05 0.03 0 0.11 0.22 0 0.07 0.03 0 0.11 0.2 0 0.08 0.04 0 0.1 0.19 0 0.09 0.05 0c0.18,0.33 0.35,0.67 0.52,1l0 0 0 0 0.14 0.27 0 0.02 0.01 0 0.13 0.26 0 0.02 0.01 0 0.13 0.26 0 0.03 0.01 0 0.13 0.25 0 0.04 0.02 0 0.12 0.24 0 0.04 0.02 0 0.12 0.24 0 0.05 0.02 0 0.12 0.23 0 0.06 0.03 0 0.11 0.22 0 0.06 0.03 0 0.11 0.22 0 0.07 0.03 0 0.11 0.21 0 0.07 0.03 0c0.52,1.03 1.03,2.07 1.54,3.11l0 0.04 0.02 0 0.12 0.25 0 0.03 0.02 0 0.13 0.26 0 0.02 0.01 0 0.13 0.27 0 0.02 0.01 0 0.13 0.28 0 0.01 0 0c0.19,0.4 0.38,0.79 0.57,1.19l0 0.1 0.04 0 0.1 0.21 0 0.08 0.04 0 0.1 0.22 0 0.06 0.03 0 0.11 0.24 0 0.05 0.02 0 0.12 0.25 0 0.03 0.02 0 0.13 0.27 0 0.01 0.01 0 0.28 0.61 0 0.11 0.05 0 0.09 0.2 0 0.09 0.04 0 0.1 0.22 0 0.07 0.03 0 0.11 0.24 0 0.04 0.02 0 0.12 0.27 0 0.02 0.01 0c0.19,0.41 0.38,0.83 0.56,1.24l0 0.04 0.02 0 0.12 0.27 0 0.01 0.01 0c0.38,0.85 0.76,1.71 1.14,2.57l0 0.01 0 0 0.28 0.64 0 0.08 0.03 0 0.11 0.25 0 0.03 0.01 0 0.27 0.64 0 0.08 0.03 0 0.11 0.26 0 0.03 0.01 0 0.27 0.64 0 0.08 0.03 0 0.11 0.26 0 0.03 0.01 0 0.13 0.31 0 0.12 0.05 0 0.09 0.22 0 0.06 0.03 0 0.12 0.28 0 0.01 0 0 0.14 0.34 0 0.09 0.04 0 0.11 0.26 0 0.03 0.01 0 0.27 0.66 0 0.06 0.02 0 0.26 0.64 0 0.08 0.03 0 0.11 0.28 0 0.01 0 0 0.28 0.7 0 0.01 0 0c0.29,0.71 0.57,1.43 0.85,2.14l0 0 0 0c0.14,0.36 0.29,0.73 0.43,1.09l0 0.05 0.02 0 0.27 0.69 0 0.03 0.01 0 0.13 0.35 0 0.08 0.03 0 0.26 0.67 0 0.04 0.02 0 0.13 0.34 0 0.09 0.04 0 0.11 0.28 0 0 0 0 0.14 0.38 0 0.05 0.02 0 0.12 0.34 0 0.09 0.03 0 0.11 0.29 0 0.14 0.05 0 0.09 0.25 0 0.03 0.01 0 0.13 0.35 0 0.08 0.03 0 0.12 0.31 0 0.12 0.04 0 0.1 0.27 0 0.01 0 0 0.14 0.39 0 0.04 0.02 0 0.13 0.36 0 0.07 0.02 0c0.14,0.38 0.27,0.75 0.4,1.13l0 0.02 0 0c0.34,0.95 0.67,1.91 1,2.86l0 0 0 0 0.14 0.42 0 0 0 0 0.14 0.42 0 0.01 0 0 0.14 0.42 0 0.01 0 0 0.14 0.42 0 0.16 0.05 0 0.09 0.27 0 0.16 0.05 0 0.09 0.27 0 0.16 0.05 0 0.09 0.28 0 0.15 0.05 0 0.09 0.29 0 0.14 0.04 0 0.1 0.31 0 0.12 0.04 0 0.1 0.32 0 0.11 0.03 0 0.11 0.33 0 0.1 0.03 0 0.11 0.35 0 0.08 0.03 0 0.12 0.37 0 0.05 0.02 0 0.13 0.4 0 0.03 0.01 0c0.16,0.5 0.32,1 0.47,1.51 -0.39,0.5 -0.8,1 -1.19,1.5l-0 0 0 0 -0.57 0.71 -0.01 0 0 0.01c-0.19,0.23 -0.37,0.47 -0.56,0.71l-0.01 0 0 0.01c-0.19,0.23 -0.37,0.47 -0.56,0.7l-0.01 0 0 0.01 -0.11 0.13 -0.04 0 0 0.05c-0.18,0.22 -0.37,0.45 -0.55,0.67l-0.02 0 0 0.03 -0.56 0.69 -0.01 0 0 0.01c-0.9,1.1 -1.8,2.19 -2.72,3.28l-0 0 0 0c-0.28,0.33 -0.56,0.67 -0.84,1l-0.02 0 0 0.02c-0.23,0.28 -0.47,0.56 -0.7,0.84l-0.01 0 0 0.02 -0.11 0.13 -0.03 0 0 0.04c-0.23,0.27 -0.47,0.55 -0.71,0.82l-0.01 0 0 0.01 -0.12 0.14 -0.03 0 0 0.03c-0.9,1.05 -1.81,2.09 -2.72,3.12l-0 0 0 0c-0.38,0.43 -0.76,0.86 -1.14,1.29l0 0 0 0 -0.13 0.14 -0.02 0 0 0.02c-0.38,0.42 -0.75,0.85 -1.14,1.27l-0.01 0 0 0.01 -0.12 0.13 -0.02 0 0 0.02 -0.11 0.12 -0.03 0 0 0.04c-0.38,0.42 -0.76,0.83 -1.14,1.25l-0 0 0 0 -0.13 0.14 -0.01 0 0 0.01c-0.48,0.52 -0.95,1.04 -1.43,1.56 -0.76,0.82 -1.52,1.63 -2.29,2.43l-0 0 0 0 -0.13 0.14 -0.01 0 0 0.01 -0.12 0.13 -0.02 0 0 0.02 -0.12 0.12 -0.03 0 0 0.03 -0.11 0.11 -0.04 0 0 0.04c-0.99,1.04 -2,2.08 -3,3.11l-0 0 0 0c-0.28,0.29 -0.57,0.57 -0.85,0.86l-0.01 0 0 0.01 -0.13 0.13 -0.01 0 0 0.01 -0.13 0.13 -0.01 0 0 0.01 -0.13 0.13 -0.01 0 0 0.01 -0.13 0.13 -0.01 0 0 0.01 -0.13 0.13 -0.02 0 0 0.01 -0.13 0.13 -0.01 0 0 0.01 -0.13 0.13 -0.02 0 0 0.02 -0.13 0.13 -0.02 0 0 0.02 -0.12 0.13 -0.02 0 0 0.02 -0.12 0.12 -0.02 0 0 0.02 -0.12 0.12 -0.02 0 0 0.02 -0.12 0.12 -0.02 0 0 0.02 -0.12 0.12 -0.02 0 0 0.02 -0.12 0.12 -0.02 0 0 0.02 -0.12 0.12 -0.02 0 0 0.02 -0.12 0.12 -0.02 0 0 0.03 -0.12 0.12 -0.03 0 0 0.03 -0.12 0.12 -0.02 0 0 0.02 -0.12 0.12 -0.02 0 0 0.02 -0.13 0.12 -0.02 0 0 0.02 -0.13 0.13 -0.01 0 0 0.01 -0.13 0.13 -0.01 0 0 0.01 -0.14 0.13 -0.01 0 0 0.01 -0.14 0.14 -0.01 0 0 0 -0.14 0.14 -0 0 0 0c-1.27,1.25 -2.56,2.49 -3.85,3.72l-0.02 0 0 0.02 -0.13 0.13 -0.01 0 0 0.01 -0.14 0.13 -0 0 0 0c-0.66,0.62 -1.31,1.24 -1.97,1.86l-0.03 0 0 0.03 -0.12 0.11 -0.02 0 0 0.02 -0.14 0.13 -0.01 0 0 0.01c-1.13,1.06 -2.28,2.1 -3.43,3.14l-0.01 0 0 0.01c-0.42,0.38 -0.84,0.76 -1.26,1.14l-0.03 0 0 0.02 -0.13 0.12 -0.01 0 0 0.01c-0.37,0.33 -0.74,0.66 -1.11,0.99l-0.03 0 0 0.03 -0.13 0.12 -0.01 0 0 0.01c-0.38,0.33 -0.75,0.66 -1.13,0.99l-0.01 0 0 0.01c-1.04,0.91 -2.08,1.81 -3.14,2.71l-0.01 0 0 0.01 -0.83 0.7 -0.03 0 0 0.03 -0.14 0.11 -0.01 0 0 0.01c-0.28,0.24 -0.55,0.47 -0.83,0.71l-0.03 0 0 0.02c-0.28,0.23 -0.56,0.46 -0.84,0.69l-0.02 0 0 0.02c-0.28,0.23 -0.56,0.46 -0.84,0.7l-0.02 0 0 0.01c-1.04,0.86 -2.08,1.71 -3.13,2.56l-0.02 0 0 0.01 -0.69 0.56 -0.02 0 0 0.02 -0.69 0.56 -0.03 0 0 0.02c-0.23,0.18 -0.46,0.37 -0.69,0.55l-0.03 0 0 0.02c-0.23,0.19 -0.47,0.37 -0.7,0.55l-0.01 0 0 0.01 -0.72 0.56 -0 0c-0.43,0.33 -0.85,0.67 -1.28,1l-0.01 0 0 0.01c-0.43,0.33 -0.86,0.66 -1.29,1l-0 0 0 0 -0.56 0.43 -0.01 0 0 0.01 -0.56 0.42 -0.02 0 0 0.01 -0.55 0.42 -0.03 0 0 0.02 -0.54 0.41 -0.03 0 0 0.03c-0.18,0.13 -0.35,0.27 -0.53,0.4l-0.04 0 0 0.03 -0.53 0.4 -0.04 0 0 0.03 -0.54 0.4 -0.03 0 0 0.02 -0.55 0.41 -0.02 0 0 0.02 -0.56 0.41 -0.01 0 0 0.01 -0.57 0.42 -0 0 0 0c-0.85,0.62 -1.7,1.24 -2.56,1.86l-0.02 0 0 0.01 -0.98 0.7 -0.02 0 0 0.01c-0.33,0.23 -0.65,0.47 -0.98,0.7l-0.03 0 0 0.02c-0.13,0.09 -0.26,0.18 -0.38,0.27l-0.04 0 0 0.03c-0.19,0.13 -0.38,0.26 -0.57,0.4l-0 0 0 0 -0.41 0.28 -0.02 0 0 0.01c-1.23,0.86 -2.47,1.72 -3.72,2.56l-0 0 0 0 -0.42 0.29 -0.01 0 0 0 -0.41 0.28 -0.02 0 0 0.01 -0.41 0.28 -0.02 0 0 0.01 -0.4 0.27 -0.03 0 0 0.02c-0.13,0.09 -0.26,0.18 -0.39,0.27l-0.03 0 0 0.02 -0.4 0.26 -0.03 0 0 0.02 -0.4 0.27 -0.02 0 0 0.02 -0.41 0.27 -0.02 0 0 0.01 -0.42 0.27 -0.01 0 0 0.01 -0.42 0.28 -0.01 0 0 0c-1.32,0.87 -2.65,1.73 -3.99,2.57l-0.02 0 0 0.01 -0.43 0.27 0 0c-0.22,0.14 -0.45,0.29 -0.67,0.43l-0.04 0 0 0.03 -0.41 0.26 -0.02 0 0 0.01c-0.22,0.14 -0.45,0.28 -0.68,0.42l-0.04 0 0 0.02 -0.42 0.26 -0 0 0 0 -0.69 0.43 -0.02 0 0 0.02c-0.38,0.23 -0.76,0.47 -1.13,0.7l-0.01 0 0 0.01c-0.94,0.58 -1.89,1.14 -2.84,1.71l-0.03 0 0 0.02 -0.69 0.41 -0.02 0 0 0.01c-0.23,0.14 -0.46,0.28 -0.69,0.41l-0.02 0 0 0.01 -0.71 0.42 -0.01 0 0 0 -0.24 0.14 -0.05 0 0 0.03c-0.23,0.14 -0.46,0.27 -0.69,0.4l-0.02 0 0 0.01c-0.57,0.33 -1.14,0.66 -1.71,0.99l-0.01 0 0 0.01c-1.09,0.62 -2.18,1.24 -3.28,1.86l-0.01 0 0 0.01 -0.24 0.14 -0.04 0 0 0.02c-0.33,0.18 -0.65,0.37 -0.98,0.55l-0.02 0 0 0.01 -0.23 0.13 -0.05 0 0 0.03c-0.42,0.23 -0.85,0.46 -1.27,0.69l-0.02 0 0 0.01c-0.52,0.28 -1.04,0.57 -1.56,0.85l-0.01 0 0 0.01c-0.71,0.38 -1.42,0.76 -2.14,1.14l-0.01 0 0 0 -0.26 0.14 -0.02 0 0 0.01c-0.81,0.43 -1.62,0.86 -2.43,1.28l-0 0 0 0 -0.28 0.14 -0.01 0 0 0 -0.27 0.14 -0.01 0 0 0.01 -0.27 0.14 -0.02 0 0 0.01 -0.26 0.13 -0.02 0 0 0.01 -0.26 0.13 -0.02 0 0 0.01 -0.26 0.13 -0.03 0 0 0.01 -0.25 0.13 -0.03 0 0 0.01c-1.23,0.62 -2.46,1.24 -3.69,1.85l-0.03 0 0 0.01 -0.27 0.13 -0.02 0 0 0.01 -0.27 0.13 -0.01 0 0 0.01 -0.28 0.13 -0.01 0 0 0 -0.28 0.14 -0 0 0 0c-0.89,0.43 -1.78,0.86 -2.68,1.29l-0.04 0 0 0.02 -0.26 0.12 -0.02 0 0 0.01 -0.28 0.13 -0.01 0 0 0c-0.81,0.38 -1.62,0.77 -2.43,1.14l-0 0 0 0c-0.52,0.24 -1.05,0.48 -1.57,0.72l-0 0 0 0c-0.42,0.19 -0.84,0.38 -1.26,0.57l-0.03 0 0 0.01 -0.28 0.13 -0 0 0 0c-0.32,0.14 -0.63,0.29 -0.95,0.43l-0.05 0 0 0.02 -0.27 0.12 -0.01 0 0 0c-0.32,0.14 -0.65,0.28 -0.97,0.42l-0.03 0 0 0.01 -1.28 0.56 -0.01 0 0 0c-1,0.43 -1.99,0.86 -2.99,1.28l-0.01 0 0 0 -0.67 0.28 -0.05 0 0 0.02c-0.32,0.14 -0.65,0.27 -0.97,0.41l-0.03 0 0 0.01c-0.22,0.09 -0.43,0.19 -0.65,0.28l-0.06 0 0 0.03 -0.28 0.12 -0 0 0 0c-0.23,0.1 -0.47,0.19 -0.71,0.29l-0.01 0 0 0 -0.7 0.28 -0.02 0 0 0.01 -0.69 0.28 -0.02 0 0 0.01c-0.95,0.38 -1.9,0.76 -2.85,1.14l-0.01 0 0 0c-0.61,0.24 -1.22,0.48 -1.83,0.71l-0.03 0 0 0.01c-0.24,0.09 -0.47,0.19 -0.71,0.28l-0 0 0 0 -0.36 0.14 -0.07 0 0 0.03 -0.69 0.26 -0.02 0 0 0.01 -0.36 0.13 -0.07 0 0 0.03c-0.23,0.09 -0.47,0.17 -0.7,0.26l-0.01 0 0 0 -1.14 0.42 -0 0 0 0c-1.18,0.44 -2.37,0.87 -3.56,1.29l-0.02 0 0 0.01 -0.38 0.14 -0.05 0 0 0.02c-0.52,0.18 -1.04,0.37 -1.56,0.56l-0.01 0 0 0 -0.39 0.14 -0.03 0 0 0.01 -0.39 0.13 -0.04 0 0 0.01 -0.38 0.13 -0.05 0 0 0.02 -0.37 0.13 -0.06 0 0 0.02c-1.7,0.58 -3.4,1.15 -5.11,1.7l-0.04 0 0 0.01 -0.4 0.13 -0.03 0 0 0.01 -0.41 0.13 -0.02 0 0 0 -0.43 0.14 -0 0 0 0c-0.45,0.14 -0.9,0.29 -1.35,0.43l-0.08 0 0 0.02 -0.38 0.12 -0.04 0 0 0.01 -0.42 0.13 -0.01 0 0 0c-0.62,0.19 -1.24,0.38 -1.85,0.57l-0.01 0 0 0c-1.28,0.39 -2.57,0.77 -3.86,1.14l-0 0 0 0 -0.48 0.14 -0.09 0 0 0.02 -0.4 0.12 -0.03 0 0 0.01c-0.16,0.04 -0.31,0.09 -0.46,0.14l-0.11 0 0 0.03 -0.4 0.11 -0.03 0 0 0.01 -0.49 0.13 -0.09 0 0 0.02c-0.32,0.09 -0.63,0.18 -0.95,0.26l-0.05 0 0 0.01 -0.99 0.27 -0.01 0 0 0c-1.42,0.39 -2.85,0.77 -4.29,1.14l-0.01 0 0 0 -0.54 0.14 -0.03 0 0 0.01 -0.52 0.13 -0.06 0 0 0.01c-0.16,0.04 -0.33,0.09 -0.49,0.13l-0.08 0 0 0.02 -0.5 0.12 -0.07 0 0 0.02 -0.51 0.12 -0.06 0 0 0.02 -0.52 0.13 -0.05 0 0 0.01 -0.53 0.13 -0.04 0 0 0.01 -0.54 0.13 -0.03 0 0 0.01 -0.55 0.14 -0.02 0 0 0 -0.56 0.14 -0.01 0 0 0c-0.61,0.15 -1.22,0.29 -1.82,0.43l-0.04 0 0 0.01c-0.4,0.09 -0.8,0.19 -1.21,0.28l-0.08 0 0 0.02 -0.54 0.12 -0.03 0 0 0.01 -0.59 0.14 -0.13 0 0 0.03 -0.5 0.11 -0.08 0 0 0.02c-0.19,0.04 -0.39,0.08 -0.59,0.13l-0.13 0 0 0.03 -0.53 0.11 -0.04 0 0 0.01 -0.63 0.14 -0.09 0 0 0.02c-0.41,0.09 -0.83,0.18 -1.25,0.27l-0.04 0 0 0.01c-1.62,0.34 -3.25,0.67 -4.88,0.99l-0.14 0 0 0.03 -0.58 0.12 -0.13 0 0 0.03 -0.62 0.12 -0.09 0 0 0.02 -0.68 0.13 -0.03 0 0 0.01c-0.51,0.1 -1.01,0.19 -1.51,0.28l-0.06 0 0 0.01 -0.71 0.13 -0 0 0 0c-1.09,0.2 -2.19,0.38 -3.29,0.57l-0 0 0 0 -0.84 0.14 -0.02 0 0 0c-0.27,0.05 -0.55,0.09 -0.82,0.14l-0.18 0 0 0.03 -0.69 0.11 -0.17 0 0 0.03c-0.25,0.04 -0.5,0.08 -0.75,0.12l-0.11 0 0 0.02 -0.82 0.13 -0.04 0 0 0c-1.6,0.25 -3.2,0.49 -4.81,0.71l-0.06 0 0 0.01 -0.96 0.14 -0.19 0 0 0.02c-0.28,0.04 -0.56,0.08 -0.84,0.12l-0.16 0 0 0.02c-0.32,0.04 -0.63,0.08 -0.95,0.12l-0.2 0 0 0.02c-0.32,0.04 -0.63,0.08 -0.95,0.12l-0.05 0 0 0.01 -1.09 0.14 -0.05 0 0 0.01c-1.21,0.15 -2.42,0.29 -3.63,0.42l-0.09 0 0 0.01c-0.4,0.04 -0.8,0.09 -1.21,0.13l-0.22 0 0 0.02c-0.36,0.04 -0.72,0.08 -1.07,0.12l-0.22 0 0 0.02c-0.43,0.04 -0.86,0.08 -1.29,0.12l-0.15 0 0 0.01c-0.45,0.04 -0.9,0.09 -1.35,0.13l-0.08 0 0 0.01c-0.47,0.04 -0.95,0.09 -1.42,0.14l-0.01 0 0 0c-0.57,0.05 -1.15,0.09 -1.73,0.14l-0.14 0 0 0.01c-0.54,0.05 -1.09,0.09 -1.63,0.13l-0.23 0 0 0.02c-0.54,0.04 -1.08,0.08 -1.62,0.12l-0.38 0 0 0.03c-0.59,0.04 -1.19,0.08 -1.78,0.12l-0.08 0 0 0c-1.62,0.11 -3.24,0.2 -4.87,0.28l-0.43 0 0 0.02c-0.89,0.04 -1.77,0.08 -2.66,0.12l-0.49 0 0 0.02c-1.18,0.05 -2.35,0.09 -3.53,0.12l-0.05 0 0 0c-3.09,0.09 -6.19,0.13 -9.31,0.13 -3.11,0 -6.22,-0.05 -9.31,-0.13zm9.31 -693.65c10.87,0 21.62,0.55 32.22,1.6l0 0 0 0c0.48,0.05 0.95,0.09 1.43,0.14l0 0 0 0c1.67,0.17 3.34,0.37 5.01,0.57l0 0c30.64,3.66 59.96,11.58 87.35,23.2l0 0c0.77,0.33 1.53,0.67 2.29,1 0.76,0.33 1.53,0.66 2.29,1l0 0c0.76,0.34 1.53,0.66 2.29,1 1.44,0.65 2.87,1.33 4.29,2.01l0 0c35.14,16.51 66.81,39.17 93.65,66.59 35.53,36.3 62.57,80.95 77.9,130.74l0 0c9.26,30.07 14.25,62.02 14.25,95.13 0,1.61 -0.01,3.21 -0.04,4.82l-0.04 0 0 2.04c-0.03,1.52 -0.07,3.04 -0.13,4.55l-0.02 0 0 0.48c-0.03,0.89 -0.07,1.78 -0.11,2.67l-0.03 0 0 0.78c-0.04,0.79 -0.08,1.58 -0.12,2.37l-0.02 0 0 0.43c-0.08,1.44 -0.17,2.87 -0.27,4.3l-0.02 0 0 0.3c-0.04,0.52 -0.07,1.04 -0.11,1.56l-0.03 0 0 0.42c-0.04,0.48 -0.08,0.96 -0.11,1.44l-0.03 0 0 0.36c-0.04,0.5 -0.08,1 -0.13,1.5l-0.02 0 0 0.2c-0.09,1.03 -0.18,2.06 -0.28,3.09l-0 0 0 0.04 -0.12 1.25 -0.02 0 0 0.2 -0.11 1.09 -0.03 0 0 0.31 -0.12 1.12 -0.02 0 0 0.21 -0.12 1.08 -0.02 0 0 0.21 -0.13 1.08 -0.02 0 0 0.15c-0.13,1.14 -0.27,2.29 -0.42,3.43l-0.01 0 0 0.07 -0.12 0.93 -0.02 0 0 0.17 -0.11 0.84 -0.03 0 0 0.23 -0.12 0.91 -0.02 0 0 0.14 -0.12 0.86 -0.02 0 0 0.15 -0.12 0.85 -0.02 0 0 0.16 -0.13 0.84 -0.02 0 0 0.12c-0.09,0.63 -0.19,1.26 -0.28,1.88l-0 0 0 0.01 -0.13 0.85 -0.01 0 0 0.07 -0.12 0.79 -0.02 0 0 0.12 -0.12 0.74 -0.02 0 0 0.14 -0.12 0.73 -0.02 0 0 0.15 -0.12 0.71 -0.03 0 0 0.15 -0.12 0.71 -0.02 0 0 0.13 -0.13 0.73 -0.02 0 0 0.1 -0.13 0.76 -0.01 0 0 0.06c-0.14,0.79 -0.28,1.58 -0.43,2.37l-0 0 0 0 -0.13 0.71 -0.01 0 0 0.05 -0.13 0.67 -0.02 0 0 0.1c-0.09,0.49 -0.19,0.98 -0.28,1.48l-0 0 0 0.01 -0.14 0.7 -0.01 0 0 0.03 -0.13 0.68 -0.01 0 0 0.05 -0.14 0.67 -0.01 0 0 0.04 -0.14 0.68 -0 0 0 0.03 -0.14 0.69 -0 0 0 0.01c-0.27,1.33 -0.56,2.67 -0.85,3.99l-0.01 0 0 0.03c-0.09,0.42 -0.18,0.84 -0.28,1.26l-0.01 0 0 0.04 -0.12 0.53 -0.02 0 0 0.1 -0.14 0.62 -0 0 0 0.01 -0.13 0.56 -0.02 0 0 0.07 -0.12 0.5 -0.03 0 0 0.12 -0.14 0.6 -0 0 0 0.01 -0.13 0.56 -0.01 0 0 0.05 -0.12 0.53 -0.02 0 0 0.08c-0.23,0.98 -0.47,1.95 -0.71,2.92l-0 0 0 0.01 -0.14 0.56 -0 0 0 0.01 -0.14 0.56 -0 0 0 0.01 -0.14 0.57 -0 0 0 0 -0.26 1 -0.03 0 0 0.11 -0.12 0.46 -0.02 0 0 0.09 -0.12 0.48 -0.02 0 0 0.07 -0.13 0.5 -0.01 0 0 0.04 -0.14 0.53 -0 0 0 0.01 -0.11 0.42 -0.03 0 0 0.11 -0.12 0.46 -0.02 0 0 0.08 -0.13 0.5 -0.01 0 0 0.04c-0.32,1.18 -0.65,2.37 -0.98,3.54l-0.02 0 0 0.06 -0.27 0.94 -0.02 0 0 0.07 -0.27 0.94 -0.01 0 0 0.05 -0.11 0.38 -0.03 0 0 0.11 -0.13 0.46 -0.01 0 0 0.03 -0.12 0.4 -0.02 0 0 0.08 -0.28 0.92 -0.01 0 0 0.04 -0.12 0.39 -0.03 0 0 0.09 -0.28 0.91 -0.01 0 0 0.03 -0.43 1.4c-0.28,0.91 -0.56,1.82 -0.85,2.72l-0 0 0 0.01 -0.13 0.41 -0.01 0 0 0.03 -0.13 0.4 -0.01 0 0 0.04 -0.13 0.39 -0.02 0 0 0.05 -0.12 0.37 -0.02 0 0 0.07 -0.12 0.36 -0.02 0 0 0.08 -0.12 0.35 -0.03 0 0 0.08 -0.12 0.35 -0.03 0 0 0.08 -0.11 0.35 -0.03 0 0 0.09 -0.11 0.34 -0.03 0 0 0.09c-0.37,1.12 -0.75,2.23 -1.14,3.35l-0.01 0 0 0.02 -0.14 0.41 -0 0 0 0c-0.18,0.52 -0.37,1.05 -0.55,1.57l-0.02 0 0 0.06 -0.13 0.37 -0.01 0 0 0.04 -0.14 0.39 -0 0 0 0.01 -0.25 0.71 -0.03 0 0 0.1 -0.12 0.33 -0.02 0 0 0.06 -0.13 0.37 -0.01 0 0 0.03 -0.41 1.12 -0.02 0 0 0.06 -0.14 0.37 -0.01 0 0 0.02c-0.14,0.37 -0.28,0.75 -0.42,1.12l-0.01 0 0 0.03c-0.28,0.75 -0.57,1.51 -0.85,2.26l-0.01 0 0 0.01 -0.27 0.7 -0.02 0 0 0.05 -0.26 0.66 -0.03 0 0 0.08 -0.14 0.35 -0 0 0 0.01 -0.27 0.7 -0.01 0 0 0.03 -0.27 0.68 -0.02 0 0 0.05 -0.27 0.67 -0.02 0 0 0.05 -0.26 0.66 -0.02 0 0 0.05 -0.26 0.66 -0.02 0 0 0.06 -0.27 0.66 -0.02 0 0 0.04c-0.42,1.04 -0.85,2.07 -1.28,3.11l-0.01 0 0 0.02 -0.41 0.98 -0.02 0 0 0.05 -0.28 0.67 -0 0 0 0 -0.12 0.28 -0.02 0 0 0.06 -0.28 0.66 -0.01 0 0 0.01 -0.12 0.27 -0.03 0 0 0.06 -0.28 0.66 -0 0 0 0 -0.12 0.28 -0.02 0 0 0.05 -0.41 0.95 -0.01 0 0 0.04c-0.14,0.32 -0.29,0.64 -0.43,0.97l-0 0 0 0c-0.19,0.43 -0.38,0.86 -0.57,1.28l-0 0 0 0.01c-0.23,0.52 -0.47,1.05 -0.71,1.57l-0.01 0 0 0.02 -0.12 0.26 -0.02 0 0 0.05c-0.19,0.41 -0.38,0.82 -0.57,1.24l-0 0 0 0.01 -0.13 0.28 -0.01 0 0 0.03 -0.12 0.25 -0.03 0 0 0.06c-0.19,0.41 -0.38,0.82 -0.57,1.23l-0.13 0.29 -0.01 0 0 0.02 -0.12 0.27 -0.02 0 0 0.04 -0.12 0.25 -0.03 0 0 0.06c-0.28,0.6 -0.57,1.2 -0.86,1.8l0 0 0 0c-1.44,3 -2.92,5.97 -4.45,8.92 -22.08,-35.77 -50.78,-67.32 -84.73,-92.82 -10.71,-8.04 -21.87,-15.42 -33.4,-22.11 2.13,-10.81 3.26,-21.98 3.26,-33.42 0,-95.04 -77.04,-172.08 -172.08,-172.08 -95.04,0 -172.08,77.04 -172.08,172.08 0,11.43 1.13,22.61 3.26,33.42 -11.54,6.69 -22.69,14.07 -33.4,22.11 -33.95,25.49 -62.65,57.05 -84.73,92.82 -1.83,-3.54 -3.6,-7.11 -5.31,-10.73l0 -0.06 -0.03 0 -0.12 -0.25 0 -0.04 -0.02 0 -0.13 -0.27 0 -0.02 -0.01 0c-0.24,-0.5 -0.47,-1.01 -0.71,-1.51l0 -0.06 -0.03 0 -0.12 -0.25 0 -0.03 -0.02 0 -0.13 -0.28 0 -0.01 -0 0c-0.19,-0.41 -0.38,-0.82 -0.57,-1.24l0 -0.05 -0.02 0 -0.12 -0.27 0 -0.02 -0.01 0c-0.24,-0.52 -0.47,-1.04 -0.71,-1.57l0 -0.01 -0 0c-0.19,-0.43 -0.38,-0.86 -0.57,-1.29l0 -0 -0 0 -0.43 -0.97 0 -0.03 -0.01 0 -0.41 -0.95 0 -0.05 -0.02 0 -0.12 -0.28 0 -0 0 0 -0.29 -0.66 0 -0.06 -0.02 0 -0.12 -0.27 0 -0.01 -0 0 -0.28 -0.66 0 -0.05 -0.02 0 -0.12 -0.28 0 -0 -0 0 -0.28 -0.67 0 -0.04 -0.02 0 -0.41 -0.98 0 -0.02 -0.01 0c-0.43,-1.03 -0.86,-2.07 -1.28,-3.11l0 -0.04 -0.02 0 -0.27 -0.66 0 -0.06 -0.02 0 -0.26 -0.66 0 -0.05 -0.02 0 -0.26 -0.67 0 -0.05 -0.02 0 -0.27 -0.67 0 -0.05 -0.02 0 -0.27 -0.69 0 -0.03 -0.01 0 -0.27 -0.7 0 -0.01 -0 0 -0.14 -0.35 0 -0.08 -0.03 0 -0.26 -0.67 0 -0.05 -0.02 0 -0.27 -0.7 0 -0.01 -0 0c-0.29,-0.75 -0.57,-1.51 -0.85,-2.26l0 -0.03 -0.01 0c-0.14,-0.37 -0.28,-0.75 -0.42,-1.12l0 -0.02 -0.01 0 -0.14 -0.37 0 -0.06 -0.02 0 -0.41 -1.12 0 -0.03 -0.01 0 -0.13 -0.37 0 -0.06 -0.02 0 -0.12 -0.34 0 -0.09 -0.03 0 -0.25 -0.71 0 -0.01 -0 0 -0.14 -0.39 0 -0.03 -0.01 0 -0.13 -0.37 0 -0.06 -0.02 0c-0.19,-0.52 -0.37,-1.05 -0.55,-1.57l0 -0 0 0 -0.14 -0.41 0 -0.02 -0.01 0c-0.38,-1.11 -0.76,-2.23 -1.14,-3.35l0 -0.09 -0.03 0 -0.12 -0.35 0 -0.08 -0.03 0 -0.12 -0.35 0 -0.08 -0.03 0 -0.12 -0.35 0 -0.08 -0.03 0 -0.12 -0.35 0 -0.08 -0.03 0 -0.12 -0.37 0 -0.06 -0.02 0 -0.12 -0.38 0 -0.05 -0.02 0 -0.13 -0.39 0 -0.04 -0.01 0 -0.13 -0.4 0 -0.02 -0.01 0 -0.14 -0.42 0 -0.01 -0 0c-0.44,-1.37 -0.87,-2.75 -1.29,-4.12l0 -0.03 -0.01 0 -0.28 -0.92 0 -0.08 -0.02 0 -0.12 -0.39 0 -0.04 -0.01 0 -0.28 -0.92 0 -0.08 -0.02 0 -0.12 -0.4 0 -0.03 -0.01 0 -0.14 -0.47 0 -0.11 -0.03 0 -0.11 -0.38 0 -0.04 -0.01 0 -0.27 -0.94 0 -0.06 -0.02 0 -0.27 -0.95 0 -0.06 -0.02 0c-0.19,-0.66 -0.37,-1.32 -0.56,-1.98l0 -0.02 -0 0c-0.14,-0.52 -0.28,-1.03 -0.42,-1.54l0 -0.03 -0.01 0 -0.14 -0.5 0 -0.07 -0.02 0 -0.12 -0.46 0 -0.11 -0.03 0 -0.11 -0.43 0 -0 0 0 -0.14 -0.53 0 -0.04 -0.01 0 -0.13 -0.51 0 -0.07 -0.02 0 -0.13 -0.49 0 -0.09 -0.02 0 -0.12 -0.47 0 -0.11 -0.03 0c-0.13,-0.53 -0.27,-1.05 -0.4,-1.58l0 0 -0.14 -0.57 0 -0 0 0 -0.14 -0.57 0 -0 -0 0c-0.24,-0.98 -0.48,-1.95 -0.72,-2.93l0 -0.08 -0.02 0 -0.13 -0.53 0 -0.04 -0.01 0 -0.13 -0.57 0 -0 -0 0 -0.14 -0.61 0 -0.11 -0.02 0 -0.12 -0.51 0 -0.07 -0.01 0 -0.13 -0.56 0 -0.01 -0 0 -0.14 -0.62 0 -0.09 -0.02 0 -0.12 -0.54 0 -0.04 -0.01 0 -0.28 -1.26 0 -0.03 -0.01 0c-0.29,-1.33 -0.58,-2.66 -0.85,-4l0 -0.01 -0 0 -0.14 -0.7 0 -0.02 -0 0 -0.14 -0.68 0 -0.03 -0.01 0 -0.14 -0.67 0 -0.19 -0.04 0 -0.11 -0.55 0 -0.17 -0.03 0 -0.11 -0.57 0 -0.15 -0.03 0 -0.11 -0.58 0 -0.13 -0.03 0 -0.12 -0.62 0 -0.09 -0.02 0 -0.13 -0.67 0 -0.04 -0.01 0c-0.19,-1.03 -0.38,-2.06 -0.56,-3.1l0 -0.05 -0.01 0 -0.13 -0.77 0 -0.09 -0.02 0 -0.13 -0.74 0 -0.12 -0.02 0 -0.12 -0.72 0 -0.14 -0.02 0 -0.12 -0.72 0 -0.14 -0.02 0 -0.12 -0.73 0 -0.13 -0.02 0 -0.12 -0.75 0 -0.11 -0.02 0 -0.13 -0.8 0 -0.06 -0.01 0 -0.13 -0.86 0 -0 0 0c-0.1,-0.63 -0.19,-1.26 -0.29,-1.9l0 -0.11 -0.02 0c-0.04,-0.28 -0.09,-0.57 -0.13,-0.85l0 -0.15 -0.02 0 -0.12 -0.86 0 -0.14 -0.02 0 -0.12 -0.87 0 -0.13 -0.02 0 -0.13 -0.92 0 -0.22 -0.03 0 -0.11 -0.85 0 -0.15 -0.02 0 -0.12 -0.94 0 -0.06 -0.01 0 -0.14 -1.07 0 -0.07 -0.01 0c-0.1,-0.76 -0.19,-1.53 -0.28,-2.29l0 -0.14 -0.02 0 -0.13 -1.09 0 -0.2 -0.02 0 -0.12 -1.1 0 -0.19 -0.02 0 -0.12 -1.13 0 -0.3 -0.03 0 -0.11 -1.1 0 -0.19 -0.02 0 -0.12 -1.27 0 -0.17 -0.01 0c-0.1,-0.99 -0.19,-1.97 -0.27,-2.96l0 -0.19 -0.02 0c-0.04,-0.51 -0.09,-1.01 -0.13,-1.52l0 -0.35 -0.03 0c-0.04,-0.49 -0.08,-0.98 -0.12,-1.46l0 -0.4 -0.03 0c-0.04,-0.53 -0.08,-1.06 -0.11,-1.59l0 -0.28 -0.02 0c-0.1,-1.44 -0.19,-2.88 -0.27,-4.32l0 -0.41 -0.02 0c-0.04,-0.8 -0.08,-1.59 -0.12,-2.39l0 -0.76 -0.03 0c-0.04,-0.91 -0.08,-1.81 -0.11,-2.72l0 -0.43 -0.01 0c-0.05,-1.54 -0.1,-3.09 -0.13,-4.64l0 -1.95 -0.03 0c-0.02,-1.6 -0.04,-3.21 -0.04,-4.82 0,-1.88 0.04,-3.76 0.07,-5.64l0 -0.01c2.18,-126.91 77.55,-235.98 185.72,-286.81 1.43,-0.67 2.85,-1.35 4.29,-2.01 0.76,-0.34 1.53,-0.66 2.29,-1l0 0 0 -0c0.76,-0.34 1.53,-0.67 2.29,-1 0.76,-0.33 1.52,-0.68 2.29,-1l0 0 0 0c27.38,-11.62 56.71,-19.54 87.35,-23.2l0 0c1.67,-0.2 3.33,-0.4 5.01,-0.57l0 0 0 0c0.48,-0.05 0.95,-0.1 1.43,-0.14l0 0 0 0c10.6,-1.05 21.35,-1.6 32.22,-1.6z"/>
 </g>
</svg>
